	<?xml version="1.0" standalone="no"?>
		<!DOCTYPE svg PUBLIC "-//W3C//DTD SVG 1.1//EN" "http://www.w3.org/Graphics/SVG/1.1/DTD/svg11.dtd">
		<svg
			height="1024"
			node-id="1"
			sillyvg="true"
			template-height="1024"
			template-width="1024"
			version="1.1"
			viewBox="0 0 1024 1024"
			width="1024"
			xmlns="http://www.w3.org/2000/svg"
			xmlns:xlink="http://www.w3.org/1999/xlink">
			<defs node-id="113">
				<linearGradient
					id="未命名的渐变_30"
					gradientUnits="objectBoundingBox"
					node-id="5"
					spreadMethod="pad"
					x1="212.14"
					x2="212.78"
					y1="933.32"
					y2="933.35">
					<stop offset="0" stop-color="#98d6fa" />
					<stop offset="1" stop-color="#47b0f1" />
				</linearGradient>
				<linearGradient
					id="未命名的渐变_30-2"
					gradientUnits="objectBoundingBox"
					node-id="8"
					spreadMethod="pad"
					x1="212.14"
					x2="212.78"
					y1="933.32"
					y2="933.35">
					<stop offset="0" stop-color="#98d6fa" />
					<stop offset="1" stop-color="#47b0f1" />
				</linearGradient>
				<linearGradient
					id="未命名的渐变_3"
					gradientUnits="objectBoundingBox"
					node-id="9"
					spreadMethod="pad"
					x1="213.77"
					x2="214.77"
					y1="931.76"
					y2="931.76">
					<stop offset="0" stop-color="#fff5de" />
					<stop offset="1" stop-color="#fbd2ac" />
				</linearGradient>
				<linearGradient
					id="未命名的渐变_30-3"
					gradientUnits="objectBoundingBox"
					node-id="12"
					spreadMethod="pad"
					x1="211.01"
					x2="211.64"
					y1="934.89"
					y2="934.91">
					<stop offset="0" stop-color="#98d6fa" />
					<stop offset="1" stop-color="#47b0f1" />
				</linearGradient>
				<linearGradient
					id="未命名的渐变_30-4"
					gradientUnits="objectBoundingBox"
					node-id="13"
					spreadMethod="pad"
					x1="209.74"
					x2="210.38"
					y1="936.45"
					y2="936.47">
					<stop offset="0" stop-color="#98d6fa" />
					<stop offset="1" stop-color="#47b0f1" />
				</linearGradient>
				<linearGradient
					id="未命名的渐变_30-5"
					gradientUnits="objectBoundingBox"
					node-id="14"
					spreadMethod="pad"
					x1="209.74"
					x2="210.38"
					y1="936.45"
					y2="936.47">
					<stop offset="0" stop-color="#98d6fa" />
					<stop offset="1" stop-color="#47b0f1" />
				</linearGradient>
				<linearGradient
					id="未命名的渐变_30-6"
					gradientUnits="objectBoundingBox"
					node-id="15"
					spreadMethod="pad"
					x1="207.92"
					x2="208.55"
					y1="938.7"
					y2="938.72">
					<stop offset="0" stop-color="#98d6fa" />
					<stop offset="1" stop-color="#47b0f1" />
				</linearGradient>
				<linearGradient
					id="未命名的渐变_30-7"
					gradientUnits="objectBoundingBox"
					node-id="16"
					spreadMethod="pad"
					x1="213.02"
					x2="213.41"
					y1="931.26"
					y2="931.82">
					<stop offset="0" stop-color="#98d6fa" />
					<stop offset="1" stop-color="#47b0f1" />
				</linearGradient>
				<linearGradient
					id="未命名的渐变_30-8"
					gradientUnits="objectBoundingBox"
					node-id="17"
					spreadMethod="pad"
					x1="213.42998"
					x2="214.08998"
					y1="931.62994"
					y2="931.4199">
					<stop offset="0" stop-color="#98d6fa" />
					<stop offset="1" stop-color="#47b0f1" />
				</linearGradient>
				<linearGradient
					id="未命名的渐变_30-9"
					gradientUnits="objectBoundingBox"
					node-id="18"
					spreadMethod="pad"
					x1="212.82999"
					x2="213.86998"
					y1="931.4199"
					y2="931.56995">
					<stop offset="0" stop-color="#98d6fa" />
					<stop offset="1" stop-color="#47b0f1" />
				</linearGradient>
				<linearGradient
					id="未命名的渐变_30-10"
					gradientUnits="objectBoundingBox"
					node-id="19"
					spreadMethod="pad"
					x1="213.35999"
					x2="214.45999"
					y1="931.6599"
					y2="931.45996">
					<stop offset="0" stop-color="#98d6fa" />
					<stop offset="1" stop-color="#47b0f1" />
				</linearGradient>
				<linearGradient
					id="未命名的渐变_12"
					gradientUnits="objectBoundingBox"
					node-id="20"
					spreadMethod="pad"
					x1="213.3"
					x2="213.61"
					y1="931.84"
					y2="931.49">
					<stop offset="0" stop-color="#98d6fa" />
					<stop offset="1" stop-color="#47b0f1" />
				</linearGradient>
				<linearGradient
					id="未命名的渐变_30-11"
					gradientUnits="objectBoundingBox"
					node-id="23"
					spreadMethod="pad"
					x1="191.46"
					x2="191.52"
					y1="932.49"
					y2="931.54">
					<stop offset="0" stop-color="#98d6fa" />
					<stop offset="1" stop-color="#47b0f1" />
				</linearGradient>
				<linearGradient
					id="未命名的渐变_30-12"
					gradientUnits="objectBoundingBox"
					node-id="24"
					spreadMethod="pad"
					x1="202.57"
					x2="205.29"
					y1="933.34"
					y2="932.39">
					<stop offset="0" stop-color="#98d6fa" />
					<stop offset="1" stop-color="#47b0f1" />
				</linearGradient>
				<linearGradient
					id="未命名的渐变_30-13"
					gradientUnits="objectBoundingBox"
					node-id="25"
					spreadMethod="pad"
					x1="213.02"
					x2="213.4"
					y1="931.26"
					y2="931.83">
					<stop offset="0" stop-color="#98d6fa" />
					<stop offset="1" stop-color="#47b0f1" />
				</linearGradient>
				<linearGradient
					id="未命名的渐变_30-14"
					gradientUnits="objectBoundingBox"
					node-id="26"
					spreadMethod="pad"
					x1="209.44"
					x2="209.04"
					y1="933.56"
					y2="934.33">
					<stop offset="0" stop-color="#98d6fa" />
					<stop offset="1" stop-color="#47b0f1" />
				</linearGradient>
				<linearGradient
					id="未命名的渐变_30-15"
					gradientUnits="objectBoundingBox"
					node-id="27"
					spreadMethod="pad"
					x1="208.91"
					x2="209.47"
					y1="932.9"
					y2="933.41">
					<stop offset="0" stop-color="#98d6fa" />
					<stop offset="1" stop-color="#47b0f1" />
				</linearGradient>
				<linearGradient
					id="未命名的渐变_30-16"
					gradientUnits="objectBoundingBox"
					node-id="28"
					spreadMethod="pad"
					x1="209.46"
					x2="210.31"
					y1="933.63"
					y2="933.93">
					<stop offset="0" stop-color="#98d6fa" />
					<stop offset="1" stop-color="#47b0f1" />
				</linearGradient>
				<linearGradient
					id="未命名的渐变_30-17"
					gradientUnits="objectBoundingBox"
					node-id="29"
					spreadMethod="pad"
					x1="210.5"
					x2="211.35"
					y1="933.26"
					y2="933.52">
					<stop offset="0" stop-color="#98d6fa" />
					<stop offset="1" stop-color="#47b0f1" />
				</linearGradient>
				<linearGradient
					id="未命名的渐变_30-18"
					gradientUnits="objectBoundingBox"
					node-id="30"
					spreadMethod="pad"
					x1="208.38"
					x2="209.23"
					y1="934.55"
					y2="934.8">
					<stop offset="0" stop-color="#98d6fa" />
					<stop offset="1" stop-color="#47b0f1" />
				</linearGradient>
				<linearGradient
					id="未命名的渐变_30-19"
					gradientUnits="objectBoundingBox"
					node-id="31"
					spreadMethod="pad"
					x1="206.13"
					x2="206.41"
					y1="935.52"
					y2="934.66">
					<stop offset="0" stop-color="#98d6fa" />
					<stop offset="1" stop-color="#47b0f1" />
				</linearGradient>
				<linearGradient
					id="未命名的渐变_30-20"
					gradientUnits="objectBoundingBox"
					node-id="32"
					spreadMethod="pad"
					x1="205.12"
					x2="205.17"
					y1="933.62"
					y2="932.72">
					<stop offset="0" stop-color="#98d6fa" />
					<stop offset="1" stop-color="#47b0f1" />
				</linearGradient>
				<linearGradient
					id="未命名的渐变_30-21"
					gradientUnits="objectBoundingBox"
					node-id="33"
					spreadMethod="pad"
					x1="202.23"
					x2="202.25"
					y1="933.48"
					y2="932.58">
					<stop offset="0" stop-color="#98d6fa" />
					<stop offset="1" stop-color="#47b0f1" />
				</linearGradient>
				<linearGradient
					id="未命名的渐变_30-22"
					gradientUnits="objectBoundingBox"
					node-id="34"
					spreadMethod="pad"
					x1="205.85"
					x2="205.91"
					y1="933.71"
					y2="932.81">
					<stop offset="0" stop-color="#98d6fa" />
					<stop offset="1" stop-color="#47b0f1" />
				</linearGradient>
				<linearGradient
					id="未命名的渐变_30-23"
					gradientUnits="objectBoundingBox"
					node-id="35"
					spreadMethod="pad"
					x1="211.33"
					x2="212.46"
					y1="936.68"
					y2="936.68">
					<stop offset="0" stop-color="#98d6fa" />
					<stop offset="1" stop-color="#47b0f1" />
				</linearGradient>
				<linearGradient
					id="未命名的渐变_30-24"
					gradientUnits="objectBoundingBox"
					node-id="36"
					spreadMethod="pad"
					x1="214.58"
					x2="215.22"
					y1="932.13"
					y2="932.2">
					<stop offset="0" stop-color="#98d6fa" />
					<stop offset="1" stop-color="#47b0f1" />
				</linearGradient>
				<linearGradient
					id="未命名的渐变_31"
					gradientUnits="objectBoundingBox"
					node-id="37"
					spreadMethod="pad"
					x1="217.29"
					x2="217.46"
					y1="931.06"
					y2="930.99">
					<stop offset="0.03" stop-color="#afdef9" />
					<stop offset="1" stop-color="#7cc9f9" />
				</linearGradient>
				<linearGradient
					id="未命名的渐变_30-25"
					gradientUnits="objectBoundingBox"
					node-id="40"
					spreadMethod="pad"
					x1="215.14"
					x2="215.68"
					y1="931.63"
					y2="931.87">
					<stop offset="0" stop-color="#98d6fa" />
					<stop offset="1" stop-color="#47b0f1" />
				</linearGradient>
				<linearGradient
					id="未命名的渐变_31-2"
					gradientUnits="objectBoundingBox"
					node-id="41"
					spreadMethod="pad"
					x1="217.49"
					x2="217.63"
					y1="931.52"
					y2="931.46">
					<stop offset="0.03" stop-color="#afdef9" />
					<stop offset="1" stop-color="#7cc9f9" />
				</linearGradient>
				<linearGradient
					id="未命名的渐变_30-26"
					gradientUnits="objectBoundingBox"
					node-id="42"
					spreadMethod="pad"
					x1="216.3"
					x2="216.51"
					y1="931.36"
					y2="931.93">
					<stop offset="0" stop-color="#98d6fa" />
					<stop offset="1" stop-color="#47b0f1" />
				</linearGradient>
				<linearGradient
					id="未命名的渐变_31-3"
					gradientUnits="objectBoundingBox"
					node-id="43"
					spreadMethod="pad"
					x1="217.28"
					x2="217.45"
					y1="931.99"
					y2="931.92">
					<stop offset="0.03" stop-color="#afdef9" />
					<stop offset="1" stop-color="#7cc9f9" />
				</linearGradient>
				<linearGradient
					id="未命名的渐变_32"
					gradientUnits="objectBoundingBox"
					node-id="44"
					spreadMethod="pad"
					x1="214.79"
					x2="215.79"
					y1="932.46"
					y2="932.46">
					<stop offset="0" stop-color="#f5dda7" />
					<stop offset="1" stop-color="#fa9a41" />
				</linearGradient>
				<linearGradient
					id="未命名的渐变_34"
					gradientUnits="objectBoundingBox"
					node-id="47"
					spreadMethod="pad"
					x1="216.37"
					x2="215.5"
					y1="932.2"
					y2="932.2">
					<stop offset="0" stop-color="#1d181c" />
					<stop offset="0.3" stop-color="#2c2422" />
					<stop offset="0.5" stop-color="#42352c" />
					<stop offset="0.7" stop-color="#57352c" />
					<stop offset="1" stop-color="#923629" />
				</linearGradient>
				<linearGradient
					id="未命名的渐变_34-2"
					gradientUnits="objectBoundingBox"
					node-id="53"
					spreadMethod="pad"
					x1="216.01"
					x2="215.14"
					y1="932.56"
					y2="932.56">
					<stop offset="0" stop-color="#1d181c" />
					<stop offset="0.3" stop-color="#2c2422" />
					<stop offset="0.5" stop-color="#42352c" />
					<stop offset="0.7" stop-color="#57352c" />
					<stop offset="1" stop-color="#923629" />
				</linearGradient>
				<linearGradient
					id="未命名的渐变_36"
					gradientUnits="objectBoundingBox"
					node-id="54"
					spreadMethod="pad"
					x1="216.78"
					x2="215.78"
					y1="932.04"
					y2="932.04">
					<stop offset="0" stop-color="#ffb859" />
					<stop offset="1" stop-color="#f97b61" />
				</linearGradient>
				<linearGradient
					id="未命名的渐变_36-2"
					gradientUnits="objectBoundingBox"
					node-id="57"
					spreadMethod="pad"
					x1="216.48"
					x2="215.48"
					y1="932.13"
					y2="932.13">
					<stop offset="0" stop-color="#ffb859" />
					<stop offset="1" stop-color="#f97b61" />
				</linearGradient>
			</defs>
			<g node-id="342">
				<g node-id="343">
					<path
						id="矩形"
						d="M 0.00 0.00 L 1024.00 0.00 L 1024.00 1024.00 L 0.00 1024.00 Z"
						fill="#ffffff"
						fill-opacity="0"
						fill-rule="nonzero"
						group-id="1,2"
						node-id="61"
						stroke="none"
						target-height="1024"
						target-width="1024"
						target-x="0"
						target-y="0" />
					<g node-id="344">
						<g node-id="350">
							<path
								id="路径-58"
								d="M 76.80 581.80 L 72.00 559.40 L 67.80 535.60 L 64.20 506.80 L 62.30 480.30 L 62.10 458.20 L 62.40 447.00 L 63.20 435.80 L 64.40 424.60 L 66.10 413.40 L 68.20 402.50 L 71.00 391.90 L 73.40 384.00 L 76.20 376.30 L 79.30 368.90 L 82.80 361.80 L 86.70 354.80 L 91.00 348.20 L 95.70 341.90 L 100.90 335.90 L 106.50 330.30 L 112.60 325.10 L 119.20 320.30 L 126.40 315.90 L 132.30 312.90 L 138.70 310.10 L 145.40 307.60 L 152.70 305.40 L 160.40 303.50 L 178.10 300.10 L 194.90 297.30 L 210.70 295.10 L 226.70 293.30 L 256.00 290.80 L 277.20 289.70 L 333.40 287.30 L 356.00 285.50 L 366.40 284.30 L 376.70 282.60 L 386.60 280.50 L 396.00 278.00 L 402.90 275.70 L 409.70 273.00 L 416.30 270.00 L 422.80 266.50 L 428.90 262.70 L 435.10 258.40 L 441.10 253.50 L 464.00 232.30 L 478.40 220.40 L 490.80 211.80 L 496.90 208.20 L 502.50 205.40 L 507.70 203.20 L 513.00 201.40 L 518.20 200.10 L 528.20 198.70 L 538.70 198.50 L 546.80 199.00 L 575.60 201.60 L 582.90 201.80 L 590.30 201.50 L 597.80 200.60 L 605.20 199.20 L 612.70 197.40 L 620.20 195.20 L 634.80 189.80 L 652.30 181.60 L 662.10 176.40 L 680.00 165.80 L 708.70 147.10 L 721.40 140.90 L 730.30 137.30 L 743.60 132.90 L 759.10 128.90 L 776.30 126.10 L 785.10 125.30 L 794.30 125.10 L 803.80 125.30 L 818.10 126.90 L 832.70 130.20 L 839.80 132.50 L 847.00 135.30 L 854.30 138.60 L 861.50 142.50 L 868.40 146.90 L 875.30 151.90 L 882.20 157.70 L 889.00 164.20 L 894.10 169.60 L 904.10 182.10 L 913.90 197.00 L 922.50 213.10 L 926.70 222.20 L 930.80 232.10 L 938.20 253.20 L 944.60 276.50 L 947.60 289.50 L 950.40 303.50 L 951.90 326.90 L 954.30 374.00 L 955.10 412.60 L 954.60 442.10 L 953.90 456.60 L 952.70 470.50 L 949.70 493.80 L 948.00 503.30 L 943.80 520.90 L 941.10 529.40 L 938.10 537.40 L 934.90 544.90 L 931.30 551.80 L 928.10 557.30 L 924.60 562.30 L 921.00 567.00 L 917.10 571.30 L 907.60 580.30 L 903.20 585.10 L 899.80 589.70 L 897.10 594.00 L 894.80 598.80 L 893.20 603.30 L 892.20 607.60 L 891.80 611.70 L 891.90 616.00 L 892.40 620.00 L 893.40 624.00 L 894.90 627.80 L 898.90 635.00 L 904.30 641.60 L 908.50 645.70 L 913.10 649.40 L 918.10 652.80 L 923.30 655.80 L 928.70 658.40 L 934.10 660.60 L 939.70 662.40 L 945.10 663.80 L 953.50 665.30 L 956.00 666.20 L 958.00 667.40 L 959.50 668.90 L 960.70 670.60 L 961.60 673.10 L 962.00 676.00 L 961.80 679.40 L 961.00 683.40 L 957.90 691.30 L 955.50 695.90 L 952.30 701.00 L 947.80 707.30 L 942.40 714.10 L 935.80 721.30 L 928.90 728.20 L 921.10 735.20 L 912.30 742.40 L 903.30 749.20 L 893.60 755.80 L 883.10 762.30 L 875.00 766.80 L 858.00 775.10 L 843.70 781.10 L 836.30 783.70 L 826.40 786.80 L 810.80 791.10 L 790.70 796.10 L 769.10 800.90 L 743.80 806.00 L 717.40 810.90 L 687.90 815.70 L 657.50 820.10 L 624.90 824.20 L 602.90 826.60 L 556.90 830.60 L 509.90 833.40 L 485.90 834.20 L 461.90 834.60 L 438.00 834.50 L 414.00 834.00 L 390.10 832.90 L 366.50 831.30 L 343.20 829.10 L 325.70 827.10 L 308.60 824.60 L 291.90 821.90 L 275.50 818.70 L 259.10 815.20 L 243.20 811.20 L 227.90 806.80 L 213.00 802.00 L 204.40 798.00 L 196.20 793.60 L 188.40 788.80 L 181.00 783.70 L 173.80 778.20 L 167.00 772.40 L 160.50 766.30 L 154.40 759.90 L 146.60 751.00 L 139.40 741.80 L 132.80 732.30 L 126.60 722.50 L 120.80 712.60 L 115.60 702.60 L 110.70 692.40 L 102.20 672.40 L 96.80 657.60 L 92.20 643.60 L 88.20 629.90 L 82.20 606.10 L 76.80 581.80 Z"
								fill="#47b0f1"
								fill-opacity="0.05"
								fill-rule="nonzero"
								group-id="1,2,3,9"
								node-id="63"
								stroke="none"
								target-height="709.5"
								target-width="899.9"
								target-x="62.1"
								target-y="125.1" />
						</g>
						<g node-id="351">
							<path
								id="形状结合"
								d="M 158.00 329.00 L 161.10 330.60 L 162.30 331.80 L 163.80 334.70 L 164.00 336.50 L 163.70 339.50 L 163.00 341.30 L 161.80 342.80 L 160.30 344.00 L 158.50 344.70 L 156.50 345.00 L 77.50 345.00 L 75.50 344.70 L 73.70 344.00 L 72.20 342.80 L 71.00 341.30 L 70.30 339.50 L 70.00 337.50 L 70.30 334.50 L 71.00 332.70 L 72.20 331.20 L 73.70 330.00 L 75.50 329.30 L 77.50 329.00 L 109.00 329.00 L 110.90 328.70 L 112.50 328.10 L 113.90 327.00 L 115.00 325.70 L 115.70 324.10 L 116.00 322.00 L 115.70 320.10 L 115.10 318.50 L 114.00 317.10 L 112.70 316.00 L 111.10 315.30 L 109.20 315.00 L 106.00 315.00 L 104.30 314.30 L 101.70 312.20 L 100.20 309.30 L 100.00 306.50 L 100.30 304.50 L 101.00 302.70 L 102.20 301.20 L 103.70 300.00 L 105.50 299.30 L 107.50 299.00 L 186.50 299.00 L 188.50 299.30 L 190.30 300.00 L 191.80 301.20 L 193.00 302.70 L 193.70 304.50 L 194.00 307.50 L 193.70 309.50 L 193.00 311.30 L 191.80 312.80 L 190.30 314.00 L 188.50 314.70 L 186.50 315.00 L 155.00 315.00 L 153.10 315.30 L 151.50 315.90 L 150.10 317.00 L 149.00 318.30 L 148.30 319.90 L 148.00 321.80 L 148.30 323.90 L 148.90 325.50 L 150.00 326.90 L 151.30 328.00 L 152.90 328.70 L 154.80 329.00 L 158.00 329.00 Z"
								fill="url(#未命名的渐变_30)"
								fill-opacity="0.1"
								fill-rule="nonzero"
								group-id="1,2,3,10"
								node-id="64"
								stroke="none"
								target-height="46"
								target-width="124"
								target-x="70"
								target-y="299" />
						</g>
						<g node-id="352">
							<path
								id="形状结合-2"
								d="M 858.00 159.00 L 861.10 160.60 L 862.30 161.80 L 863.80 164.70 L 864.00 166.50 L 863.70 169.50 L 863.00 171.30 L 861.80 172.80 L 860.30 174.00 L 858.50 174.70 L 856.50 175.00 L 777.50 175.00 L 775.50 174.70 L 773.70 174.00 L 772.20 172.80 L 771.00 171.30 L 770.30 169.50 L 770.00 167.50 L 770.30 164.50 L 771.00 162.70 L 772.20 161.20 L 773.70 160.00 L 775.50 159.30 L 777.50 159.00 L 809.00 159.00 L 810.90 158.70 L 812.50 158.10 L 813.90 157.00 L 815.00 155.70 L 815.70 154.10 L 816.00 152.00 L 815.70 150.10 L 815.10 148.50 L 814.00 147.10 L 812.70 146.00 L 811.10 145.30 L 809.20 145.00 L 806.00 145.00 L 804.30 144.30 L 801.70 142.20 L 800.20 139.30 L 800.00 136.50 L 800.30 134.50 L 801.00 132.70 L 802.20 131.20 L 803.70 130.00 L 805.50 129.30 L 807.50 129.00 L 886.50 129.00 L 888.50 129.30 L 890.30 130.00 L 891.80 131.20 L 893.00 132.70 L 893.70 134.50 L 894.00 137.50 L 893.70 139.50 L 893.00 141.30 L 891.80 142.80 L 890.30 144.00 L 888.50 144.70 L 886.50 145.00 L 855.00 145.00 L 853.10 145.30 L 851.50 145.90 L 850.10 147.00 L 849.00 148.30 L 848.30 149.90 L 848.00 151.80 L 848.30 153.90 L 848.90 155.50 L 850.00 156.90 L 851.30 158.00 L 852.90 158.70 L 854.80 159.00 L 858.00 159.00 Z"
								fill="url(#未命名的渐变_30-2)"
								fill-opacity="0.1"
								fill-rule="nonzero"
								group-id="1,2,3,11"
								node-id="65"
								stroke="none"
								target-height="46"
								target-width="124"
								target-x="770"
								target-y="129" />
						</g>
						<path
							id="形状结合-3"
							d="M 514.50 712.00 L 547.40 712.20 L 579.20 712.90 L 610.10 714.00 L 640.90 715.50 L 670.40 717.30 L 698.60 719.50 L 726.80 722.20 L 753.30 725.20 L 778.10 728.40 L 802.90 732.10 L 825.60 735.90 L 846.30 740.00 L 859.80 740.30 L 872.70 741.10 L 885.10 742.20 L 897.50 743.80 L 909.10 745.70 L 920.00 747.90 L 930.80 750.50 L 940.60 753.40 L 949.40 756.50 L 958.20 760.10 L 965.70 763.80 L 972.20 767.60 L 976.90 770.80 L 980.80 774.10 L 984.10 777.30 L 986.80 780.60 L 989.10 784.20 L 990.70 787.80 L 991.70 791.30 L 992.00 795.00 L 991.70 798.50 L 990.80 802.00 L 989.30 805.50 L 987.10 809.00 L 984.60 812.20 L 981.50 815.30 L 977.70 818.50 L 973.30 821.70 L 967.20 825.40 L 960.00 829.00 L 951.80 832.60 L 943.30 835.70 L 934.00 838.50 L 923.80 841.20 L 913.50 843.50 L 902.40 845.40 L 890.60 847.10 L 863.20 854.20 L 847.50 857.80 L 848.00 864.00 L 847.70 868.40 L 846.90 872.70 L 845.60 877.00 L 843.80 881.20 L 841.30 885.60 L 835.40 893.40 L 827.30 901.40 L 822.40 905.30 L 816.20 909.80 L 809.20 914.10 L 801.40 918.50 L 792.60 922.80 L 784.00 926.60 L 764.50 933.90 L 742.80 940.40 L 719.50 946.00 L 706.80 948.40 L 690.00 951.20 L 672.40 953.60 L 653.80 955.50 L 635.20 956.90 L 615.90 957.70 L 596.00 958.00 L 565.00 957.30 L 550.20 956.50 L 521.10 953.80 L 507.10 952.00 L 480.70 947.60 L 467.60 944.90 L 443.60 938.90 L 421.50 931.80 L 411.30 927.90 L 401.90 924.00 L 393.30 919.90 L 384.60 915.20 L 377.00 910.50 L 370.20 905.80 L 364.40 901.10 L 359.80 896.80 L 355.80 892.50 L 352.50 888.30 L 349.80 884.10 L 347.60 879.90 L 319.60 877.50 L 293.20 874.90 L 268.30 872.00 L 243.40 868.70 L 220.40 865.10 L 199.20 861.40 L 178.00 857.20 L 159.00 852.80 L 142.00 848.40 L 129.10 844.60 L 117.70 840.90 L 107.70 837.10 L 98.80 833.50 L 91.40 830.00 L 85.10 826.50 L 79.80 823.20 L 71.50 816.90 L 68.40 813.70 L 66.00 810.60 L 64.20 807.70 L 63.00 804.80 L 62.30 801.90 L 62.00 799.00 L 62.20 796.20 L 63.00 793.30 L 64.10 790.50 L 65.90 787.60 L 68.20 784.60 L 71.20 781.50 L 74.80 778.40 L 84.30 772.00 L 90.40 768.60 L 106.10 761.50 L 115.80 757.80 L 126.80 754.10 L 139.20 750.40 L 155.60 746.00 L 174.00 741.70 L 194.50 737.50 L 215.00 733.80 L 237.30 730.20 L 261.40 726.90 L 285.50 723.90 L 311.20 721.30 L 338.30 718.80 L 393.70 715.10 L 423.30 713.80 L 483.20 712.20 L 514.50 712.00 Z"
							fill="url(#未命名的渐变_3)"
							fill-rule="nonzero"
							group-id="1,2,3"
							node-id="66"
							stroke="none"
							target-height="246"
							target-width="930"
							target-x="62"
							target-y="712" />
						<g node-id="353">
							<path
								id="路径"
								d="M 686.60 226.70 L 685.00 222.90 L 683.00 219.70 L 680.60 216.80 L 677.80 214.20 L 674.80 212.00 L 671.40 210.10 L 664.30 207.50 L 660.50 206.70 L 656.70 206.30 L 649.20 206.60 L 655.10 203.70 L 658.40 202.60 L 661.90 201.80 L 668.80 201.10 L 672.30 201.30 L 675.60 201.80 L 678.70 202.80 L 681.70 204.20 L 684.30 206.10 L 686.60 208.50 L 688.90 206.20 L 691.60 204.30 L 694.50 202.90 L 697.60 202.00 L 700.90 201.40 L 704.40 201.20 L 711.40 201.90 L 714.80 202.70 L 721.20 205.10 L 724.00 206.70 L 716.60 206.40 L 709.00 207.60 L 701.80 210.30 L 698.50 212.20 L 695.40 214.40 L 692.60 216.90 L 690.20 219.80 L 688.20 223.00 L 686.60 226.60 Z"
								fill="url(#未命名的渐变_30-3)"
								fill-rule="nonzero"
								group-id="1,2,3,12"
								node-id="68"
								stroke="none"
								target-height="25.59999"
								target-width="74.79999"
								target-x="649.2"
								target-y="201.1" />
							<path
								id="路径-2"
								d="M 770.00 214.10 L 768.90 211.50 L 765.80 207.20 L 763.90 205.50 L 761.00 203.50 L 757.90 201.90 L 754.50 200.80 L 751.00 200.10 L 747.50 199.90 L 744.10 200.20 L 747.10 198.60 L 750.50 197.40 L 754.10 196.60 L 757.70 196.30 L 760.10 196.50 L 764.50 197.50 L 768.40 199.80 L 770.00 201.50 L 771.60 199.90 L 775.50 197.60 L 779.90 196.60 L 782.40 196.40 L 786.00 196.70 L 789.60 197.40 L 793.00 198.70 L 796.00 200.30 L 792.50 200.00 L 789.10 200.20 L 785.60 200.90 L 782.20 202.00 L 779.00 203.60 L 776.10 205.60 L 773.60 208.00 L 771.60 210.80 L 770.00 214.10 Z"
								fill="url(#未命名的渐变_30-4)"
								fill-rule="nonzero"
								group-id="1,2,3,12"
								node-id="69"
								stroke="none"
								target-height="17.800003"
								target-width="51.900024"
								target-x="744.1"
								target-y="196.3" />
							<path
								id="路径-3"
								d="M 735.20 179.60 L 734.10 177.00 L 731.10 172.80 L 729.10 171.00 L 726.20 169.00 L 723.10 167.50 L 719.70 166.30 L 716.20 165.70 L 712.70 165.50 L 709.20 165.80 L 712.30 164.20 L 715.70 162.90 L 719.20 162.20 L 722.90 161.90 L 725.30 162.00 L 729.70 163.10 L 733.60 165.40 L 735.20 167.10 L 736.90 165.40 L 740.70 163.20 L 745.20 162.10 L 747.60 162.00 L 751.20 162.20 L 754.80 163.00 L 758.20 164.20 L 761.20 165.80 L 757.80 165.60 L 754.30 165.80 L 750.80 166.50 L 747.40 167.60 L 744.30 169.10 L 741.40 171.10 L 738.90 173.50 L 736.80 176.40 L 735.20 179.60 Z"
								fill="url(#未命名的渐变_30-5)"
								fill-rule="nonzero"
								group-id="1,2,3,12"
								node-id="70"
								stroke="none"
								target-height="17.700012"
								target-width="52"
								target-x="709.2"
								target-y="161.9" />
							<path
								id="路径-4"
								d="M 840.70 220.10 L 839.60 217.80 L 838.20 215.80 L 834.50 212.80 L 830.00 210.90 L 827.50 210.40 L 822.70 210.50 L 825.60 209.10 L 828.80 208.20 L 831.10 207.90 L 835.40 208.20 L 837.40 208.90 L 839.20 209.90 L 840.70 211.40 L 842.30 209.90 L 844.00 208.90 L 848.20 207.90 L 852.60 208.20 L 855.90 209.10 L 858.70 210.50 L 853.90 210.50 L 851.50 210.90 L 847.00 212.80 L 843.20 215.80 L 841.80 217.80 L 840.70 220.10 Z"
								fill="url(#未命名的渐变_30-6)"
								fill-rule="nonzero"
								group-id="1,2,3,12"
								node-id="71"
								stroke="none"
								target-height="12.200012"
								target-width="36"
								target-x="822.7"
								target-y="207.9" />
						</g>
					</g>
					<g node-id="345">
						<path
							id="_4"
							d="M 237.40 747.10 L 237.40 673.40 L 261.90 673.40 L 261.90 635.40 L 237.40 635.40 L 237.40 452.70 L 197.00 452.70 L 197.00 635.40 L 140.70 635.40 L 137.30 635.20 L 134.40 634.50 L 131.90 633.50 L 129.70 632.10 L 127.20 629.60 L 125.50 627.00 L 124.50 624.20 L 124.10 621.30 L 125.10 612.20 L 149.40 452.70 L 109.50 452.70 L 82.50 625.90 L 81.90 633.70 L 82.20 640.10 L 83.20 645.60 L 84.80 650.30 L 86.90 654.30 L 90.20 659.00 L 93.70 662.90 L 97.40 666.10 L 101.30 668.70 L 105.40 670.80 L 109.80 672.20 L 114.50 673.10 L 119.50 673.40 L 197.00 673.40 L 197.00 747.10 Z"
							fill="url(#未命名的渐变_30-7)"
							fill-rule="nonzero"
							group-id="1,2,4"
							node-id="73"
							stroke="none"
							target-height="294.39996"
							target-width="180"
							target-x="81.9"
							target-y="452.7" />
						<g node-id="354">
							<g node-id="356">
								<path
									id="椭圆形"
									d="M 442.30 465.30 L 452.30 468.30 L 461.70 471.60 L 470.60 475.30 L 479.10 479.40 L 487.50 484.00 L 495.30 488.80 L 502.40 493.90 L 509.10 499.20 L 515.50 505.00 L 521.10 510.80 L 526.10 516.80 L 530.50 522.90 L 533.70 528.00 L 536.40 533.20 L 538.70 538.30 L 540.50 543.50 L 541.80 548.60 L 542.80 553.90 L 543.20 559.20 L 543.10 564.30 L 542.50 569.50 L 541.40 574.70 L 539.80 579.70 L 537.70 584.50 L 535.20 589.00 L 532.20 593.30 L 528.70 597.50 L 525.00 601.20 L 520.90 604.80 L 516.40 608.10 L 511.40 611.20 L 506.10 614.10 L 499.20 617.20 L 491.90 619.80 L 484.10 622.10 L 475.70 623.90 L 467.30 625.20 L 458.50 626.00 L 449.40 626.30 L 439.80 626.10 L 430.40 625.30 L 420.80 624.10 L 411.00 622.30 L 400.90 619.90 L 391.00 616.90 L 381.60 613.60 L 372.60 609.90 L 364.10 605.80 L 355.80 601.20 L 348.00 596.40 L 340.80 591.30 L 334.20 586.00 L 327.80 580.20 L 322.10 574.30 L 317.10 568.40 L 312.70 562.30 L 309.50 557.10 L 306.80 552.00 L 304.60 546.80 L 302.80 541.70 L 301.40 536.60 L 300.50 531.30 L 300.10 526.00 L 300.20 520.80 L 300.80 515.70 L 301.90 510.50 L 303.50 505.50 L 305.60 500.70 L 308.10 496.20 L 311.10 491.80 L 314.50 487.70 L 318.20 483.90 L 322.40 480.40 L 326.90 477.00 L 331.80 473.90 L 337.20 471.00 L 344.00 468.00 L 351.30 465.30 L 359.20 463.10 L 367.60 461.30 L 376.00 460.00 L 384.70 459.20 L 393.90 458.90 L 403.40 459.10 L 412.80 459.80 L 422.40 461.10 L 432.30 462.90 L 442.30 465.30 Z"
									fill="url(#未命名的渐变_30-8)"
									fill-rule="nonzero"
									group-id="1,2,4,13,15"
									node-id="75"
									stroke="none"
									target-height="167.4"
									target-width="243.1"
									target-x="300.1"
									target-y="458.9" />
							</g>
							<g node-id="357">
								<path
									id="椭圆形备份-7"
									d="M 454.50 419.90 L 466.50 423.40 L 478.10 427.10 L 489.20 431.10 L 499.90 435.40 L 510.50 440.10 L 520.60 445.00 L 530.10 450.10 L 539.10 455.30 L 548.00 461.00 L 556.20 466.70 L 563.70 472.50 L 570.60 478.30 L 577.40 484.60 L 583.30 490.90 L 588.50 497.10 L 593.10 503.20 L 596.50 508.50 L 599.40 513.60 L 601.70 518.70 L 603.60 523.70 L 605.10 528.70 L 606.10 533.80 L 606.60 538.80 L 606.60 543.70 L 606.10 548.60 L 605.10 553.40 L 603.50 558.10 L 601.50 562.60 L 599.10 566.80 L 596.10 570.90 L 592.70 574.90 L 589.00 578.40 L 584.80 581.80 L 580.20 585.00 L 575.20 588.10 L 569.60 590.90 L 562.60 594.00 L 554.90 596.70 L 546.70 599.20 L 537.70 601.30 L 528.80 602.90 L 519.30 604.10 L 509.40 605.00 L 498.80 605.40 L 488.50 605.50 L 477.70 605.10 L 466.50 604.30 L 455.00 603.10 L 443.60 601.40 L 431.90 599.30 L 420.10 596.80 L 407.90 593.80 L 395.90 590.30 L 384.30 586.60 L 373.20 582.60 L 362.50 578.30 L 351.90 573.60 L 341.80 568.70 L 332.30 563.60 L 323.30 558.40 L 314.40 552.70 L 306.20 547.00 L 298.70 541.20 L 291.80 535.40 L 285.00 529.10 L 279.10 522.80 L 273.90 516.60 L 269.30 510.50 L 265.90 505.20 L 263.00 500.00 L 260.70 495.00 L 258.80 490.00 L 257.40 485.00 L 256.30 479.90 L 255.80 474.90 L 255.80 469.90 L 256.30 465.10 L 257.30 460.30 L 258.90 455.60 L 260.90 451.10 L 263.30 446.80 L 266.30 442.70 L 269.70 438.80 L 273.50 435.30 L 277.60 431.90 L 282.20 428.70 L 287.20 425.60 L 292.80 422.70 L 299.80 419.70 L 307.50 417.00 L 315.70 414.50 L 324.70 412.40 L 333.60 410.80 L 343.10 409.60 L 353.00 408.70 L 363.60 408.30 L 373.90 408.20 L 384.70 408.60 L 395.90 409.40 L 407.40 410.60 L 418.80 412.30 L 430.50 414.30 L 442.40 416.90 L 454.50 419.90 Z"
									fill="url(#未命名的渐变_30-9)"
									fill-rule="nonzero"
									group-id="1,2,4,13,16"
									node-id="76"
									stroke="none"
									target-height="197.29999"
									target-width="350.8"
									target-x="255.8"
									target-y="408.2" />
							</g>
							<g node-id="358">
								<path
									id="椭圆形备份-8"
									d="M 456.80 411.20 L 468.40 414.50 L 490.50 422.10 L 511.70 430.90 L 521.80 435.80 L 531.40 440.80 L 540.50 446.10 L 549.60 451.80 L 558.00 457.60 L 565.80 463.60 L 572.90 469.60 L 579.90 476.20 L 586.00 482.60 L 591.30 488.90 L 595.80 495.10 L 599.20 500.50 L 602.00 505.70 L 604.30 510.80 L 606.10 515.70 L 607.50 520.60 L 608.40 525.70 L 608.90 530.60 L 608.90 535.40 L 608.40 540.10 L 607.40 544.70 L 605.90 549.40 L 603.90 553.90 L 601.40 558.20 L 598.50 562.30 L 595.00 566.20 L 591.30 569.70 L 587.10 573.10 L 582.60 576.30 L 577.50 579.40 L 571.90 582.30 L 564.90 585.30 L 557.30 588.00 L 549.00 590.50 L 540.00 592.60 L 531.10 594.20 L 521.70 595.40 L 511.70 596.30 L 501.20 596.70 L 490.80 596.80 L 480.00 596.40 L 468.90 595.60 L 457.30 594.40 L 445.90 592.70 L 434.30 590.70 L 422.40 588.10 L 410.20 585.10 L 398.20 581.60 L 386.60 577.90 L 375.50 573.90 L 364.80 569.60 L 354.20 564.90 L 344.10 560.00 L 334.60 554.90 L 325.70 549.70 L 316.80 544.00 L 308.60 538.30 L 301.00 532.50 L 294.10 526.70 L 287.40 520.40 L 281.40 514.10 L 276.20 507.90 L 271.60 501.80 L 268.20 496.50 L 265.40 491.30 L 263.00 486.30 L 261.10 481.30 L 259.70 476.30 L 258.70 471.20 L 258.20 466.20 L 258.20 461.30 L 258.70 456.40 L 259.70 451.60 L 261.20 446.90 L 263.20 442.40 L 265.70 438.10 L 268.60 434.10 L 272.10 430.10 L 275.80 426.60 L 279.90 423.20 L 284.50 420.00 L 289.60 416.90 L 295.20 414.00 L 302.20 411.00 L 309.80 408.30 L 318.10 405.80 L 327.10 403.70 L 336.00 402.10 L 345.40 400.90 L 355.40 400.00 L 365.90 399.60 L 376.30 399.50 L 387.00 399.90 L 398.20 400.70 L 409.80 401.90 L 421.20 403.60 L 432.80 405.60 L 444.70 408.20 L 456.80 411.20 Z"
									fill="url(#未命名的渐变_30-10)"
									fill-rule="nonzero"
									group-id="1,2,4,13,17"
									node-id="77"
									stroke="none"
									target-height="197.29999"
									target-width="350.7"
									target-x="258.2"
									target-y="399.5" />
							</g>
							<path
								id="椭圆形-2"
								d="M 422.90 537.80 L 436.30 541.10 L 449.00 544.00 L 461.20 546.20 L 479.40 548.50 L 495.70 549.20 L 503.80 548.80 L 511.30 548.00 L 518.20 546.60 L 524.70 544.80 L 529.70 542.90 L 534.40 540.60 L 538.80 537.90 L 542.80 534.80 L 546.50 531.30 L 549.70 527.60 L 552.70 523.30 L 555.30 518.50 L 557.60 513.10 L 559.50 507.00 L 560.90 500.60 L 561.80 494.20 L 562.10 487.90 L 561.80 481.50 L 561.00 475.20 L 559.70 468.90 L 557.90 462.60 L 555.60 456.40 L 552.80 450.30 L 549.60 444.40 L 546.00 438.60 L 541.80 432.80 L 537.40 427.30 L 532.50 422.10 L 527.20 416.90 L 521.40 412.00 L 515.50 407.40 L 509.10 403.00 L 502.40 398.90 L 495.30 395.10 L 488.00 391.60 L 480.50 388.50 L 472.60 385.70 L 464.30 383.20 L 456.00 381.20 L 447.70 379.70 L 439.60 378.60 L 431.60 378.00 L 423.50 377.70 L 415.70 377.90 L 408.00 378.50 L 400.50 379.50 L 393.10 381.00 L 385.90 382.70 L 379.00 384.90 L 372.40 387.40 L 366.00 390.30 L 359.90 393.50 L 354.10 397.10 L 348.70 400.90 L 343.60 405.20 L 338.90 409.70 L 334.70 414.50 L 330.80 419.60 L 327.40 425.00 L 324.40 430.70 L 322.00 436.60 L 320.00 442.80 L 318.60 449.00 L 317.90 454.90 L 317.80 460.30 L 318.20 465.50 L 319.10 470.40 L 320.60 475.30 L 322.50 479.90 L 325.00 484.40 L 327.90 488.80 L 331.30 493.00 L 336.00 497.80 L 341.30 502.40 L 347.40 506.90 L 354.20 511.20 L 368.60 518.80 L 385.50 525.90 L 397.20 530.10 L 409.70 534.00 L 422.90 537.80 Z"
								fill="url(#未命名的渐变_12)"
								fill-rule="nonzero"
								group-id="1,2,4,13"
								node-id="78"
								stroke="none"
								target-height="171.5"
								target-width="244.29999"
								target-x="317.8"
								target-y="377.7" />
							<path
								id="矩形-2"
								d="M 473.70 348.40 L 474.90 349.00 L 476.70 350.80 L 477.30 353.20 L 477.20 354.60 L 462.70 408.60 L 462.20 409.90 L 460.40 411.70 L 457.90 412.40 L 456.60 412.20 L 454.30 410.90 L 453.00 408.70 L 453.00 406.10 L 467.50 352.00 L 468.00 350.80 L 469.80 348.90 L 472.30 348.30 L 473.70 348.40 Z"
								fill="url(#未命名的渐变_30-11)"
								fill-rule="nonzero"
								group-id="1,2,4,13"
								node-id="79"
								stroke="none"
								target-height="64.100006"
								target-width="24.299988"
								target-x="453"
								target-y="348.3" />
							<path
								id="椭圆形-3"
								d="M 484.20 348.80 L 483.50 352.60 L 482.70 354.30 L 480.30 357.20 L 477.10 359.10 L 473.20 359.80 L 469.40 359.10 L 466.10 357.20 L 463.70 354.30 L 462.40 350.80 L 462.40 346.80 L 462.90 344.90 L 464.80 341.70 L 467.70 339.30 L 469.40 338.50 L 473.20 337.80 L 477.10 338.50 L 478.80 339.30 L 481.60 341.70 L 483.50 344.90 L 484.20 348.80 Z"
								fill="url(#未命名的渐变_30-12)"
								fill-rule="nonzero"
								group-id="1,2,4,13"
								node-id="80"
								stroke="none"
								target-height="22"
								target-width="21.800018"
								target-x="462.4"
								target-y="337.8" />
						</g>
						<path
							id="_3"
							d="M 597.90 684.30 L 636.50 684.30 L 638.00 688.10 L 639.80 691.20 L 642.00 693.60 L 644.40 695.40 L 647.20 696.80 L 650.50 697.60 L 654.20 697.90 L 717.80 697.90 L 723.00 697.60 L 727.10 696.80 L 730.30 695.60 L 732.70 694.00 L 734.60 692.00 L 736.00 689.70 L 736.80 686.90 L 737.10 683.50 L 737.10 618.80 L 736.80 614.50 L 735.90 611.10 L 734.50 608.30 L 732.60 606.00 L 730.20 604.20 L 727.10 602.80 L 723.30 601.90 L 718.60 601.60 L 636.30 601.60 L 636.30 563.20 L 716.40 563.20 L 722.00 562.90 L 726.30 562.00 L 729.70 560.70 L 732.30 559.10 L 734.30 557.10 L 735.70 554.80 L 736.60 551.90 L 736.90 548.60 L 736.90 496.50 L 736.60 491.70 L 735.60 487.80 L 734.10 484.70 L 732.10 482.10 L 729.60 480.20 L 726.50 478.70 L 722.60 477.70 L 717.80 477.40 L 655.40 477.40 L 651.60 477.70 L 648.40 478.60 L 645.60 480.20 L 643.10 482.30 L 641.00 485.10 L 639.20 488.80 L 637.80 493.40 L 598.80 493.40 L 598.50 485.60 L 598.80 480.30 L 599.70 475.30 L 601.30 470.40 L 603.50 465.60 L 606.50 460.90 L 610.10 456.20 L 614.60 451.60 L 618.60 448.30 L 622.90 445.60 L 627.60 443.30 L 632.60 441.40 L 638.10 440.10 L 644.00 439.20 L 650.50 439.00 L 723.60 439.00 L 731.40 439.30 L 738.40 440.20 L 744.70 441.70 L 750.30 443.70 L 755.40 446.20 L 759.90 449.10 L 764.00 452.60 L 767.60 456.50 L 770.60 460.70 L 773.10 465.30 L 775.10 470.10 L 776.50 475.40 L 777.40 481.10 L 777.70 487.30 L 777.70 554.00 L 777.40 559.20 L 776.40 564.60 L 774.70 570.10 L 772.30 575.90 L 769.10 581.90 L 772.50 588.30 L 775.00 594.00 L 776.60 599.20 L 777.60 603.80 L 777.90 608.00 L 777.90 688.20 L 777.60 694.10 L 776.70 699.50 L 775.30 704.60 L 773.40 709.30 L 771.00 713.60 L 768.10 717.70 L 764.60 721.50 L 759.90 725.70 L 755.20 729.00 L 750.50 731.70 L 745.90 733.80 L 741.10 735.20 L 736.30 736.10 L 731.50 736.30 L 653.30 736.30 L 645.50 736.00 L 638.50 735.00 L 632.10 733.40 L 626.40 731.20 L 621.20 728.50 L 616.60 725.20 L 612.30 721.30 L 608.50 716.90 L 605.10 711.80 L 602.90 707.70 L 601.10 703.00 L 599.60 697.60 L 598.50 691.40 L 597.90 684.30 Z"
							fill="url(#未命名的渐变_30-13)"
							fill-rule="nonzero"
							group-id="1,2,4"
							node-id="81"
							stroke="none"
							target-height="297.3"
							target-width="180"
							target-x="597.9"
							target-y="439" />
					</g>
					<g node-id="346">
						<path
							id="路径-38"
							d="M 77.40 807.50 L 78.00 800.20 L 77.80 794.20 L 76.90 789.00 L 75.50 784.80 L 73.50 781.20 L 71.10 778.30 L 68.10 775.80 L 64.50 773.90 L 60.20 772.50 L 55.00 771.60 L 60.00 771.40 L 64.50 771.60 L 68.70 772.30 L 72.60 773.30 L 76.10 774.70 L 79.60 776.50 L 82.70 778.70 L 85.50 781.20 L 88.00 784.00 L 90.20 787.30 L 91.90 790.70 L 93.30 794.30 L 94.40 798.40 L 95.10 802.70 L 95.40 807.50 L 77.40 807.50 Z"
							fill="url(#未命名的渐变_30-14)"
							fill-rule="nonzero"
							group-id="1,2,5"
							node-id="83"
							stroke="none"
							target-height="36.099976"
							target-width="40.4"
							target-x="55"
							target-y="771.4" />
						<path
							id="路径-39"
							d="M 89.10 807.70 L 90.30 800.50 L 90.70 794.10 L 90.40 788.20 L 89.60 782.80 L 88.10 777.80 L 86.10 773.20 L 83.40 769.00 L 80.20 765.10 L 76.30 761.40 L 71.70 758.00 L 76.90 759.70 L 86.20 763.90 L 90.40 766.40 L 94.40 769.40 L 98.00 772.80 L 102.80 778.90 L 104.90 782.60 L 108.50 791.00 L 111.30 801.40 L 112.40 807.70 L 104.60 808.00 L 89.10 807.70 Z"
							fill="url(#未命名的渐变_30-15)"
							fill-rule="nonzero"
							group-id="1,2,5"
							node-id="84"
							stroke="none"
							target-height="50"
							target-width="40.700005"
							target-x="71.7"
							target-y="758" />
						<path
							id="路径-40"
							d="M 116.10 808.00 L 115.70 801.10 L 116.10 795.30 L 117.10 790.30 L 118.60 786.00 L 120.60 782.30 L 123.10 779.20 L 126.10 776.60 L 129.70 774.40 L 134.00 772.60 L 139.00 771.40 L 129.20 771.40 L 125.90 771.70 L 119.20 773.10 L 116.00 774.40 L 112.80 776.20 L 109.50 778.50 L 106.50 781.30 L 103.50 784.90 L 100.30 789.50 L 97.60 794.40 L 94.90 800.50 L 92.10 808.00 L 107.30 807.70 L 116.10 808.00 Z"
							fill="url(#未命名的渐变_30-16)"
							fill-rule="nonzero"
							group-id="1,2,5"
							node-id="85"
							stroke="none"
							target-height="36.599976"
							target-width="46.9"
							target-x="92.1"
							target-y="771.4" />
						<path
							id="椭圆形-4"
							d="M 66.40 822.00 L 81.70 821.50 L 87.50 820.20 L 90.00 819.10 L 92.10 817.60 L 93.70 815.70 L 94.70 814.10 L 95.80 809.60 L 96.00 806.60 L 95.70 802.70 L 94.90 799.00 L 93.60 795.50 L 91.80 792.20 L 89.70 789.10 L 87.10 786.40 L 84.10 784.00 L 80.90 781.90 L 77.40 780.20 L 73.60 779.00 L 69.70 778.30 L 65.50 778.00 L 61.30 778.30 L 57.40 779.00 L 53.60 780.20 L 50.10 781.90 L 46.90 784.00 L 43.90 786.40 L 41.30 789.10 L 39.20 792.20 L 37.40 795.50 L 36.10 799.00 L 35.30 802.70 L 35.00 806.60 L 35.20 809.60 L 36.50 814.00 L 37.50 815.70 L 39.40 817.60 L 41.60 819.10 L 44.40 820.20 L 50.60 821.50 L 66.40 822.00 Z"
							fill="url(#未命名的渐变_30-17)"
							fill-rule="nonzero"
							group-id="1,2,5"
							node-id="86"
							stroke="none"
							target-height="44"
							target-width="61"
							target-x="35"
							target-y="778" />
						<path
							id="椭圆形备份-6"
							d="M 99.60 822.00 L 110.10 821.60 L 114.30 820.20 L 116.60 818.10 L 117.30 816.70 L 118.00 812.60 L 117.70 809.40 L 116.80 806.40 L 115.40 803.70 L 113.50 801.30 L 111.30 799.20 L 108.60 797.40 L 105.70 796.10 L 102.50 795.30 L 99.00 795.00 L 95.50 795.30 L 92.30 796.10 L 89.40 797.40 L 86.70 799.20 L 84.50 801.20 L 82.60 803.70 L 81.20 806.40 L 80.30 809.40 L 80.00 812.60 L 80.20 814.90 L 80.80 816.70 L 81.60 818.10 L 84.10 820.20 L 88.70 821.60 L 99.60 822.00 Z"
							fill="url(#未命名的渐变_30-18)"
							fill-rule="nonzero"
							group-id="1,2,5"
							node-id="87"
							stroke="none"
							target-height="27"
							target-width="38"
							target-x="80"
							target-y="795" />
					</g>
					<g node-id="347">
						<path
							id="路径-43"
							d="M 212.90 777.60 L 211.80 774.00 L 210.20 770.80 L 208.10 768.00 L 205.40 765.60 L 202.20 763.40 L 190.60 758.50 L 187.70 756.30 L 187.20 755.40 L 187.30 754.50 L 187.90 753.60 L 189.60 752.50 L 195.30 752.10 L 197.70 752.30 L 200.10 753.10 L 202.70 754.60 L 204.30 756.00 L 207.90 760.40 L 211.20 766.60 L 212.90 771.10 L 213.30 773.30 L 212.90 777.60 Z"
							fill="url(#未命名的渐变_30-19)"
							fill-rule="nonzero"
							group-id="1,2,6"
							node-id="89"
							stroke="none"
							target-height="25.5"
							target-width="26.100006"
							target-x="187.2"
							target-y="752.1" />
						<path
							id="路径-44"
							d="M 213.30 778.80 L 209.90 767.30 L 206.50 757.70 L 203.20 750.00 L 199.90 743.70 L 195.30 736.80 L 194.30 734.70 L 193.70 732.60 L 193.40 728.50 L 194.50 725.10 L 195.40 723.90 L 196.70 723.00 L 199.70 723.00 L 201.30 723.40 L 204.40 725.40 L 207.20 728.90 L 209.10 732.50 L 211.20 738.00 L 213.00 744.40 L 215.00 753.30 L 216.10 762.50 L 216.10 769.50 L 215.70 773.10 L 215.00 776.30 L 214.40 777.70 L 213.30 778.80 Z"
							fill="url(#未命名的渐变_30-20)"
							fill-rule="nonzero"
							group-id="1,2,6"
							node-id="90"
							stroke="none"
							target-height="55.799988"
							target-width="22.700012"
							target-x="193.4"
							target-y="723" />
						<path
							id="路径-45"
							d="M 214.50 774.70 L 215.40 770.00 L 215.90 764.60 L 215.80 758.30 L 215.10 751.10 L 213.60 742.70 L 208.60 727.20 L 207.90 723.60 L 207.80 720.60 L 208.10 718.70 L 208.70 717.10 L 209.70 715.90 L 210.90 714.90 L 212.80 714.30 L 215.30 714.00 L 217.30 714.50 L 219.40 715.70 L 220.60 716.80 L 222.90 720.90 L 223.80 723.40 L 225.00 731.20 L 225.10 741.30 L 224.70 748.20 L 223.80 753.70 L 220.50 766.60 L 217.90 774.70 L 215.60 775.10 L 214.50 774.70 Z"
							fill="url(#未命名的渐变_30-21)"
							fill-rule="nonzero"
							group-id="1,2,6"
							node-id="91"
							stroke="none"
							target-height="61.099976"
							target-width="17.300003"
							target-x="207.8"
							target-y="714" />
						<path
							id="路径-46"
							d="M 217.00 777.90 L 216.90 768.40 L 217.40 760.10 L 218.50 752.80 L 220.00 746.40 L 221.90 740.90 L 224.10 736.00 L 226.70 731.80 L 230.90 727.00 L 232.60 725.90 L 234.60 725.20 L 236.70 725.00 L 238.00 725.20 L 240.20 726.70 L 241.00 727.90 L 241.50 729.60 L 241.80 732.20 L 240.00 738.40 L 238.40 742.50 L 235.50 748.10 L 230.20 756.10 L 226.30 761.10 L 222.70 766.90 L 220.30 772.50 L 219.20 777.00 L 218.50 777.60 L 217.00 777.90 Z"
							fill="url(#未命名的渐变_30-22)"
							fill-rule="nonzero"
							group-id="1,2,6"
							node-id="92"
							stroke="none"
							target-height="52.900024"
							target-width="24.90001"
							target-x="216.9"
							target-y="725" />
						<path
							id="路径-47"
							d="M 169.00 780.90 L 178.70 778.80 L 182.90 777.40 L 187.20 774.40 L 189.70 773.10 L 192.80 771.90 L 196.10 771.20 L 199.60 771.00 L 201.90 771.40 L 204.00 772.20 L 206.10 773.60 L 207.20 772.50 L 208.90 771.70 L 210.70 771.30 L 212.80 771.30 L 215.30 772.40 L 216.50 773.60 L 217.30 771.40 L 218.70 769.40 L 222.70 766.30 L 227.10 764.40 L 229.10 764.00 L 232.60 764.00 L 238.10 764.70 L 241.10 766.00 L 243.00 767.20 L 244.70 768.90 L 246.40 771.10 L 247.50 773.50 L 248.50 776.80 L 249.00 781.00 L 169.00 780.90 Z"
							fill="url(#未命名的渐变_30-23)"
							fill-rule="nonzero"
							group-id="1,2,6"
							node-id="93"
							stroke="none"
							target-height="17"
							target-width="80"
							target-x="169"
							target-y="764" />
					</g>
					<g node-id="348">
						<path
							id="路径-61"
							d="M 963.20 668.20 L 972.20 664.60 L 979.60 662.30 L 985.70 661.20 L 990.70 660.90 L 994.80 661.30 L 998.10 662.40 L 1000.90 664.00 L 1003.20 666.20 L 1005.00 669.00 L 1006.50 672.60 L 1007.40 677.10 L 1007.70 682.80 L 1007.20 689.90 L 1005.70 695.50 L 1003.80 699.80 L 1001.80 703.00 L 999.50 705.20 L 997.00 706.80 L 990.10 715.60 L 985.00 723.30 L 981.20 729.80 L 978.80 735.40 L 977.30 740.30 L 976.00 748.70 L 974.70 752.90 L 971.90 758.20 L 967.90 762.70 L 965.40 764.50 L 962.50 766.10 L 959.30 767.20 L 955.70 767.90 L 951.50 768.10 L 947.30 767.80 L 942.50 767.00 L 932.10 764.10 L 927.70 763.70 L 923.70 764.00 L 920.00 764.90 L 916.50 766.60 L 913.20 768.90 L 910.10 772.10 L 907.00 776.20 L 904.20 781.50 L 901.50 788.00 L 899.10 796.10 L 894.40 801.70 L 889.20 806.90 L 883.60 811.50 L 877.40 815.60 L 870.70 819.30 L 863.40 822.50 L 855.40 825.20 L 846.70 827.30 L 837.20 829.00 L 826.90 830.00 L 815.60 830.40 L 803.40 830.10 L 790.00 829.00 L 780.00 827.60 L 772.10 825.80 L 766.10 823.80 L 761.50 821.50 L 758.20 819.10 L 755.80 816.60 L 754.30 814.00 L 753.50 811.10 L 753.30 807.90 L 754.00 804.40 L 755.50 800.20 L 758.20 795.50 L 762.40 789.90 L 768.20 783.40 L 776.10 775.90 L 786.60 767.10 L 799.90 757.00 L 812.60 752.20 L 822.60 748.90 L 839.10 744.60 L 841.40 743.20 L 843.40 741.30 L 845.20 738.70 L 846.70 735.30 L 847.80 730.80 L 848.60 725.10 L 849.10 714.20 L 850.10 710.90 L 851.60 707.80 L 853.90 704.90 L 856.90 702.10 L 860.70 699.50 L 865.60 697.00 L 877.90 692.40 L 882.60 689.90 L 886.10 687.30 L 888.60 684.50 L 890.30 681.70 L 891.20 678.60 L 891.50 675.30 L 891.00 671.60 L 894.40 667.10 L 897.80 663.70 L 901.10 661.30 L 904.40 659.70 L 907.80 658.70 L 911.20 658.50 L 914.80 658.90 L 918.70 660.10 L 922.80 662.10 L 932.60 668.70 L 937.30 671.30 L 941.70 672.90 L 945.80 673.80 L 949.50 674.00 L 953.10 673.60 L 956.60 672.50 L 959.90 670.70 L 963.20 668.20 Z"
							fill="url(#未命名的渐变_30-24)"
							fill-rule="nonzero"
							group-id="1,2,7"
							node-id="95"
							stroke="none"
							target-height="171.90002"
							target-width="254.40002"
							target-x="753.3"
							target-y="658.5" />
						<path
							id="形状结合-4"
							d="M 964.70 683.40 L 916.50 715.60 L 918.60 705.60 L 920.70 697.20 L 923.00 690.10 L 926.30 681.60 L 921.90 691.20 L 918.50 700.00 L 915.70 709.20 L 914.80 713.50 L 914.50 716.90 L 874.20 743.70 L 873.80 729.80 L 873.90 719.60 L 874.60 712.30 L 875.70 707.40 L 875.00 708.80 L 873.40 715.40 L 871.70 729.30 L 871.30 738.50 L 871.70 745.40 L 834.70 770.10 L 835.00 769.70 L 834.30 761.60 L 834.10 754.60 L 834.80 748.20 L 833.70 751.80 L 832.90 758.30 L 832.40 765.50 L 832.50 771.60 L 802.00 792.00 L 805.90 795.90 L 837.40 773.50 L 843.40 776.30 L 851.50 778.30 L 855.90 778.80 L 863.30 778.80 L 856.70 777.90 L 851.20 776.70 L 846.80 775.30 L 843.20 773.50 L 840.40 771.60 L 837.90 773.20 L 926.70 710.30 L 926.10 711.00 L 934.20 711.80 L 941.70 711.90 L 948.80 711.40 L 955.40 710.30 L 961.60 708.60 L 960.40 708.30 L 951.60 709.90 L 947.00 710.40 L 941.30 710.60 L 933.10 710.00 L 928.50 709.10 Z M 923.40 760.20 L 919.40 760.00 L 914.90 759.20 L 909.90 757.70 L 904.20 755.40 L 897.70 752.10 L 890.40 747.70 L 882.20 741.90 L 880.00 744.20 L 885.50 748.20 L 890.90 751.50 L 896.10 754.30 L 901.50 756.60 L 906.50 758.40 L 911.10 759.50 L 915.90 760.30 L 919.90 760.50 L 923.40 760.20 Z"
							fill="url(#未命名的渐变_31)"
							fill-rule="nonzero"
							group-id="1,2,7"
							node-id="96"
							stroke="none"
							target-height="114.30005"
							target-width="162.70001"
							target-x="802"
							target-y="681.6" />
						<path
							id="路径-65"
							d="M 927.80 599.10 L 936.20 593.80 L 943.20 590.10 L 949.10 587.70 L 953.90 586.40 L 957.80 586.00 L 961.10 586.30 L 963.90 587.20 L 966.30 588.60 L 968.30 590.70 L 970.00 593.40 L 971.40 597.10 L 972.40 601.80 L 972.80 607.90 L 972.60 615.60 L 967.30 636.80 L 965.40 646.20 L 964.20 654.30 L 963.90 659.60 L 963.90 664.60 L 964.70 672.30 L 964.40 679.40 L 963.00 687.00 L 960.00 695.00 L 957.90 699.00 L 955.20 703.00 L 952.10 706.80 L 948.50 710.40 L 944.20 714.00 L 936.90 718.50 L 932.60 720.50 L 920.60 725.30 L 915.20 728.20 L 911.30 731.10 L 908.50 734.00 L 906.70 736.90 L 905.70 739.80 L 905.40 743.00 L 905.90 746.30 L 907.30 750.00 L 909.70 754.20 L 910.20 758.10 L 910.00 761.90 L 909.10 765.40 L 907.40 768.90 L 904.90 772.40 L 901.50 775.90 L 896.90 779.40 L 890.90 782.90 L 883.30 786.40 L 873.90 789.80 L 862.40 793.20 L 848.30 796.50 L 831.50 799.60 L 819.20 801.30 L 809.20 802.40 L 794.70 802.80 L 789.50 802.50 L 781.80 801.20 L 778.20 800.10 L 775.40 798.70 L 773.30 797.20 L 771.80 795.60 L 770.60 793.70 L 769.70 791.60 L 769.30 789.30 L 769.30 786.70 L 769.80 783.30 L 770.80 779.40 L 772.40 775.20 L 775.50 768.80 L 779.40 761.80 L 788.40 747.40 L 793.90 741.50 L 797.90 736.50 L 800.20 733.10 L 803.40 727.10 L 804.90 722.70 L 805.80 718.50 L 806.30 714.20 L 806.20 706.60 L 804.60 695.70 L 804.40 691.90 L 804.80 688.10 L 806.30 683.20 L 807.70 680.80 L 809.40 678.70 L 811.80 676.60 L 815.00 674.40 L 818.30 672.70 L 822.70 671.00 L 832.00 668.20 L 835.50 666.50 L 838.60 664.20 L 841.40 661.30 L 843.90 657.70 L 846.20 653.40 L 848.10 648.10 L 849.60 641.80 L 850.70 634.30 L 851.20 625.50 L 852.10 622.20 L 853.50 619.40 L 855.50 617.20 L 858.00 615.30 L 861.10 613.90 L 865.10 612.90 L 870.10 612.40 L 876.30 612.60 L 883.90 613.60 L 893.20 615.70 L 897.20 616.10 L 901.20 615.90 L 905.30 615.10 L 909.40 613.60 L 913.70 611.40 L 918.20 608.30 L 922.90 604.30 L 927.80 599.10 Z"
							fill="url(#未命名的渐变_30-25)"
							fill-rule="nonzero"
							group-id="1,2,7"
							node-id="97"
							stroke="none"
							target-height="216.79999"
							target-width="203.5"
							target-x="769.3"
							target-y="586" />
						<path
							id="形状结合-5"
							d="M 942.40 616.60 L 907.00 661.60 L 905.30 656.90 L 904.10 652.20 L 903.40 647.50 L 903.30 642.70 L 903.70 637.90 L 904.70 632.80 L 901.90 641.80 L 901.30 645.40 L 901.20 649.20 L 901.70 653.60 L 902.40 656.60 L 905.30 663.80 L 875.30 701.90 L 872.50 697.50 L 870.30 692.80 L 868.50 687.60 L 867.20 681.80 L 866.40 675.40 L 866.10 668.20 L 865.40 674.00 L 865.50 678.20 L 865.90 683.40 L 866.80 688.70 L 868.30 694.20 L 869.60 697.90 L 873.20 704.50 L 846.60 738.40 L 844.30 734.30 L 841.90 728.00 L 841.10 724.30 L 840.70 720.20 L 840.30 726.50 L 840.50 729.80 L 842.00 735.90 L 844.60 740.90 L 805.40 790.80 L 811.60 790.80 L 849.60 740.30 L 858.30 743.40 L 867.20 745.10 L 871.50 745.20 L 875.40 744.90 L 878.50 744.30 L 883.40 742.60 L 878.50 743.40 L 873.60 743.60 L 868.40 743.20 L 863.10 742.10 L 857.50 740.20 L 851.70 737.60 L 880.60 699.10 L 880.10 700.00 L 887.30 702.30 L 894.40 704.00 L 901.50 705.10 L 908.00 705.70 L 914.30 705.80 L 919.70 705.30 L 923.10 704.60 L 928.40 702.80 L 924.60 703.90 L 920.10 704.50 L 914.70 704.60 L 908.30 704.00 L 900.80 702.70 L 891.90 700.50 L 881.40 697.20 L 881.90 697.40 L 914.00 654.50 L 913.80 655.00 L 919.90 655.00 L 925.50 654.40 L 930.70 653.10 L 935.40 651.10 L 939.80 648.60 L 943.90 645.40 L 947.70 641.50 L 947.20 641.50 L 945.90 642.20 L 939.40 646.70 L 935.90 648.60 L 932.00 650.20 L 923.70 652.10 L 915.50 652.50 Z"
							fill="url(#未命名的渐变_31-2)"
							fill-rule="nonzero"
							group-id="1,2,7"
							node-id="98"
							stroke="none"
							target-height="174.20001"
							target-width="142.29999"
							target-x="805.4"
							target-y="616.6" />
						<path
							id="路径-96"
							d="M 818.20 600.60 L 814.30 595.80 L 810.80 592.50 L 807.70 590.40 L 804.80 589.20 L 802.10 588.80 L 799.50 589.20 L 796.80 590.30 L 794.10 592.20 L 791.20 595.30 L 788.10 599.70 L 784.80 605.90 L 783.70 611.20 L 781.70 627.10 L 779.90 631.80 L 778.60 633.90 L 776.70 636.00 L 774.30 638.00 L 771.50 639.80 L 767.80 641.50 L 758.20 645.30 L 754.60 647.50 L 752.00 649.90 L 750.10 652.50 L 749.00 655.40 L 748.50 658.60 L 748.80 662.30 L 749.90 666.60 L 752.10 671.60 L 755.60 677.50 L 757.10 681.70 L 757.60 685.30 L 757.40 688.30 L 756.50 690.90 L 755.00 693.10 L 752.70 695.10 L 749.40 696.90 L 742.10 699.50 L 739.90 700.90 L 738.40 702.60 L 737.50 704.80 L 737.10 707.40 L 737.30 710.70 L 738.40 714.80 L 740.50 720.10 L 744.00 726.60 L 749.30 734.60 L 751.40 740.30 L 752.60 744.90 L 753.10 748.70 L 752.80 751.70 L 752.10 754.20 L 750.90 756.20 L 746.90 759.80 L 742.50 765.00 L 739.30 770.80 L 738.00 774.00 L 737.10 777.70 L 736.50 782.00 L 736.40 786.30 L 736.80 791.20 L 737.80 796.70 L 739.30 802.20 L 741.70 808.30 L 745.00 815.20 L 747.10 818.80 L 751.60 824.30 L 754.00 826.30 L 757.60 828.60 L 761.20 830.20 L 765.00 831.20 L 768.90 831.70 L 772.80 831.70 L 776.90 831.20 L 780.80 830.40 L 788.50 827.60 L 794.00 824.70 L 798.90 821.40 L 803.40 817.80 L 807.10 814.10 L 809.20 811.50 L 811.80 806.80 L 812.80 803.60 L 813.40 800.20 L 813.60 796.60 L 813.40 791.30 L 810.20 770.10 L 810.00 765.60 L 810.20 762.70 L 810.80 760.10 L 811.80 757.80 L 814.80 754.50 L 817.20 752.80 L 830.10 745.30 L 837.60 740.00 L 842.50 734.80 L 844.40 731.80 L 845.80 728.30 L 846.80 724.50 L 847.00 721.50 L 846.40 714.50 L 845.40 710.30 L 837.70 700.00 L 834.40 694.90 L 832.70 690.30 L 832.30 687.90 L 832.30 685.10 L 833.60 678.60 L 835.00 674.80 L 840.00 664.80 L 846.50 653.60 L 846.90 651.90 L 846.80 650.30 L 846.10 648.30 L 843.00 642.90 L 837.20 634.00 L 833.90 630.20 L 830.30 625.20 L 826.60 618.70 L 822.50 610.60 L 818.20 600.60 Z"
							fill="url(#未命名的渐变_30-26)"
							fill-rule="nonzero"
							group-id="1,2,7"
							node-id="99"
							stroke="none"
							target-height="242.90002"
							target-width="110.599976"
							target-x="736.4"
							target-y="588.8" />
						<path
							id="形状结合-6"
							d="M 801.30 630.40 L 789.90 687.30 L 784.40 678.80 L 779.90 671.20 L 776.50 664.60 L 772.80 656.30 L 776.50 666.20 L 780.30 674.80 L 784.80 683.30 L 787.20 686.90 L 789.40 689.60 L 780.00 737.10 L 769.80 727.50 L 762.70 720.20 L 758.10 714.60 L 755.40 710.30 L 755.90 711.80 L 759.40 717.60 L 768.00 728.70 L 774.20 735.40 L 779.40 740.00 L 770.70 783.70 L 770.70 783.10 L 764.50 778.00 L 759.40 773.10 L 755.40 768.10 L 757.10 771.50 L 761.10 776.60 L 765.90 782.00 L 770.20 786.30 L 763.00 822.20 L 768.50 822.20 L 775.00 784.20 L 781.20 781.80 L 788.30 777.50 L 791.80 774.80 L 797.00 769.60 L 791.70 773.60 L 787.00 776.60 L 782.90 778.70 L 779.10 780.00 L 775.70 780.70 L 775.10 783.60 L 793.40 676.30 L 793.50 677.20 L 799.80 672.10 L 805.20 666.80 L 809.80 661.50 L 813.70 656.00 L 816.90 650.50 L 815.90 651.10 L 810.70 658.40 L 807.80 662.00 L 803.90 666.20 L 797.70 671.50 L 793.80 674.20 Z M 826.40 713.90 L 823.40 716.60 L 819.70 719.20 L 815.10 721.70 L 809.40 724.10 L 802.50 726.30 L 794.20 728.40 L 784.40 730.10 L 784.40 733.30 L 791.10 732.20 L 797.30 730.80 L 802.90 729.00 L 808.40 726.90 L 813.10 724.60 L 817.20 722.10 L 821.10 719.30 L 824.10 716.60 L 826.40 713.90 Z"
							fill="url(#未命名的渐变_31-3)"
							fill-rule="nonzero"
							group-id="1,2,7"
							node-id="100"
							stroke="none"
							target-height="191.79999"
							target-width="71"
							target-x="755.4"
							target-y="630.4" />
					</g>
					<g node-id="349">
						<g node-id="355">
							<path
								id="路径-5"
								d="M 419.40 841.50 L 425.60 843.70 L 429.30 845.40 L 432.70 847.80 L 433.60 849.70 L 432.90 851.60 L 431.70 852.90 L 422.10 858.90 L 419.90 860.70 L 418.60 862.30 L 417.60 864.10 L 417.20 865.80 L 417.90 869.10 L 420.10 872.30 L 422.30 874.70 L 426.70 878.40 L 435.20 882.30 L 440.40 884.20 L 455.00 888.30 L 472.20 891.80 L 492.80 894.60 L 504.00 895.60 L 516.10 896.20 L 528.20 896.40 L 540.80 896.10 L 554.10 895.30 L 574.00 893.00 L 594.80 889.20 L 604.70 886.80 L 613.20 884.40 L 626.50 879.60 L 632.80 876.80 L 638.00 874.00 L 642.20 871.20 L 645.60 868.60 L 648.80 865.50 L 651.30 862.60 L 653.10 859.80 L 654.30 857.00 L 655.10 854.10 L 655.50 851.20 L 655.40 848.40 L 654.90 845.70 L 653.70 842.20 L 651.90 838.80 L 649.60 835.50 L 646.90 832.50 L 640.70 827.20 L 633.90 823.20 L 619.70 817.00 L 608.40 812.90 L 596.10 809.10 L 581.70 805.30 L 571.80 803.10 L 549.80 799.10 L 526.30 796.40 L 513.70 795.60 L 501.10 795.20 L 488.10 795.40 L 474.80 796.00 L 462.80 797.00 L 443.70 799.30 L 427.70 802.30 L 421.80 803.80 L 411.60 807.30 L 408.30 808.90 L 405.10 810.80 L 403.10 812.50 L 400.40 816.60 L 398.40 821.60 L 398.00 824.00 L 398.20 826.40 L 398.90 828.70 L 400.10 830.80 L 402.20 833.10 L 405.20 835.40 L 408.60 837.30 L 413.20 839.30 L 419.40 841.50 Z"
								fill="url(#未命名的渐变_32)"
								fill-opacity="0.4"
								fill-rule="nonzero"
								group-id="1,2,8,14"
								node-id="102"
								stroke="none"
								target-height="101.20001"
								target-width="257.5"
								target-x="398"
								target-y="795.2" />
						</g>
						<path
							id="路径-6"
							d="M 523.00 685.90 L 519.80 684.20 L 516.80 681.90 L 514.10 679.30 L 511.90 676.50 L 509.80 672.80 L 507.80 666.30 L 506.40 663.00 L 504.30 659.20 L 501.80 655.50 L 498.60 652.10 L 496.20 650.10 L 493.60 648.50 L 490.60 647.20 L 485.80 646.40 L 480.00 646.90 L 476.30 648.00 L 473.20 649.50 L 470.50 651.20 L 468.20 653.10 L 466.20 655.50 L 464.60 658.00 L 463.30 660.60 L 462.50 663.50 L 461.90 669.40 L 462.90 675.60 L 465.40 681.60 L 469.50 687.20 L 475.80 693.90 L 485.40 703.30 L 488.80 705.80 L 492.00 707.10 L 493.20 707.10 L 495.90 706.30 L 499.00 706.50 L 501.30 707.40 L 503.50 708.80 L 507.80 712.00 L 508.70 711.80 L 509.90 710.90 L 513.70 706.50 L 517.50 700.60 L 521.80 693.30 L 525.10 689.20 Z"
							fill="#ebb0b0"
							fill-rule="nonzero"
							group-id="1,2,8"
							node-id="103"
							stroke="none"
							target-height="65.599976"
							target-width="63.19998"
							target-x="461.9"
							target-y="646.4" />
						<path
							id="路径-7"
							d="M 451.00 648.20 L 448.30 650.90 L 446.50 653.30 L 445.20 655.50 L 444.50 657.90 L 444.20 660.20 L 444.30 662.30 L 445.70 666.50 L 449.00 671.00 L 451.50 673.30 L 456.90 676.80 L 462.00 679.00 L 465.00 679.40 L 472.90 678.40 L 476.00 680.70 L 480.70 685.60 L 484.40 684.40 L 482.90 681.60 L 482.90 680.60 L 483.40 679.80 L 485.70 679.10 L 487.10 679.30 L 488.60 679.80 L 489.90 680.70 L 490.90 682.10 L 491.60 684.00 L 492.10 687.70 L 492.00 688.50 L 491.80 688.50 L 496.90 689.20 L 499.60 688.70 L 509.80 678.90 L 512.30 675.10 L 512.90 672.90 L 510.40 663.20 L 508.30 657.10 L 506.50 653.80 L 503.90 649.90 L 501.70 647.50 L 499.20 645.50 L 496.30 643.60 L 489.90 641.00 L 481.40 639.20 L 476.60 638.80 L 472.10 639.10 L 468.60 639.80 L 462.60 641.80 L 458.00 643.80 L 453.90 646.10 L 451.00 648.20 Z"
							fill="#131322"
							fill-rule="nonzero"
							group-id="1,2,8"
							node-id="104"
							stroke="none"
							target-height="50.400024"
							target-width="68.70001"
							target-x="444.2"
							target-y="638.8" />
						<path
							id="路径-8"
							d="M 415.90 827.10 L 420.60 834.10 L 421.20 835.60 L 421.30 837.20 L 420.90 838.90 L 419.70 841.20 L 418.10 843.30 L 416.10 845.20 L 414.60 846.30 L 411.70 847.30 L 394.40 848.30 L 385.80 848.30 L 376.50 847.20 L 373.90 846.50 L 371.20 845.10 L 369.80 843.00 L 369.70 840.60 L 371.30 837.70 L 373.00 836.10 L 378.10 833.20 L 384.90 831.10 L 393.90 829.50 L 412.30 827.00 Z"
							fill="#333333"
							fill-rule="nonzero"
							group-id="1,2,8"
							node-id="105"
							stroke="none"
							target-height="21.299988"
							target-width="51.599976"
							target-x="369.7"
							target-y="827" />
						<path
							id="Fill-1706"
							d="M 513.50 789.90 L 506.00 779.30 L 495.90 766.70 L 490.00 760.30 L 483.50 754.00 L 474.20 746.40 L 469.30 743.10 L 464.20 740.10 L 459.00 737.70 L 453.70 735.80 L 449.60 734.80 L 445.40 734.20 L 441.20 733.90 L 436.90 734.10 L 434.00 734.70 L 431.30 735.70 L 428.70 737.20 L 426.10 739.30 L 423.10 742.40 L 420.20 746.30 L 417.40 750.90 L 412.60 761.00 L 407.60 775.50 L 403.00 793.70 L 399.90 810.70 L 397.00 832.70 L 415.00 835.70 L 445.90 776.30 L 500.00 844.50 L 539.40 829.30 Z"
							fill="url(#未命名的渐变_34)"
							fill-rule="nonzero"
							group-id="1,2,8"
							node-id="106"
							stroke="none"
							target-height="110.599976"
							target-width="142.40002"
							target-x="397"
							target-y="733.9" />
						<path
							id="Fill-1708"
							d="M 605.60 788.80 L 607.30 795.70 L 608.80 803.30 L 609.90 811.10 L 610.50 818.90 L 610.30 829.30 L 609.00 839.10 L 607.80 843.60 L 606.30 847.70 L 604.40 851.70 L 602.00 855.10 L 599.30 858.10 L 596.90 860.00 L 594.30 861.60 L 591.40 862.80 L 588.10 863.80 L 578.50 865.20 L 566.50 865.60 L 530.60 865.30 L 476.90 865.50 L 464.60 865.30 L 454.40 864.60 L 447.80 863.80 L 442.20 862.70 L 437.50 861.30 L 434.10 859.80 L 431.20 858.10 L 428.80 856.10 L 426.80 853.90 L 425.30 851.40 L 424.20 848.50 L 423.50 845.00 L 423.20 841.00 L 423.50 838.20 L 424.20 835.60 L 425.20 833.40 L 426.70 831.40 L 429.00 829.00 L 432.00 827.00 L 435.50 825.20 L 443.40 822.60 L 454.80 820.70 L 462.00 820.10 L 475.90 819.70 L 492.80 819.80 L 515.70 818.80 L 567.60 817.90 Z"
							fill="url(#未命名的渐变_34-2)"
							fill-rule="nonzero"
							group-id="1,2,8"
							node-id="107"
							stroke="none"
							target-height="76.79999"
							target-width="187.29999"
							target-x="423.2"
							target-y="788.8" />
						<path
							id="Fill-1709"
							d="M 498.80 710.10 L 512.50 697.80 L 516.30 693.40 L 517.60 691.10 L 518.60 687.60 L 518.60 685.20 L 517.70 682.30 L 525.20 682.50 L 531.00 683.30 L 539.60 685.20 L 544.80 686.80 L 549.80 688.80 L 555.20 691.30 L 560.90 694.40 L 566.30 697.90 L 571.70 702.20 L 577.30 707.40 L 581.20 711.50 L 585.00 716.20 L 588.70 721.50 L 592.40 727.40 L 594.90 732.40 L 599.40 743.30 L 602.10 751.90 L 604.40 760.60 L 606.20 769.30 L 608.70 785.30 L 610.50 805.80 L 607.20 808.50 L 599.80 812.30 L 589.70 815.60 L 578.30 817.90 L 564.60 819.20 L 555.90 819.60 L 537.20 819.20 L 525.70 818.40 L 494.40 760.10 L 492.30 755.50 L 490.80 750.70 L 490.10 745.40 L 490.10 739.70 L 490.80 733.30 L 492.40 726.40 L 495.10 718.60 L 498.80 710.10 Z"
							fill="url(#未命名的渐变_36)"
							fill-rule="nonzero"
							group-id="1,2,8"
							node-id="108"
							stroke="none"
							target-height="137.29999"
							target-width="120.399994"
							target-x="490.1"
							target-y="682.3" />
						<path
							id="矩形-3"
							d="M 375.80 756.50 L 408.60 768.50 L 407.40 771.70 L 374.60 759.80 L 375.80 756.50 Z"
							fill="#000000"
							fill-rule="evenodd"
							group-id="1,2,8"
							node-id="109"
							stroke="none"
							target-height="15.200012"
							target-width="34"
							target-x="374.6"
							target-y="756.5" />
						<path
							id="路径-50备份"
							d="M 414.30 771.70 L 407.00 768.10 L 404.00 765.80 L 401.30 765.30 L 400.30 765.50 L 400.10 766.20 L 400.40 767.30 L 401.80 768.80 L 397.30 767.90 L 393.10 765.80 L 390.20 764.70 L 388.50 764.70 L 387.40 765.20 L 386.70 766.20 L 386.40 768.10 L 387.20 770.20 L 388.50 772.20 L 391.30 774.50 L 395.20 776.10 L 397.60 776.50 L 405.40 776.30 L 409.10 777.00 Z"
							fill="#efba9e"
							fill-rule="nonzero"
							group-id="1,2,8"
							node-id="110"
							stroke="none"
							target-height="12.299988"
							target-width="27.899994"
							target-x="386.4"
							target-y="764.7" />
						<path
							id="路径-3-2"
							d="M 410.30 768.70 L 484.00 796.60 L 503.50 719.30 L 506.10 714.40 L 508.90 710.50 L 512.10 707.30 L 515.60 705.00 L 519.50 703.20 L 523.90 702.20 L 528.80 701.90 L 534.30 702.30 L 537.70 704.10 L 540.50 706.20 L 542.90 708.70 L 544.90 711.40 L 546.50 714.30 L 547.70 717.50 L 548.50 720.80 L 548.80 724.20 L 548.80 727.80 L 547.20 735.80 L 543.60 747.90 L 538.40 762.40 L 531.90 777.70 L 528.30 785.20 L 524.60 792.10 L 520.70 798.70 L 516.90 804.00 L 508.60 813.30 L 504.60 817.20 L 500.80 820.20 L 498.00 821.70 L 495.10 822.90 L 491.90 823.60 L 488.70 823.90 L 485.00 823.60 L 480.70 822.80 L 474.40 820.20 L 461.80 814.30 L 439.70 803.20 L 404.10 784.60 Z"
							fill="url(#未命名的渐变_36-2)"
							fill-rule="nonzero"
							group-id="1,2,8"
							node-id="111"
							stroke="none"
							target-height="122"
							target-width="144.69998"
							target-x="404.1"
							target-y="701.9" />
					</g>
				</g>
			</g>
  </svg>
