		<svg
			height="1024"
			node-id="1"
			sillyvg="true"
			template-height="1024"
			template-width="1024"
			version="1.1"
			viewBox="0 0 1024 1024"
			width="1024"
			xmlns="http://www.w3.org/2000/svg"
			xmlns:xlink="http://www.w3.org/1999/xlink">
			<defs node-id="76">
				<linearGradient
					id="paint0_linear_1515_110877"
					gradientUnits="objectBoundingBox"
					node-id="31"
					spreadMethod="pad"
					x1="506"
					x2="506"
					y1="635"
					y2="890">
					<stop offset="0" stop-color="#bddfff" />
					<stop offset="0.95892" stop-color="#ffffff" stop-opacity="0" />
				</linearGradient>
				<linearGradient
					id="paint1_linear_1515_110877"
					gradientUnits="objectBoundingBox"
					node-id="34"
					spreadMethod="pad"
					x1="229.66"
					x2="229.66"
					y1="754.678"
					y2="615.257">
					<stop offset="0" stop-color="#5fb2ff" />
					<stop offset="0.7893" stop-color="#dff0ff" />
				</linearGradient>
				<linearGradient
					id="paint2_linear_1515_110877"
					gradientUnits="objectBoundingBox"
					node-id="37"
					spreadMethod="pad"
					x1="229.661"
					x2="229.661"
					y1="630.738"
					y2="784.347">
					<stop offset="0" stop-color="#dff0ff" />
					<stop offset="0.818" stop-color="#a2d2ff" />
				</linearGradient>
				<linearGradient
					id="paint3_linear_1515_110877"
					gradientUnits="objectBoundingBox"
					node-id="40"
					spreadMethod="pad"
					x1="883.842"
					x2="847.534"
					y1="720.042"
					y2="802.968">
					<stop offset="0.365159" stop-color="#c4e3ff" />
					<stop offset="1" stop-color="#5fb2ff" />
				</linearGradient>
				<linearGradient
					id="paint4_linear_1515_110877"
					gradientUnits="objectBoundingBox"
					node-id="43"
					spreadMethod="pad"
					x1="691.606"
					x2="742.451"
					y1="62.4854"
					y2="154.407">
					<stop offset="0" stop-color="#6cb8ff" />
					<stop offset="1" stop-color="#a2d2ff" />
				</linearGradient>
				<linearGradient
					id="paint5_linear_1515_110877"
					gradientUnits="objectBoundingBox"
					node-id="46"
					spreadMethod="pad"
					x1="817.819"
					x2="820.492"
					y1="231.286"
					y2="336.299">
					<stop offset="0" stop-color="#6cb8ff" />
					<stop offset="1" stop-color="#a2d2ff" />
				</linearGradient>
				<linearGradient
					id="paint6_linear_1515_110877"
					gradientUnits="objectBoundingBox"
					node-id="49"
					spreadMethod="pad"
					x1="820.15"
					x2="819.109"
					y1="290.243"
					y2="395.285">
					<stop offset="0" stop-color="#6cb8ff" />
					<stop offset="1" stop-color="#a2d2ff" />
				</linearGradient>
				<linearGradient
					id="paint7_linear_1515_110877"
					gradientUnits="objectBoundingBox"
					node-id="52"
					spreadMethod="pad"
					x1="455.54"
					x2="455.54"
					y1="494.302"
					y2="517.454">
					<stop offset="0" stop-color="#ffcda5" />
					<stop offset="1" stop-color="#ffe8d1" />
				</linearGradient>
				<linearGradient
					id="paint8_linear_1515_110877"
					gradientUnits="objectBoundingBox"
					node-id="55"
					spreadMethod="pad"
					x1="454.958"
					x2="485.08"
					y1="441.067"
					y2="497.231">
					<stop offset="0" stop-color="#fff2df" />
					<stop offset="1" stop-color="#fee0bc" />
				</linearGradient>
				<linearGradient
					id="paint9_linear_1515_110877"
					gradientUnits="objectBoundingBox"
					node-id="58"
					spreadMethod="pad"
					x1="473.385"
					x2="424.514"
					y1="447.785"
					y2="486.775">
					<stop offset="0" stop-color="#777ca7" />
					<stop offset="1" stop-color="#636681" />
				</linearGradient>
				<linearGradient
					id="paint10_linear_1515_110877"
					gradientUnits="objectBoundingBox"
					node-id="61"
					spreadMethod="pad"
					x1="483.439"
					x2="496.81"
					y1="471.782"
					y2="461.107">
					<stop offset="0" stop-color="#fee4c3" />
					<stop offset="1" stop-color="#ffd1ac" />
				</linearGradient>
				<linearGradient
					id="paint11_linear_1515_110877"
					gradientUnits="objectBoundingBox"
					node-id="64"
					spreadMethod="pad"
					x1="403.547"
					x2="386.95"
					y1="619.109"
					y2="614.954">
					<stop offset="0" stop-color="#fee4c3" />
					<stop offset="1" stop-color="#ffd1ac" />
				</linearGradient>
				<linearGradient
					id="paint12_linear_1515_110877"
					gradientUnits="objectBoundingBox"
					node-id="67"
					spreadMethod="pad"
					x1="508.79"
					x2="444.225"
					y1="452.554"
					y2="643.6">
					<stop offset="0" stop-color="#ffe194" />
					<stop offset="1" stop-color="#ffbf84" />
				</linearGradient>
				<linearGradient
					id="paint13_linear_1515_110877"
					gradientUnits="objectBoundingBox"
					node-id="70"
					spreadMethod="pad"
					x1="390.285"
					x2="385.202"
					y1="476.52"
					y2="508.233">
					<stop offset="0" stop-color="#6cb8ff" />
					<stop offset="0.656831" stop-color="#8fc8ff" />
				</linearGradient>
				<clipPath id="clip0_1515_110877" node-id="73">
					<path
						d="M 0.00 0.00 L 1024.00 0.00 L 1024.00 1024.00 L 0.00 1024.00 Z"
						fill="#000000"
						fill-rule="nonzero"
						node-id="163"
						stroke="none"
						target-height="1024"
						target-width="1024"
						target-x="0"
						target-y="0" />
				</clipPath>
			</defs>
			<g id="sillyvg_g_0" clip-path="url(#clip0_1515_110877)" node-id="167">
				<path
					d="M 973.00 762.50 L 972.80 766.60 L 972.00 770.70 L 970.80 774.80 L 969.10 779.00 L 966.80 783.20 L 963.90 787.50 L 960.30 792.10 L 955.90 796.70 L 950.60 801.50 L 944.50 806.30 L 937.50 811.30 L 928.70 816.70 L 918.80 822.10 L 907.40 827.70 L 894.50 833.20 L 881.90 838.10 L 868.10 843.00 L 852.90 847.90 L 836.20 852.70 L 802.60 861.00 L 765.10 868.60 L 726.40 874.90 L 684.70 880.30 L 656.60 883.20 L 627.50 885.60 L 597.50 887.50 L 567.50 888.90 L 537.00 889.70 L 506.00 890.00 L 475.00 889.70 L 444.50 888.90 L 414.50 887.50 L 384.50 885.60 L 355.40 883.20 L 327.30 880.30 L 285.60 874.90 L 246.90 868.60 L 209.40 861.00 L 175.80 852.70 L 159.10 847.90 L 143.90 843.00 L 130.10 838.10 L 117.50 833.20 L 104.60 827.70 L 93.20 822.10 L 83.30 816.70 L 74.50 811.30 L 67.50 806.30 L 61.40 801.50 L 56.10 796.70 L 51.70 792.10 L 48.10 787.50 L 45.20 783.20 L 42.90 779.00 L 41.20 774.80 L 40.00 770.70 L 39.20 766.60 L 39.00 762.50 L 39.20 758.40 L 40.00 754.30 L 41.20 750.20 L 42.90 746.00 L 45.20 741.80 L 48.10 737.50 L 51.70 732.90 L 56.10 728.30 L 61.40 723.50 L 67.50 718.70 L 74.50 713.70 L 83.30 708.30 L 93.20 702.90 L 104.60 697.30 L 117.50 691.80 L 130.10 686.90 L 143.90 682.00 L 159.10 677.10 L 175.80 672.30 L 209.40 664.00 L 246.90 656.40 L 285.60 650.10 L 327.30 644.70 L 355.40 641.80 L 384.50 639.40 L 414.50 637.50 L 444.50 636.10 L 475.00 635.30 L 506.00 635.00 L 537.00 635.30 L 567.50 636.10 L 597.50 637.50 L 627.50 639.40 L 656.60 641.80 L 684.70 644.70 L 726.40 650.10 L 765.10 656.40 L 802.60 664.00 L 836.20 672.30 L 852.90 677.10 L 868.10 682.00 L 881.90 686.90 L 894.50 691.80 L 907.40 697.30 L 918.80 702.90 L 928.70 708.30 L 937.50 713.70 L 944.50 718.70 L 950.60 723.50 L 955.90 728.30 L 960.30 732.90 L 963.90 737.50 L 966.80 741.80 L 969.10 746.00 L 970.80 750.20 L 972.00 754.30 L 972.80 758.40 L 973.00 762.50 Z"
					fill="url(#paint0_linear_1515_110877)"
					fill-rule="nonzero"
					node-id="169"
					stroke="none"
					target-height="255"
					target-width="934"
					target-x="39"
					target-y="635" />
				<path
					d="M 230.50 615.50 L 230.20 615.30 L 229.90 615.50 L 226.90 622.60 L 218.30 645.90 L 211.50 667.50 L 208.30 679.50 L 205.40 691.70 L 203.00 704.10 L 201.80 712.40 L 200.20 730.20 L 200.60 735.20 L 201.30 738.20 L 202.60 741.60 L 203.90 743.70 L 207.60 748.00 L 209.90 749.80 L 212.90 751.40 L 216.60 752.80 L 220.50 753.80 L 225.20 754.40 L 231.00 754.70 L 235.40 754.40 L 242.30 753.00 L 245.00 751.90 L 248.50 749.90 L 251.30 747.70 L 253.40 745.20 L 255.20 742.40 L 257.60 736.60 L 258.60 732.10 L 259.00 728.00 L 258.90 716.50 L 257.40 704.80 L 255.60 695.60 L 253.20 685.60 L 247.70 665.50 L 241.60 646.50 L 230.50 615.50 Z"
					fill="url(#paint1_linear_1515_110877)"
					fill-rule="nonzero"
					node-id="171"
					stroke="none"
					target-height="139.40002"
					target-width="58.800003"
					target-x="200.2"
					target-y="615.3" />
				<path
					d="M 229.70 784.30 L 228.90 784.00 L 228.60 783.30 L 228.60 631.80 L 228.90 631.00 L 229.70 630.70 L 230.40 631.00 L 230.70 631.80 L 230.70 783.30 L 230.40 784.00 L 229.70 784.30 Z"
					fill="url(#paint2_linear_1515_110877)"
					fill-rule="nonzero"
					node-id="173"
					stroke="none"
					target-height="153.59998"
					target-width="2.0999908"
					target-x="228.6"
					target-y="630.7" />
				<path
					d="M 869.40 810.70 L 876.50 808.00 L 879.90 806.20 L 883.30 803.80 L 886.60 801.00 L 890.80 795.80 L 891.90 792.80 L 891.70 791.30 L 890.20 789.40 L 888.00 788.50 L 886.20 788.50 L 883.50 789.00 L 879.20 790.50 L 870.90 794.80 L 870.30 794.80 L 869.30 794.30 L 868.80 793.30 L 868.80 792.70 L 870.30 790.40 L 872.70 788.30 L 882.60 781.40 L 890.70 774.50 L 894.20 770.10 L 895.40 767.60 L 896.00 765.10 L 895.60 762.50 L 893.80 760.60 L 892.50 760.00 L 890.40 759.60 L 888.20 759.80 L 883.70 761.50 L 881.60 762.90 L 878.80 765.30 L 873.10 770.90 L 869.80 773.30 L 868.00 774.00 L 866.00 774.40 L 864.00 774.00 L 863.30 773.30 L 862.80 771.30 L 863.30 769.30 L 873.00 757.80 L 876.50 752.90 L 879.40 747.70 L 881.00 744.00 L 882.20 740.20 L 883.00 736.20 L 883.20 732.20 L 882.90 728.30 L 882.00 724.40 L 880.70 721.20 L 878.60 718.40 L 877.20 717.30 L 874.00 716.10 L 872.30 716.10 L 869.40 717.10 L 866.50 719.90 L 863.60 725.20 L 862.30 728.50 L 860.40 737.40 L 858.20 756.20 L 856.90 760.60 L 855.10 763.20 L 853.70 763.30 L 852.30 761.90 L 848.10 748.80 L 846.80 746.00 L 843.90 742.10 L 840.90 740.30 L 839.20 740.10 L 837.80 740.30 L 835.40 741.60 L 834.00 743.30 L 833.00 745.30 L 832.60 747.40 L 832.70 749.60 L 833.60 753.90 L 835.10 757.60 L 837.00 761.10 L 839.20 764.50 L 844.50 770.90 L 845.60 772.70 L 846.30 774.70 L 846.30 776.10 L 845.40 778.80 L 844.50 779.90 L 843.40 780.60 L 842.10 780.70 L 840.70 780.30 L 830.70 774.80 L 826.80 773.70 L 824.90 773.80 L 823.00 774.40 L 820.70 776.20 L 819.40 779.00 L 819.00 780.80 L 819.00 782.70 L 820.00 786.10 L 824.10 793.50 L 827.40 798.30 L 830.10 801.60 L 833.10 804.50 L 838.20 808.40 L 841.60 810.20 L 845.80 811.70 L 852.20 812.90 L 860.00 812.70 L 864.40 812.00 L 869.40 810.70 Z"
					fill="url(#paint3_linear_1515_110877)"
					fill-rule="nonzero"
					node-id="175"
					stroke="none"
					target-height="96.80005"
					target-width="77"
					target-x="819"
					target-y="716.1" />
				<path
					d="M 371.20 332.70 L 381.90 368.90 L 358.60 375.80 L 371.80 420.60 L 324.50 434.50 L 311.00 389.80 L 223.50 415.60 L 214.00 383.40 L 232.90 230.30 L 278.60 233.50 L 262.90 364.60 L 300.90 353.40 L 291.70 302.80 L 333.40 290.40 L 347.90 339.60 L 371.20 332.70 Z"
					fill="url(#paint4_linear_1515_110877)"
					fill-rule="nonzero"
					node-id="177"
					stroke="none"
					target-height="204.2"
					target-width="167.9"
					target-x="214"
					target-y="230.3" />
				<path
					d="M 549.50 211.70 L 556.70 213.30 L 563.40 215.40 L 569.50 217.90 L 575.20 220.80 L 580.30 224.00 L 585.10 227.60 L 589.50 231.60 L 593.50 236.00 L 597.10 240.80 L 600.30 246.10 L 603.30 251.80 L 605.80 258.00 L 608.00 264.60 L 609.70 271.60 L 611.00 279.20 L 611.80 287.30 L 612.20 296.10 L 612.00 305.50 L 611.30 315.60 L 609.90 326.50 L 607.90 338.20 L 605.40 349.60 L 602.60 360.20 L 599.50 369.80 L 596.10 378.50 L 592.50 386.50 L 588.60 393.80 L 584.60 400.30 L 580.30 406.30 L 575.80 411.60 L 571.10 416.40 L 566.20 420.70 L 561.20 424.40 L 556.00 427.50 L 550.60 430.10 L 545.10 432.20 L 539.30 433.80 L 533.30 434.90 L 527.00 435.40 L 520.40 435.40 L 513.40 434.80 L 506.10 433.70 L 498.90 432.00 L 492.20 429.90 L 486.10 427.40 L 480.40 424.50 L 475.20 421.30 L 470.40 417.60 L 466.00 413.60 L 462.00 409.20 L 458.30 404.30 L 455.00 399.00 L 452.10 393.10 L 449.60 386.90 L 447.50 380.30 L 445.80 373.20 L 444.50 365.60 L 443.70 357.50 L 443.40 348.70 L 443.60 339.30 L 444.40 329.30 L 445.70 318.50 L 447.70 306.90 L 450.30 295.30 L 453.10 284.70 L 456.20 275.00 L 459.50 266.20 L 463.10 258.30 L 467.00 251.00 L 471.00 244.50 L 475.20 238.60 L 479.60 233.30 L 484.20 228.60 L 489.10 224.40 L 494.20 220.70 L 499.40 217.60 L 504.80 215.10 L 510.40 213.00 L 516.20 211.50 L 522.20 210.40 L 528.60 209.90 L 535.20 209.90 L 542.10 210.50 L 549.50 211.70 Z M 542.30 248.40 L 538.70 247.90 L 535.30 247.90 L 532.20 248.30 L 529.30 249.10 L 526.60 250.30 L 524.00 252.00 L 521.30 254.30 L 518.60 257.40 L 515.80 261.50 L 513.00 266.60 L 510.10 273.10 L 507.40 280.60 L 504.60 290.20 L 501.70 302.20 L 498.60 316.80 L 496.00 331.50 L 494.20 343.70 L 493.10 353.80 L 492.70 362.00 L 493.00 369.00 L 493.70 374.90 L 494.70 379.70 L 496.10 383.60 L 497.70 386.70 L 499.40 389.20 L 501.50 391.40 L 503.90 393.30 L 506.60 394.80 L 509.70 396.00 L 513.30 396.90 L 517.60 397.50 L 521.50 397.40 L 525.10 396.70 L 528.40 395.50 L 531.50 393.70 L 534.20 391.30 L 536.90 388.20 L 539.60 384.20 L 542.30 379.00 L 545.10 372.50 L 547.90 364.80 L 550.80 355.10 L 553.90 343.00 L 557.00 328.20 L 559.70 313.30 L 561.40 301.00 L 562.30 291.00 L 562.60 283.00 L 562.50 275.80 L 561.90 269.90 L 560.90 265.20 L 559.60 261.30 L 558.00 258.30 L 555.80 255.50 L 553.20 253.10 L 550.10 251.10 L 546.50 249.50 L 542.30 248.40 Z"
					fill="url(#paint5_linear_1515_110877)"
					fill-rule="nonzero"
					node-id="179"
					stroke="none"
					target-height="225.5"
					target-width="168.80002"
					target-x="443.4"
					target-y="209.9" />
				<path
					d="M 798.00 458.10 L 789.40 494.90 L 765.70 489.40 L 755.10 534.90 L 707.10 523.70 L 717.40 478.10 L 628.60 457.50 L 636.20 424.80 L 728.00 300.90 L 766.20 326.20 L 687.90 432.50 L 726.60 441.50 L 743.50 392.90 L 785.90 402.70 L 774.30 452.60 L 798.00 458.10 Z"
					fill="url(#paint6_linear_1515_110877)"
					fill-rule="nonzero"
					node-id="181"
					stroke="none"
					target-height="234.00003"
					target-width="169.40002"
					target-x="628.6"
					target-y="300.9" />
				<path
					d="M 314.00 617.20 L 525.80 740.70 L 525.80 803.00 L 314.00 679.50 L 314.00 617.20 Z"
					fill="#b8d9f6"
					fill-rule="nonzero"
					node-id="183"
					stroke="none"
					target-height="185.79999"
					target-width="211.79999"
					target-x="314"
					target-y="617.2" />
				<path
					d="M 332.20 645.70 L 468.00 725.30 L 468.00 735.40 L 332.20 655.80 L 332.20 645.70 Z M 332.20 666.50 L 468.00 746.10 L 468.00 756.20 L 332.20 676.60 L 332.20 666.50 Z M 480.50 731.90 L 505.50 746.90 L 505.50 775.00 L 480.50 760.10 L 480.50 731.90 Z"
					fill="#5ca8ea"
					fill-rule="nonzero"
					node-id="185"
					stroke="none"
					target-height="129.29999"
					target-width="173.29999"
					target-x="332.2"
					target-y="645.7" />
				<path
					d="M 710.30 633.70 L 525.80 740.70 L 525.80 803.00 L 710.30 695.20 L 710.30 633.70 Z"
					fill="#99c9f2"
					fill-rule="nonzero"
					node-id="187"
					stroke="none"
					target-height="169.29999"
					target-width="184.5"
					target-x="525.8"
					target-y="633.7" />
				<path
					d="M 710.30 633.70 L 497.40 512.00 L 314.00 617.20 L 525.80 740.40 L 710.30 633.70 Z"
					fill="#e0effb"
					fill-rule="nonzero"
					node-id="189"
					stroke="none"
					target-height="228.40002"
					target-width="396.3"
					target-x="314"
					target-y="512" />
				<path
					d="M 515.00 795.50 L 514.70 797.00 L 514.00 798.40 L 512.70 799.90 L 510.60 801.50 L 507.60 803.20 L 503.60 804.80 L 498.50 806.50 L 487.30 808.80 L 480.50 809.80 L 466.40 810.80 L 458.50 811.00 L 450.60 810.80 L 436.50 809.80 L 429.70 808.80 L 418.50 806.50 L 413.40 804.80 L 409.40 803.20 L 406.40 801.50 L 404.30 799.90 L 403.00 798.40 L 402.30 797.00 L 402.00 795.50 L 402.30 794.00 L 403.00 792.60 L 404.30 791.10 L 406.40 789.50 L 409.40 787.80 L 413.40 786.20 L 418.50 784.50 L 429.70 782.20 L 436.50 781.20 L 450.60 780.20 L 458.50 780.00 L 466.40 780.20 L 480.50 781.20 L 487.30 782.20 L 498.50 784.50 L 503.60 786.20 L 507.60 787.80 L 510.60 789.50 L 512.70 791.10 L 514.00 792.60 L 514.70 794.00 L 515.00 795.50 Z"
					fill="#7d7d7d"
					fill-opacity="0.1"
					fill-rule="nonzero"
					node-id="191"
					stroke="none"
					target-height="31"
					target-width="113"
					target-x="402"
					target-y="780" />
				<path
					d="M 468.20 490.90 L 442.90 490.90 L 442.90 517.50 L 468.20 517.50 L 468.20 490.90 Z"
					fill="url(#paint7_linear_1515_110877)"
					fill-rule="nonzero"
					node-id="193"
					stroke="none"
					target-height="26.600006"
					target-width="25.300018"
					target-x="442.9"
					target-y="490.9" />
				<path
					d="M 458.90 500.60 L 462.40 500.30 L 465.80 499.50 L 468.90 498.20 L 471.90 496.50 L 474.60 494.40 L 477.10 491.90 L 479.30 489.00 L 481.10 485.90 L 482.60 482.40 L 483.70 478.80 L 484.40 474.90 L 484.70 470.80 L 484.40 466.70 L 483.70 462.90 L 482.60 459.20 L 481.10 455.80 L 479.30 452.60 L 477.10 449.80 L 474.60 447.20 L 471.90 445.10 L 468.90 443.40 L 465.80 442.10 L 462.40 441.30 L 458.90 441.10 L 455.40 441.30 L 452.10 442.10 L 448.90 443.40 L 445.90 445.10 L 443.20 447.20 L 440.70 449.80 L 438.50 452.60 L 436.70 455.80 L 435.20 459.20 L 434.10 462.90 L 433.40 466.70 L 433.20 470.80 L 433.40 474.90 L 434.10 478.80 L 435.20 482.40 L 436.70 485.90 L 438.50 489.00 L 440.70 491.90 L 443.20 494.40 L 445.90 496.50 L 448.90 498.20 L 452.10 499.50 L 455.40 500.30 L 458.90 500.60 Z"
					fill="url(#paint8_linear_1515_110877)"
					fill-rule="nonzero"
					node-id="195"
					stroke="none"
					target-height="59.5"
					target-width="51.5"
					target-x="433.2"
					target-y="441.1" />
				<path
					d="M 482.20 445.10 L 483.80 448.50 L 485.80 455.70 L 486.20 459.10 L 486.30 463.90 L 485.30 464.70 L 481.40 466.40 L 478.70 468.80 L 477.10 470.90 L 472.90 467.00 L 471.40 466.20 L 469.70 465.80 L 468.00 466.00 L 466.90 466.60 L 464.30 469.00 L 463.40 473.50 L 463.60 475.40 L 464.90 478.80 L 467.60 482.00 L 469.40 483.10 L 471.20 483.80 L 472.60 483.70 L 468.50 488.00 L 464.80 490.20 L 460.00 492.20 L 455.00 493.20 L 447.80 493.40 L 442.40 492.40 L 434.60 489.90 L 428.90 487.20 L 423.80 481.30 L 421.20 477.40 L 419.00 472.90 L 417.00 466.30 L 416.50 462.70 L 416.50 459.00 L 417.00 455.10 L 418.10 451.00 L 419.20 448.00 L 422.90 441.70 L 425.60 438.30 L 432.50 433.30 L 439.70 430.00 L 446.90 428.20 L 450.70 427.90 L 454.80 428.00 L 459.40 428.70 L 466.00 430.90 L 473.50 435.00 L 479.10 440.30 L 482.20 445.10 Z"
					fill="url(#paint9_linear_1515_110877)"
					fill-rule="evenodd"
					node-id="197"
					stroke="none"
					target-height="65.5"
					target-width="69.79999"
					target-x="416.5"
					target-y="427.9" />
				<path
					d="M 486.40 453.10 L 473.90 461.00 L 446.30 479.40 L 435.90 485.40 L 432.40 486.80 L 428.30 487.50 L 426.90 487.40 L 424.20 486.10 L 421.40 482.90 L 419.70 480.20 L 417.90 476.40 L 415.70 469.10 L 415.20 465.50 L 415.00 460.70 L 415.50 456.00 L 416.60 451.60 L 418.30 447.30 L 420.50 443.30 L 423.20 439.50 L 426.50 436.20 L 430.20 433.20 L 434.40 430.70 L 439.00 428.60 L 443.70 427.20 L 448.50 426.40 L 452.10 426.20 L 455.70 426.40 L 459.30 427.00 L 462.90 428.00 L 466.40 429.50 L 469.70 431.30 L 473.00 433.70 L 476.20 436.60 L 479.00 439.80 L 481.60 443.60 L 484.10 448.00 L 486.40 453.10 Z"
					fill="#585449"
					fill-rule="nonzero"
					node-id="199"
					stroke="none"
					target-height="61.299988"
					target-width="71.399994"
					target-x="415"
					target-y="426.2" />
				<path
					d="M 503.10 436.30 L 503.20 438.30 L 502.60 439.60 L 499.50 443.50 L 496.90 445.80 L 487.80 452.20 L 481.00 456.00 L 473.90 459.30 L 463.50 463.00 L 460.10 463.70 L 455.20 464.00 L 453.70 463.70 L 452.10 462.50 L 452.10 460.50 L 452.70 459.10 L 455.80 455.30 L 458.40 453.00 L 467.40 446.60 L 474.20 442.80 L 481.30 439.50 L 491.80 435.80 L 495.20 435.10 L 500.10 434.80 L 501.50 435.10 L 503.10 436.30 Z"
					fill="#585449"
					fill-rule="nonzero"
					group-id="1"
					node-id="203"
					stroke="none"
					target-height="29.200012"
					target-width="51.100006"
					target-x="452.1"
					target-y="434.8" />
				<path
					d="M 426.00 776.40 L 436.90 776.30 L 437.00 790.90 L 426.10 791.00 Z"
					fill="#fee4c3"
					fill-rule="nonzero"
					group-id="2"
					node-id="208"
					stroke="none"
					target-height="14.700012"
					target-width="11"
					target-x="426"
					target-y="776.3" />
				<path
					d="M 451.80 790.30 L 451.90 793.80 L 450.40 796.50 L 447.70 798.50 L 442.40 800.10 L 434.60 801.40 L 430.80 801.60 L 427.70 801.20 L 425.90 800.60 L 424.40 799.50 L 422.90 797.10 L 422.70 795.90 L 423.20 792.50 L 425.20 788.50 L 427.40 789.10 L 430.90 789.10 L 435.30 787.70 L 437.70 786.20 L 444.50 786.50 L 447.40 786.90 L 449.50 787.60 L 450.70 788.30 L 451.80 790.30 Z"
					fill="#7b7b7b"
					fill-rule="nonzero"
					node-id="211"
					stroke="none"
					target-height="15.399963"
					target-width="29.199982"
					target-x="422.7"
					target-y="786.2" />
				<path
					d="M 472.50 773.60 L 483.40 773.60 L 483.50 788.10 L 472.60 788.20 Z"
					fill="#fee4c3"
					fill-rule="nonzero"
					group-id="3"
					node-id="215"
					stroke="none"
					target-height="14.600037"
					target-width="11"
					target-x="472.5"
					target-y="773.6" />
				<path
					d="M 499.10 788.50 L 499.30 790.30 L 499.00 791.80 L 498.30 793.10 L 497.30 794.30 L 495.50 795.40 L 492.80 796.50 L 488.80 797.40 L 481.00 798.60 L 477.30 798.80 L 474.20 798.40 L 472.30 797.80 L 470.90 796.70 L 469.30 794.30 L 469.10 793.10 L 469.60 789.70 L 471.70 785.70 L 473.80 786.30 L 477.30 786.30 L 481.70 785.00 L 484.20 783.40 L 487.80 783.60 L 494.20 784.70 L 496.60 785.60 L 497.90 786.40 L 499.10 788.50 Z"
					fill="#7b7b7b"
					fill-rule="nonzero"
					node-id="218"
					stroke="none"
					target-height="15.399963"
					target-width="30.199982"
					target-x="469.1"
					target-y="783.4" />
				<path
					d="M 413.30 621.70 L 415.10 668.60 L 418.00 721.20 L 420.00 750.20 L 422.70 781.20 L 444.80 781.00 L 450.70 693.00 L 453.40 632.60 L 457.80 665.40 L 462.50 706.90 L 466.40 748.20 L 469.10 780.90 L 489.80 780.60 L 492.30 749.40 L 493.40 720.80 L 493.50 621.70 L 413.30 621.70 Z"
					fill="#dcdcdc"
					fill-rule="nonzero"
					node-id="220"
					stroke="none"
					target-height="159.5"
					target-width="80.20001"
					target-x="413.3"
					target-y="621.7" />
				<path
					d="M 487.30 456.00 L 488.40 455.50 L 490.60 455.50 L 492.10 456.20 L 493.80 457.70 L 499.60 464.70 L 502.50 470.10 L 503.00 472.40 L 503.00 473.90 L 502.50 475.10 L 501.50 476.20 L 498.60 477.40 L 496.90 477.50 L 493.30 476.70 L 491.40 475.80 L 488.80 474.10 L 486.50 471.70 L 481.80 469.10 L 478.80 465.90 L 477.40 462.50 L 477.40 459.30 L 478.70 456.80 L 479.80 455.90 L 481.30 455.30 L 482.90 455.10 L 484.90 455.30 L 487.30 456.00 Z"
					fill="url(#paint10_linear_1515_110877)"
					fill-rule="nonzero"
					node-id="222"
					stroke="none"
					target-height="22.399994"
					target-width="25.600006"
					target-x="477.4"
					target-y="455.1" />
				<path
					d="M 388.70 625.60 L 387.50 625.00 L 386.30 623.30 L 385.90 621.70 L 386.10 619.40 L 388.20 610.60 L 390.60 605.00 L 392.10 603.20 L 393.40 602.30 L 394.70 602.00 L 396.10 602.10 L 398.80 603.60 L 399.90 605.00 L 401.50 608.30 L 401.90 610.30 L 402.10 613.50 L 401.60 616.70 L 402.40 622.10 L 401.70 626.40 L 399.90 629.50 L 397.30 631.50 L 394.50 632.00 L 393.10 631.60 L 391.70 630.80 L 390.60 629.70 L 389.60 628.00 L 388.70 625.60 Z"
					fill="url(#paint11_linear_1515_110877)"
					fill-rule="nonzero"
					node-id="224"
					stroke="none"
					target-height="30"
					target-width="16.5"
					target-x="385.9"
					target-y="602" />
				<path
					d="M 491.40 548.10 L 491.90 557.50 L 493.30 574.50 L 498.10 619.40 L 497.30 621.10 L 490.20 624.20 L 483.30 626.80 L 476.60 628.70 L 463.20 631.50 L 457.00 632.20 L 444.90 632.80 L 431.80 632.10 L 425.50 631.20 L 415.90 628.80 L 413.50 627.80 L 411.80 626.60 L 411.20 621.00 L 411.10 609.40 L 411.60 593.80 L 406.80 605.80 L 402.80 619.90 L 401.00 618.40 L 398.90 617.40 L 395.60 616.40 L 390.20 616.00 L 386.50 616.30 L 385.10 610.80 L 384.90 607.90 L 385.50 600.00 L 387.80 587.90 L 391.70 572.10 L 397.20 556.20 L 404.30 540.00 L 412.10 525.30 L 416.00 519.30 L 421.30 512.60 L 428.20 506.90 L 431.50 504.80 L 433.70 503.80 L 435.70 503.40 L 437.60 503.40 L 441.60 504.70 L 444.00 506.10 L 445.10 509.10 L 447.70 510.20 L 451.00 511.20 L 454.60 511.80 L 459.10 512.00 L 465.50 510.30 L 467.30 509.40 L 468.90 508.10 L 470.00 506.50 L 473.80 505.60 L 476.80 505.30 L 482.90 505.70 L 486.30 506.30 L 489.50 507.20 L 493.80 509.40 L 497.70 510.30 L 500.70 510.20 L 503.60 509.40 L 506.20 508.20 L 508.20 506.50 L 508.80 504.70 L 508.90 502.90 L 508.50 501.10 L 507.60 499.30 L 506.30 497.50 L 500.80 491.50 L 493.60 482.50 L 490.40 477.10 L 490.00 475.60 L 490.30 474.50 L 492.50 472.00 L 497.70 468.30 L 501.00 466.50 L 508.10 472.30 L 516.30 479.80 L 524.00 488.00 L 527.20 492.10 L 529.70 496.00 L 531.60 500.90 L 532.40 507.70 L 532.30 511.30 L 530.80 518.90 L 528.20 525.60 L 526.30 528.80 L 524.00 532.10 L 521.10 535.30 L 517.90 538.10 L 513.90 540.80 L 509.20 543.30 L 501.50 546.10 L 491.40 548.10 Z M 402.80 620.00 L 402.80 619.90 Z"
					fill="url(#paint12_linear_1515_110877)"
					fill-rule="evenodd"
					node-id="226"
					stroke="none"
					target-height="166.29999"
					target-width="147.50003"
					target-x="384.9"
					target-y="466.5" />
				<path
					d="M 471.60 506.70 L 469.80 505.40 L 468.10 504.90 L 465.50 507.10 L 463.10 508.50 L 460.70 509.30 L 455.90 509.70 L 453.60 509.40 L 450.40 508.30 L 447.50 506.70 L 443.10 503.20 L 441.90 503.30 L 439.50 504.90 L 443.60 508.20 L 447.30 510.50 L 450.60 511.90 L 454.00 512.90 L 457.10 513.20 L 459.90 513.10 L 465.00 511.70 L 467.00 510.60 L 469.70 508.60 L 471.60 506.70 Z"
					fill="#fb955b"
					fill-rule="nonzero"
					node-id="228"
					stroke="none"
					target-height="10"
					target-width="32.100006"
					target-x="439.5"
					target-y="503.2" />
				<path
					d="M 385.00 477.50 L 382.60 479.30 L 380.80 481.30 L 379.60 483.40 L 378.80 485.70 L 378.60 488.00 L 378.80 490.40 L 379.60 492.90 L 381.10 495.50 L 385.90 492.40 L 384.80 490.30 L 384.20 488.40 L 384.40 485.50 L 385.00 484.20 L 387.40 481.90 L 389.20 481.00 L 390.80 480.70 L 392.30 480.80 L 393.60 481.30 L 394.90 482.20 L 396.10 483.70 L 397.00 486.30 L 396.70 489.30 L 395.20 496.70 L 395.20 498.50 L 396.10 501.70 L 397.60 504.30 L 402.60 501.10 L 401.20 498.50 L 400.80 496.70 L 400.80 495.00 L 402.80 486.90 L 402.70 484.70 L 402.10 482.50 L 400.90 480.10 L 399.40 478.20 L 397.70 476.80 L 395.90 475.80 L 393.90 475.30 L 391.70 475.10 L 389.60 475.40 L 387.30 476.20 L 385.00 477.50 Z M 401.70 505.20 L 400.50 506.30 L 399.90 507.70 L 399.90 509.70 L 400.40 510.70 L 401.50 511.80 L 402.90 512.40 L 404.50 512.40 L 406.00 511.80 L 407.10 510.80 L 407.80 509.40 L 407.90 507.80 L 407.30 506.30 L 406.50 505.40 L 404.80 504.50 L 403.20 504.50 L 401.70 505.20 Z"
					fill="url(#paint13_linear_1515_110877)"
					fill-rule="nonzero"
					node-id="230"
					stroke="none"
					target-height="37.30002"
					target-width="29.299988"
					target-x="378.6"
					target-y="475.1" />
			</g>
		</svg>
