		<?xml version="1.0" standalone="no"?>
		<!DOCTYPE svg PUBLIC "-//W3C//DTD SVG 1.1//EN" "http://www.w3.org/Graphics/SVG/1.1/DTD/svg11.dtd">
		<svg
			height="1024"
			node-id="1"
			sillyvg="true"
			template-height="1024"
			template-width="1024"
			version="1.1"
			viewBox="0 0 1024 1024"
			width="1024"
			xmlns="http://www.w3.org/2000/svg"
			xmlns:xlink="http://www.w3.org/1999/xlink">
			<defs node-id="154">
				<linearGradient
					id="linearGradient1"
					gradientUnits="objectBoundingBox"
					node-id="156"
					spreadMethod="pad"
					x1="-0.1358235"
					x2="0.5"
					y1="0.5"
					y2="0.47203198">
					<stop offset="0" stop-color="#98d6fa" />
					<stop offset="1" stop-color="#47b0f1" />
				</linearGradient>
				<linearGradient
					id="linearGradient-1"
					gradientUnits="objectBoundingBox"
					node-id="5"
					spreadMethod="pad"
					x1="-0.1358235"
					x2="0.5"
					y1="0.5"
					y2="0.47203198">
					<stop offset="0" stop-color="#98d6fa" />
					<stop offset="1" stop-color="#47b0f1" />
				</linearGradient>
				<linearGradient
					id="linearGradient-2"
					gradientUnits="objectBoundingBox"
					node-id="8"
					spreadMethod="pad"
					x1="-0.0000000000000009337728"
					x2="1"
					y1="-0.031055901"
					y2="-0.031055901">
					<stop offset="0" stop-color="#fff5de" />
					<stop offset="1" stop-color="#fbd2ac" />
				</linearGradient>
				<linearGradient
					id="linearGradient-3"
					gradientUnits="objectBoundingBox"
					node-id="11"
					spreadMethod="pad"
					x1="-0.1358235"
					x2="0.5"
					y1="0.5"
					y2="0.47628444">
					<stop offset="0" stop-color="#98d6fa" />
					<stop offset="1" stop-color="#47b0f1" />
				</linearGradient>
				<linearGradient
					id="linearGradient2"
					gradientUnits="objectBoundingBox"
					node-id="181"
					spreadMethod="pad"
					x1="-0.1358235"
					x2="0.5"
					y1="0.5"
					y2="0.47629464">
					<stop offset="0" stop-color="#98d6fa" />
					<stop offset="1" stop-color="#47b0f1" />
				</linearGradient>
				<linearGradient
					id="linearGradient-4"
					gradientUnits="objectBoundingBox"
					node-id="14"
					spreadMethod="pad"
					x1="-0.1358235"
					x2="0.5"
					y1="0.5"
					y2="0.47629464">
					<stop offset="0" stop-color="#98d6fa" />
					<stop offset="1" stop-color="#47b0f1" />
				</linearGradient>
				<linearGradient
					id="linearGradient-5"
					gradientUnits="objectBoundingBox"
					node-id="17"
					spreadMethod="pad"
					x1="-0.1358235"
					x2="0.5"
					y1="0.5"
					y2="0.47629884">
					<stop offset="0" stop-color="#98d6fa" />
					<stop offset="1" stop-color="#47b0f1" />
				</linearGradient>
				<linearGradient
					id="linearGradient-6"
					gradientUnits="objectBoundingBox"
					node-id="20"
					spreadMethod="pad"
					x1="-0.1358235"
					x2="0.5"
					y1="0.5"
					y2="0.4342302">
					<stop offset="0" stop-color="#98d6fa" />
					<stop offset="1" stop-color="#47b0f1" />
				</linearGradient>
				<linearGradient
					id="linearGradient3"
					gradientUnits="objectBoundingBox"
					node-id="206"
					spreadMethod="pad"
					x1="0.43139893"
					x2="0.60336566"
					y1="-0.06451613"
					y2="0">
					<stop offset="0.031572677" stop-color="#afdef9" />
					<stop offset="1" stop-color="#7cc9f9" />
				</linearGradient>
				<linearGradient
					id="linearGradient-8"
					gradientUnits="objectBoundingBox"
					node-id="26"
					spreadMethod="pad"
					x1="0.05920258"
					x2="0.5996637"
					y1="0.6085715"
					y2="0.37054223">
					<stop offset="0" stop-color="#98d6fa" />
					<stop offset="1" stop-color="#47b0f1" />
				</linearGradient>
				<linearGradient
					id="linearGradient-9"
					gradientUnits="objectBoundingBox"
					node-id="29"
					spreadMethod="pad"
					x1="0.44492638"
					x2="0.58298296"
					y1="-0.06451613"
					y2="0">
					<stop offset="0.031572677" stop-color="#afdef9" />
					<stop offset="1" stop-color="#7cc9f9" />
				</linearGradient>
				<linearGradient
					id="linearGradient-10"
					gradientUnits="objectBoundingBox"
					node-id="32"
					spreadMethod="pad"
					x1="0.28403884"
					x2="0.5"
					y1="0.8700848"
					y2="0.30481097">
					<stop offset="0" stop-color="#98d6fa" />
					<stop offset="1" stop-color="#47b0f1" />
				</linearGradient>
				<linearGradient
					id="linearGradient-7"
					gradientUnits="objectBoundingBox"
					node-id="23"
					spreadMethod="pad"
					x1="0.43139893"
					x2="0.60336566"
					y1="-0.06451613"
					y2="0">
					<stop offset="0.031572677" stop-color="#afdef9" />
					<stop offset="1" stop-color="#7cc9f9" />
				</linearGradient>
				<linearGradient
					id="linearGradient-11"
					gradientUnits="objectBoundingBox"
					node-id="35"
					spreadMethod="pad"
					x1="0.8017669"
					x2="0.40161258"
					y1="0.7812446"
					y2="0.012035675">
					<stop offset="0" stop-color="#98d6fa" />
					<stop offset="1" stop-color="#47b0f1" />
				</linearGradient>
				<linearGradient
					id="linearGradient-12"
					gradientUnits="objectBoundingBox"
					node-id="38"
					spreadMethod="pad"
					x1="0.1696366"
					x2="0.73110634"
					y1="0.77603304"
					y2="0.27310416">
					<stop offset="0" stop-color="#98d6fa" />
					<stop offset="1" stop-color="#47b0f1" />
				</linearGradient>
				<linearGradient
					id="linearGradient-13"
					gradientUnits="objectBoundingBox"
					node-id="41"
					spreadMethod="pad"
					x1="0"
					x2="0.849776"
					y1="0.6687911"
					y2="0.36125568">
					<stop offset="0" stop-color="#98d6fa" />
					<stop offset="1" stop-color="#47b0f1" />
				</linearGradient>
				<linearGradient
					id="linearGradient-14"
					gradientUnits="objectBoundingBox"
					node-id="44"
					spreadMethod="pad"
					x1="0"
					x2="0.849776"
					y1="0.6436173"
					y2="0.38194832">
					<stop offset="0" stop-color="#98d6fa" />
					<stop offset="1" stop-color="#47b0f1" />
				</linearGradient>
				<linearGradient
					id="linearGradient-15"
					gradientUnits="objectBoundingBox"
					node-id="47"
					spreadMethod="pad"
					x1="0"
					x2="0.849776"
					y1="0.63935465"
					y2="0.38545215">
					<stop offset="0" stop-color="#98d6fa" />
					<stop offset="1" stop-color="#47b0f1" />
				</linearGradient>
				<linearGradient
					id="linearGradient-16"
					gradientUnits="objectBoundingBox"
					node-id="50"
					spreadMethod="pad"
					x1="0.45144162"
					x2="0.526926"
					y1="0.0000000000000071054274"
					y2="1">
					<stop offset="0" stop-color="#98d6fa" />
					<stop offset="1" stop-color="#47b0f1" />
				</linearGradient>
				<linearGradient
					id="linearGradient-17"
					gradientUnits="objectBoundingBox"
					node-id="53"
					spreadMethod="pad"
					x1="0.2747468"
					x2="0.6919694"
					y1="-0.10553608"
					y2="0.40883118">
					<stop offset="0" stop-color="#98d6fa" />
					<stop offset="1" stop-color="#47b0f1" />
				</linearGradient>
				<linearGradient
					id="linearGradient-18"
					gradientUnits="objectBoundingBox"
					node-id="56"
					spreadMethod="pad"
					x1="0.39263394"
					x2="0.7941626"
					y1="0.5"
					y2="0.46243432">
					<stop offset="0" stop-color="#98d6fa" />
					<stop offset="1" stop-color="#47b0f1" />
				</linearGradient>
				<linearGradient
					id="linearGradient-19"
					gradientUnits="objectBoundingBox"
					node-id="59"
					spreadMethod="pad"
					x1="-0.1358235"
					x2="0.771322"
					y1="0.5"
					y2="0.5">
					<stop offset="0" stop-color="#98d6fa" />
					<stop offset="1" stop-color="#47b0f1" />
				</linearGradient>
				<linearGradient
					id="linearGradient-20"
					gradientUnits="objectBoundingBox"
					node-id="62"
					spreadMethod="pad"
					x1="-0.0000000000000035527137"
					x2="1.3908875"
					y1="0.43643898"
					y2="0.7727681">
					<stop offset="0" stop-color="#98d6fa" />
					<stop offset="1" stop-color="#47b0f1" />
				</linearGradient>
				<linearGradient
					id="linearGradient-21"
					gradientUnits="objectBoundingBox"
					node-id="65"
					spreadMethod="pad"
					x1="0.37861472"
					x2="0.5786514"
					y1="1.2691187"
					y2="-1.369798">
					<stop offset="0" stop-color="#98d6fa" stop-opacity="0" />
					<stop offset="1" stop-color="#47b0f1" />
				</linearGradient>
				<linearGradient
					id="linearGradient-22"
					gradientUnits="objectBoundingBox"
					node-id="68"
					spreadMethod="pad"
					x1="0.3467395"
					x2="0.5"
					y1="0"
					y2="1">
					<stop offset="0" stop-color="#98d6fa" />
					<stop offset="1" stop-color="#47b0f1" />
				</linearGradient>
				<linearGradient
					id="linearGradient-23"
					gradientUnits="objectBoundingBox"
					node-id="71"
					spreadMethod="pad"
					x1="0.110933594"
					x2="0.49999997"
					y1="0.87008476"
					y2="0.30481094">
					<stop offset="0" stop-color="#98d6fa" />
					<stop offset="1" stop-color="#47b0f1" />
				</linearGradient>
				<linearGradient
					id="linearGradient-24"
					gradientUnits="objectBoundingBox"
					node-id="74"
					spreadMethod="pad"
					x1="0.110933594"
					x2="0.49999997"
					y1="0.87008476"
					y2="0.30481094">
					<stop offset="0" stop-color="#98d6fa" />
					<stop offset="1" stop-color="#47b0f1" />
				</linearGradient>
				<linearGradient
					id="linearGradient-25"
					gradientUnits="objectBoundingBox"
					node-id="77"
					spreadMethod="pad"
					x1="0.12334964"
					x2="0.49999997"
					y1="0.87008476"
					y2="0.30481094">
					<stop offset="0" stop-color="#98d6fa" />
					<stop offset="1" stop-color="#47b0f1" />
				</linearGradient>
				<linearGradient
					id="linearGradient-26"
					gradientUnits="objectBoundingBox"
					node-id="80"
					spreadMethod="pad"
					x1="0.99999994"
					x2="0"
					y1="-0.11764705"
					y2="-0.11764705">
					<stop offset="0" stop-color="#f5dda7" />
					<stop offset="1" stop-color="#fa9a41" />
				</linearGradient>
				<linearGradient
					id="linearGradient-27"
					gradientUnits="objectBoundingBox"
					node-id="83"
					spreadMethod="pad"
					x1="0.13724977"
					x2="1"
					y1="-0.028050492"
					y2="-0.028050492">
					<stop offset="0" stop-color="#1d181c" />
					<stop offset="0.3" stop-color="#2c2422" />
					<stop offset="0.5" stop-color="#42352c" />
					<stop offset="0.7" stop-color="#57352c" />
					<stop offset="1" stop-color="#923629" />
				</linearGradient>
				<linearGradient
					id="linearGradient-28"
					gradientUnits="objectBoundingBox"
					node-id="89"
					spreadMethod="pad"
					x1="0.13724977"
					x2="1"
					y1="-0.028050492"
					y2="-0.028050492">
					<stop offset="0" stop-color="#1d181c" />
					<stop offset="0.3" stop-color="#2c2422" />
					<stop offset="0.5" stop-color="#42352c" />
					<stop offset="0.7" stop-color="#57352c" />
					<stop offset="1" stop-color="#923629" />
				</linearGradient>
				<linearGradient
					id="linearGradient-29"
					gradientUnits="objectBoundingBox"
					node-id="95"
					spreadMethod="pad"
					x1="0"
					x2="0.9941853"
					y1="-0.029698754"
					y2="-0.029698754">
					<stop offset="0" stop-color="#ffb859" />
					<stop offset="1" stop-color="#f97b61" />
				</linearGradient>
				<linearGradient
					id="linearGradient-30"
					gradientUnits="objectBoundingBox"
					node-id="98"
					spreadMethod="pad"
					x1="0"
					x2="0.9941853"
					y1="-0.029698754"
					y2="-0.029698754">
					<stop offset="0" stop-color="#ffb859" />
					<stop offset="1" stop-color="#f97b61" />
				</linearGradient>
				<linearGradient
					id="linearGradient-31"
					gradientUnits="objectBoundingBox"
					node-id="101"
					spreadMethod="pad"
					x1="0"
					x2="0.9941853"
					y1="-0.029698754"
					y2="-0.029698754">
					<stop offset="0" stop-color="#ffb859" />
					<stop offset="1" stop-color="#f97b61" />
				</linearGradient>
			</defs>
			<g node-id="374">
				<path
					id="矩形"
					d="M 0.00 0.00 L 1024.00 0.00 L 1024.00 1024.00 L 0.00 1024.00 Z"
					fill="#ffffff"
					fill-opacity="0"
					fill-rule="evenodd"
					group-id="1"
					node-id="105"
					stroke="none"
					target-height="1024"
					target-width="1024"
					target-x="0"
					target-y="0" />
			</g>
			<g node-id="375">
				<g node-id="379">
					<path
						id="路径-58"
						d="M 76.80 581.80 L 72.00 559.40 L 67.80 535.60 L 64.20 506.80 L 62.30 480.30 L 62.10 458.20 L 62.40 447.00 L 63.20 435.80 L 64.40 424.60 L 66.10 413.40 L 68.20 402.50 L 70.90 391.90 L 73.40 384.00 L 76.20 376.30 L 79.30 368.90 L 82.80 361.80 L 86.70 354.80 L 91.00 348.20 L 95.70 341.90 L 100.90 335.90 L 106.50 330.30 L 112.60 325.10 L 119.20 320.30 L 126.40 315.90 L 132.30 312.90 L 138.70 310.10 L 145.40 307.60 L 152.70 305.40 L 160.40 303.50 L 178.10 300.10 L 194.90 297.30 L 210.70 295.10 L 226.70 293.30 L 256.00 290.80 L 277.20 289.70 L 333.40 287.30 L 356.00 285.50 L 366.40 284.30 L 376.70 282.70 L 386.60 280.50 L 396.00 278.00 L 402.90 275.70 L 409.70 273.00 L 416.30 270.00 L 422.80 266.50 L 428.90 262.70 L 435.10 258.40 L 441.10 253.50 L 464.00 232.30 L 478.40 220.40 L 490.80 211.80 L 496.90 208.20 L 502.50 205.40 L 507.70 203.20 L 513.00 201.40 L 518.20 200.10 L 528.20 198.70 L 538.70 198.50 L 546.80 199.00 L 575.60 201.60 L 582.90 201.90 L 590.30 201.50 L 597.80 200.60 L 605.20 199.20 L 612.70 197.40 L 620.20 195.20 L 634.70 189.80 L 652.30 181.60 L 662.10 176.40 L 680.00 165.80 L 708.70 147.00 L 721.40 140.80 L 730.30 137.20 L 743.60 132.80 L 759.10 128.80 L 776.30 126.10 L 785.10 125.30 L 794.30 125.00 L 803.80 125.30 L 818.10 126.90 L 832.70 130.20 L 839.90 132.40 L 847.00 135.20 L 854.30 138.60 L 861.50 142.50 L 868.40 146.90 L 875.30 151.90 L 882.20 157.70 L 889.00 164.20 L 894.10 169.60 L 904.10 182.10 L 913.90 197.00 L 922.50 213.10 L 926.70 222.20 L 930.80 232.10 L 938.20 253.20 L 944.60 276.50 L 947.60 289.50 L 950.40 303.50 L 951.90 326.90 L 954.30 374.00 L 955.10 412.60 L 954.60 442.10 L 953.90 456.60 L 952.70 470.50 L 949.70 493.80 L 948.00 503.30 L 943.80 520.80 L 941.10 529.40 L 938.10 537.40 L 934.90 544.90 L 931.30 551.80 L 928.10 557.30 L 924.60 562.30 L 921.00 567.00 L 917.10 571.30 L 907.60 580.30 L 903.20 585.10 L 899.80 589.70 L 897.10 594.00 L 894.80 598.80 L 893.20 603.30 L 892.20 607.60 L 891.80 611.70 L 891.90 616.00 L 892.40 620.00 L 893.40 624.00 L 894.90 627.80 L 898.90 635.00 L 904.30 641.70 L 908.50 645.70 L 913.10 649.40 L 918.10 652.80 L 923.30 655.80 L 928.70 658.40 L 934.10 660.60 L 939.70 662.40 L 945.10 663.80 L 953.50 665.30 L 956.00 666.20 L 958.00 667.40 L 959.50 668.90 L 960.70 670.60 L 961.60 673.10 L 962.00 675.90 L 961.80 679.30 L 961.00 683.40 L 957.90 691.30 L 955.50 695.90 L 952.30 701.00 L 947.80 707.30 L 942.30 714.10 L 935.80 721.30 L 928.80 728.20 L 921.00 735.20 L 912.30 742.40 L 903.30 749.20 L 893.50 755.80 L 883.00 762.30 L 875.00 766.80 L 858.00 775.10 L 843.70 781.10 L 836.30 783.70 L 826.40 786.80 L 810.80 791.10 L 790.70 796.10 L 769.10 800.90 L 743.80 806.00 L 717.30 810.90 L 687.90 815.70 L 657.50 820.10 L 624.90 824.20 L 602.90 826.60 L 556.90 830.60 L 509.90 833.40 L 485.90 834.20 L 461.90 834.60 L 438.00 834.50 L 414.00 834.00 L 390.10 832.90 L 366.50 831.30 L 343.20 829.10 L 325.70 827.10 L 308.60 824.70 L 291.90 821.90 L 275.50 818.80 L 259.10 815.20 L 243.20 811.20 L 227.90 806.80 L 213.00 802.00 L 204.40 798.00 L 196.20 793.60 L 188.40 788.90 L 181.00 783.70 L 173.80 778.20 L 167.00 772.40 L 160.50 766.30 L 154.40 759.90 L 146.60 751.00 L 139.40 741.80 L 132.80 732.30 L 126.60 722.50 L 120.80 712.60 L 115.60 702.60 L 110.70 692.40 L 102.20 672.50 L 96.80 657.60 L 92.20 643.60 L 88.20 629.90 L 82.20 606.10 L 76.80 581.80 Z"
						fill="#47b0f1"
						fill-opacity="0.05"
						fill-rule="nonzero"
						group-id="2,6"
						node-id="107"
						stroke="none"
						target-height="709.6"
						target-width="899.9"
						target-x="62.1"
						target-y="125" />
				</g>
				<g node-id="380">
					<path
						id="形状结合"
						d="M 158.00 329.00 L 161.10 330.60 L 162.30 331.70 L 163.80 334.70 L 164.00 336.50 L 163.70 339.50 L 163.00 341.30 L 161.80 342.80 L 160.30 344.00 L 158.50 344.70 L 156.50 345.00 L 77.50 345.00 L 75.50 344.70 L 73.70 344.00 L 72.20 342.80 L 71.00 341.30 L 70.30 339.50 L 70.00 337.50 L 70.30 334.50 L 71.00 332.70 L 72.20 331.20 L 73.70 330.00 L 75.50 329.30 L 77.50 329.00 L 109.00 329.00 L 110.90 328.70 L 112.50 328.10 L 113.90 327.00 L 115.00 325.70 L 115.70 324.10 L 116.00 322.00 L 115.70 320.10 L 115.10 318.50 L 114.00 317.10 L 112.70 316.00 L 111.10 315.30 L 109.20 315.00 L 106.00 315.00 L 104.30 314.30 L 101.70 312.30 L 100.20 309.30 L 100.00 306.50 L 100.30 304.50 L 101.00 302.70 L 102.20 301.20 L 103.70 300.00 L 105.50 299.30 L 107.50 299.00 L 186.50 299.00 L 188.50 299.30 L 190.30 300.00 L 191.80 301.20 L 193.00 302.70 L 193.70 304.50 L 194.00 307.50 L 193.70 309.50 L 193.00 311.30 L 191.80 312.80 L 190.30 314.00 L 188.50 314.70 L 186.50 315.00 L 155.00 315.00 L 153.10 315.30 L 151.50 315.90 L 150.10 317.00 L 149.00 318.30 L 148.30 319.90 L 148.00 321.80 L 148.30 323.90 L 148.90 325.50 L 150.00 326.90 L 151.30 328.00 L 152.90 328.70 L 154.80 329.00 L 158.00 329.00 Z"
						fill="url(#linearGradient1)"
						fill-opacity="0.1"
						fill-rule="nonzero"
						group-id="2,7"
						node-id="108"
						stroke="none"
						target-height="46"
						target-width="124"
						target-x="70"
						target-y="299" />
				</g>
				<g node-id="381">
					<path
						id="形状结合"
						d="M 858.00 159.00 L 861.10 160.60 L 862.30 161.70 L 863.80 164.70 L 864.00 166.50 L 863.70 169.50 L 863.00 171.30 L 861.80 172.80 L 860.30 174.00 L 858.50 174.70 L 856.50 175.00 L 777.50 175.00 L 775.50 174.70 L 773.70 174.00 L 772.20 172.80 L 771.00 171.30 L 770.30 169.50 L 770.00 167.50 L 770.30 164.50 L 771.00 162.70 L 772.20 161.20 L 773.70 160.00 L 775.50 159.30 L 777.50 159.00 L 809.00 159.00 L 810.90 158.70 L 812.50 158.10 L 813.90 157.00 L 815.00 155.70 L 815.70 154.10 L 816.00 152.00 L 815.70 150.10 L 815.10 148.50 L 814.00 147.10 L 812.70 146.00 L 811.10 145.30 L 809.20 145.00 L 806.00 145.00 L 804.30 144.30 L 801.70 142.30 L 800.20 139.30 L 800.00 136.50 L 800.30 134.50 L 801.00 132.70 L 802.20 131.20 L 803.70 130.00 L 805.50 129.30 L 807.50 129.00 L 886.50 129.00 L 888.50 129.30 L 890.30 130.00 L 891.80 131.20 L 893.00 132.70 L 893.70 134.50 L 894.00 137.50 L 893.70 139.50 L 893.00 141.30 L 891.80 142.80 L 890.30 144.00 L 888.50 144.70 L 886.50 145.00 L 855.00 145.00 L 853.10 145.30 L 851.50 145.90 L 850.10 147.00 L 849.00 148.30 L 848.30 149.90 L 848.00 151.80 L 848.30 153.90 L 848.90 155.50 L 850.00 156.90 L 851.30 158.00 L 852.90 158.70 L 854.80 159.00 L 858.00 159.00 Z"
						fill="url(#linearGradient-1)"
						fill-opacity="0.1"
						fill-rule="nonzero"
						group-id="2,8"
						node-id="109"
						stroke="none"
						target-height="46"
						target-width="124"
						target-x="770"
						target-y="129" />
				</g>
				<path
					id="形状结合"
					d="M 514.50 712.00 L 547.40 712.20 L 579.20 712.90 L 610.10 714.00 L 640.90 715.50 L 670.40 717.30 L 698.60 719.50 L 726.80 722.20 L 753.30 725.20 L 778.10 728.40 L 802.90 732.10 L 825.60 736.00 L 846.30 740.00 L 859.80 740.30 L 872.70 741.10 L 885.10 742.20 L 897.50 743.80 L 909.10 745.70 L 920.00 747.90 L 930.80 750.50 L 940.60 753.40 L 949.40 756.50 L 958.20 760.10 L 965.70 763.80 L 972.20 767.60 L 976.90 770.80 L 980.80 774.10 L 984.10 777.30 L 986.80 780.60 L 989.10 784.20 L 990.70 787.80 L 991.70 791.40 L 992.00 795.00 L 991.70 798.50 L 990.80 802.00 L 989.30 805.50 L 987.10 809.00 L 984.60 812.20 L 981.50 815.30 L 977.70 818.50 L 973.30 821.70 L 967.20 825.40 L 960.00 829.10 L 951.80 832.60 L 943.30 835.70 L 934.00 838.50 L 923.80 841.20 L 913.50 843.50 L 902.40 845.50 L 890.60 847.10 L 863.20 854.20 L 847.50 857.70 L 848.00 864.00 L 847.70 868.40 L 846.90 872.70 L 845.60 877.00 L 843.80 881.30 L 841.30 885.60 L 835.40 893.40 L 827.30 901.40 L 822.40 905.30 L 816.20 909.80 L 809.20 914.20 L 801.40 918.50 L 792.60 922.80 L 784.00 926.60 L 764.50 933.90 L 742.80 940.40 L 719.50 946.00 L 706.80 948.40 L 690.00 951.20 L 672.40 953.60 L 653.80 955.50 L 635.20 956.90 L 615.90 957.70 L 596.00 958.00 L 565.00 957.30 L 550.20 956.50 L 521.10 953.80 L 507.10 952.00 L 480.70 947.60 L 467.60 944.90 L 443.60 938.90 L 421.50 931.80 L 411.30 928.00 L 401.90 924.00 L 393.30 919.90 L 384.60 915.20 L 377.00 910.50 L 370.20 905.80 L 364.40 901.10 L 359.80 896.80 L 355.80 892.60 L 352.50 888.30 L 349.80 884.10 L 347.60 879.90 L 319.60 877.50 L 293.20 874.90 L 268.30 872.00 L 243.40 868.70 L 220.40 865.10 L 199.20 861.40 L 178.00 857.20 L 159.00 852.80 L 142.00 848.40 L 129.10 844.60 L 117.70 840.90 L 107.70 837.10 L 98.80 833.50 L 91.40 830.00 L 85.10 826.50 L 79.80 823.20 L 71.50 816.90 L 68.40 813.70 L 66.00 810.60 L 64.20 807.70 L 63.00 804.80 L 62.30 801.90 L 62.00 799.00 L 62.20 796.20 L 63.00 793.30 L 64.10 790.50 L 65.90 787.60 L 68.20 784.60 L 71.20 781.50 L 74.80 778.40 L 84.30 771.90 L 90.40 768.60 L 106.10 761.50 L 115.80 757.80 L 126.80 754.10 L 139.20 750.40 L 155.60 746.00 L 174.00 741.70 L 194.50 737.50 L 215.00 733.80 L 237.30 730.20 L 261.40 726.90 L 285.50 723.90 L 311.10 721.30 L 338.30 718.80 L 393.70 715.10 L 423.30 713.80 L 483.20 712.20 L 514.50 712.00 Z"
					fill="url(#linearGradient-2)"
					fill-rule="nonzero"
					group-id="2"
					node-id="110"
					stroke="none"
					target-height="246"
					target-width="930"
					target-x="62"
					target-y="712" />
				<g node-id="382">
					<path
						id="路径"
						d="M 686.60 226.60 L 685.00 222.90 L 683.00 219.70 L 680.60 216.80 L 677.80 214.20 L 674.80 212.00 L 671.40 210.10 L 664.30 207.50 L 660.50 206.70 L 656.70 206.30 L 649.20 206.60 L 655.10 203.70 L 658.40 202.60 L 661.90 201.80 L 668.80 201.10 L 672.30 201.30 L 675.60 201.80 L 678.70 202.80 L 681.70 204.20 L 684.30 206.10 L 686.60 208.50 L 688.90 206.20 L 691.60 204.30 L 694.50 202.90 L 697.60 202.00 L 700.90 201.40 L 704.40 201.20 L 711.40 201.90 L 714.80 202.70 L 721.20 205.10 L 724.00 206.70 L 716.60 206.40 L 709.00 207.60 L 701.80 210.30 L 698.50 212.20 L 695.40 214.40 L 692.60 216.90 L 690.20 219.80 L 688.20 223.00 L 686.60 226.60 Z"
						fill="url(#linearGradient-3)"
						fill-rule="nonzero"
						group-id="2,9"
						node-id="112"
						stroke="none"
						target-height="25.5"
						target-width="74.79999"
						target-x="649.2"
						target-y="201.1" />
					<path
						id="路径"
						d="M 770.00 214.10 L 768.90 211.50 L 765.90 207.30 L 763.90 205.50 L 761.00 203.50 L 757.90 201.90 L 754.50 200.80 L 751.00 200.20 L 747.50 200.00 L 744.10 200.20 L 747.10 198.70 L 750.50 197.40 L 754.10 196.70 L 757.70 196.40 L 760.10 196.50 L 764.60 197.60 L 768.40 199.90 L 770.00 201.60 L 771.60 199.90 L 775.50 197.70 L 780.00 196.60 L 782.40 196.50 L 786.00 196.70 L 789.60 197.50 L 793.00 198.70 L 796.00 200.30 L 792.50 200.00 L 789.10 200.30 L 785.50 200.90 L 782.10 202.10 L 779.00 203.60 L 776.10 205.60 L 773.60 208.00 L 771.60 210.80 L 770.00 214.10 Z"
						fill="url(#linearGradient2)"
						fill-rule="nonzero"
						group-id="2,9"
						node-id="113"
						stroke="none"
						target-height="17.700012"
						target-width="51.900024"
						target-x="744.1"
						target-y="196.4" />
					<path
						id="路径"
						d="M 735.20 179.60 L 734.10 177.00 L 731.10 172.80 L 729.10 171.00 L 726.30 169.00 L 723.10 167.50 L 719.70 166.30 L 716.20 165.70 L 712.80 165.50 L 709.30 165.80 L 712.30 164.20 L 715.70 162.90 L 719.30 162.20 L 722.90 161.90 L 725.30 162.00 L 729.80 163.10 L 733.60 165.40 L 735.20 167.10 L 736.90 165.50 L 740.70 163.20 L 745.20 162.10 L 747.60 162.00 L 751.20 162.30 L 754.80 163.00 L 758.20 164.20 L 761.20 165.80 L 757.70 165.60 L 754.30 165.80 L 750.70 166.50 L 747.40 167.60 L 744.20 169.10 L 741.30 171.10 L 738.80 173.50 L 736.80 176.40 L 735.20 179.60 Z"
						fill="url(#linearGradient-4)"
						fill-rule="nonzero"
						group-id="2,9"
						node-id="114"
						stroke="none"
						target-height="17.700012"
						target-width="51.900024"
						target-x="709.3"
						target-y="161.9" />
					<path
						id="路径"
						d="M 840.70 220.10 L 839.60 217.70 L 838.20 215.80 L 834.50 212.70 L 830.00 210.90 L 827.50 210.40 L 822.70 210.40 L 825.60 209.00 L 828.80 208.10 L 831.10 207.80 L 835.40 208.10 L 837.40 208.80 L 839.20 209.90 L 840.70 211.40 L 842.30 209.90 L 844.00 208.90 L 848.20 207.90 L 852.60 208.20 L 855.90 209.10 L 858.70 210.50 L 853.90 210.50 L 851.50 210.90 L 847.00 212.80 L 843.20 215.80 L 841.80 217.80 L 840.70 220.10 Z"
						fill="url(#linearGradient-5)"
						fill-rule="nonzero"
						group-id="2,9"
						node-id="115"
						stroke="none"
						target-height="12.300003"
						target-width="36"
						target-x="822.7"
						target-y="207.8" />
				</g>
				<g node-id="383">
					<g node-id="397">
						<path
							id="路径-61"
							d="M 54.20 676.40 L 46.30 673.20 L 39.60 671.00 L 34.00 669.60 L 29.20 669.10 L 25.20 669.10 L 21.90 669.60 L 19.00 670.60 L 16.60 672.00 L 14.60 673.80 L 12.90 676.10 L 11.50 678.90 L 10.50 682.40 L 9.80 686.70 L 9.70 691.80 L 10.10 698.00 L 11.40 702.80 L 12.80 706.60 L 14.50 709.60 L 16.30 712.00 L 18.30 713.70 L 20.40 715.00 L 26.40 722.60 L 31.10 729.40 L 34.70 735.30 L 37.30 740.50 L 39.10 745.10 L 40.20 749.10 L 41.40 756.80 L 42.60 761.10 L 45.40 766.30 L 47.20 768.70 L 49.40 770.80 L 51.90 772.70 L 54.90 774.20 L 58.00 775.30 L 61.60 776.00 L 65.80 776.30 L 70.00 776.00 L 74.80 775.10 L 84.90 772.40 L 89.00 771.90 L 92.70 772.00 L 96.20 772.70 L 99.40 774.00 L 102.50 775.80 L 105.50 778.30 L 108.30 781.50 L 111.00 785.60 L 113.60 790.60 L 116.00 796.80 L 118.20 804.30 L 122.60 809.50 L 127.30 814.30 L 132.50 818.70 L 138.10 822.70 L 144.20 826.20 L 150.80 829.30 L 157.90 832.10 L 165.60 834.30 L 174.00 836.10 L 183.00 837.50 L 192.80 838.30 L 203.40 838.50 L 214.90 838.20 L 227.40 837.10 L 236.50 835.90 L 243.80 834.30 L 249.60 832.60 L 254.10 830.60 L 257.60 828.50 L 260.10 826.40 L 262.00 824.10 L 263.20 821.70 L 263.90 819.10 L 264.00 816.20 L 263.50 813.10 L 262.30 809.50 L 260.30 805.50 L 257.20 800.80 L 252.80 795.40 L 246.90 789.30 L 239.30 782.30 L 229.50 774.30 L 217.40 765.20 L 204.80 760.40 L 194.80 757.00 L 178.50 752.80 L 176.50 751.70 L 174.60 750.20 L 173.00 748.10 L 171.50 745.50 L 170.30 742.10 L 169.30 737.80 L 168.70 732.50 L 168.30 722.70 L 167.60 719.80 L 166.30 716.90 L 164.60 714.30 L 162.30 711.80 L 159.40 709.30 L 155.70 707.00 L 151.10 704.90 L 140.10 700.80 L 135.70 698.60 L 132.30 696.30 L 129.80 693.90 L 127.90 691.40 L 126.70 688.80 L 126.00 686.00 L 125.90 683.00 L 126.40 679.70 L 123.30 675.60 L 120.20 672.40 L 117.20 670.00 L 114.20 668.30 L 111.20 667.20 L 108.10 666.70 L 104.90 666.70 L 101.60 667.30 L 98.00 668.60 L 94.20 670.50 L 85.40 676.60 L 81.00 679.00 L 77.00 680.70 L 73.20 681.70 L 69.70 682.20 L 66.40 682.10 L 63.20 681.50 L 60.20 680.30 L 57.10 678.70 L 54.20 676.40 Z"
							fill="url(#linearGradient-6)"
							fill-rule="nonzero"
							group-id="2,10,24"
							node-id="117"
							stroke="none"
							target-height="171.79999"
							target-width="254.3"
							target-x="9.7"
							target-y="666.7" />
					</g>
					<g node-id="398">
						<path
							id="形状结合"
							d="M 52.60 691.50 L 100.90 723.70 L 98.80 713.80 L 96.60 705.40 L 94.40 698.30 L 91.10 689.70 L 95.50 699.40 L 98.90 708.20 L 101.70 717.30 L 102.60 721.60 L 102.90 725.00 L 143.10 751.90 L 143.60 731.40 L 143.20 724.50 L 142.50 719.30 L 141.70 715.50 L 143.30 720.10 L 144.00 723.60 L 145.70 737.50 L 146.10 746.60 L 145.60 753.60 L 182.70 778.30 L 182.30 777.90 L 183.10 769.80 L 183.20 762.80 L 182.50 756.40 L 183.70 760.00 L 184.50 766.40 L 184.90 773.70 L 184.80 779.80 L 215.40 800.10 L 211.50 804.00 L 180.00 781.70 L 174.00 784.40 L 165.90 786.40 L 161.40 786.90 L 154.10 786.90 L 160.70 786.10 L 166.20 784.90 L 170.60 783.40 L 174.20 781.70 L 177.00 779.80 L 179.50 781.30 L 90.70 718.50 L 91.30 719.10 L 84.50 719.90 L 78.10 720.10 L 72.10 719.90 L 66.40 719.30 L 61.00 718.20 L 55.80 716.80 L 57.00 716.50 L 65.80 718.00 L 70.40 718.50 L 76.10 718.80 L 84.30 718.10 L 88.90 717.20 L 52.60 691.50 Z M 94.00 768.40 L 98.00 768.20 L 102.50 767.40 L 107.50 765.90 L 113.20 763.60 L 119.70 760.20 L 126.90 755.80 L 135.10 750.10 L 137.40 752.30 L 131.90 756.30 L 126.50 759.70 L 121.30 762.40 L 115.90 764.80 L 110.90 766.50 L 106.20 767.70 L 101.50 768.40 L 97.40 768.60 L 94.00 768.40 Z"
							fill="url(#linearGradient3)"
							fill-rule="nonzero"
							group-id="2,10,25"
							node-id="118"
							stroke="none"
							target-height="114.29999"
							target-width="162.79999"
							target-x="52.6"
							target-y="689.7" />
					</g>
					<path
						id="路径-65"
						d="M 89.60 607.30 L 82.10 602.50 L 75.80 599.00 L 70.40 596.60 L 65.80 595.10 L 61.90 594.30 L 58.70 594.20 L 55.90 594.50 L 53.50 595.30 L 51.40 596.50 L 49.50 598.20 L 48.00 600.50 L 46.60 603.30 L 45.60 606.90 L 44.90 611.40 L 44.60 616.90 L 44.80 623.80 L 50.10 645.00 L 52.00 654.30 L 53.20 662.40 L 53.50 667.70 L 53.50 672.80 L 52.70 680.50 L 52.90 687.50 L 54.40 695.10 L 57.40 703.20 L 59.50 707.20 L 62.20 711.20 L 65.20 714.90 L 68.90 718.60 L 73.20 722.10 L 80.40 726.60 L 84.80 728.60 L 95.70 732.90 L 100.50 735.30 L 104.30 737.70 L 107.10 740.10 L 109.20 742.60 L 110.70 745.00 L 111.60 747.40 L 112.00 750.00 L 111.80 752.70 L 111.10 755.60 L 109.80 758.80 L 107.70 762.30 L 107.20 765.70 L 107.20 769.00 L 107.80 772.10 L 109.00 775.20 L 110.70 778.20 L 113.00 781.20 L 116.20 784.20 L 120.20 787.20 L 125.20 790.30 L 131.30 793.30 L 138.80 796.30 L 147.80 799.30 L 158.50 802.20 L 171.10 805.00 L 185.90 807.70 L 198.10 809.40 L 208.20 810.50 L 216.30 810.90 L 227.90 810.60 L 235.60 809.40 L 239.20 808.20 L 241.90 806.80 L 244.00 805.30 L 245.60 803.70 L 246.80 801.80 L 247.60 799.70 L 248.10 797.40 L 248.10 794.80 L 247.60 791.40 L 246.60 787.50 L 245.00 783.30 L 241.90 776.90 L 238.00 769.90 L 229.00 755.50 L 223.50 749.60 L 219.50 744.60 L 217.20 741.20 L 214.00 735.30 L 212.50 730.80 L 211.60 726.60 L 211.10 722.30 L 211.20 714.70 L 212.80 703.80 L 212.90 700.00 L 212.60 696.20 L 211.10 691.40 L 209.70 689.00 L 207.90 686.80 L 205.60 684.70 L 202.40 682.60 L 199.00 680.80 L 194.70 679.20 L 185.70 676.50 L 182.50 675.00 L 179.60 673.00 L 177.00 670.50 L 174.60 667.50 L 172.40 664.00 L 170.50 659.70 L 168.90 654.60 L 167.60 648.70 L 166.60 641.70 L 166.20 633.60 L 165.40 630.60 L 164.10 628.00 L 162.50 625.90 L 160.40 624.10 L 157.80 622.60 L 154.50 621.50 L 150.60 620.80 L 145.70 620.50 L 139.80 620.90 L 132.70 621.90 L 124.20 623.80 L 120.60 624.20 L 117.10 624.20 L 113.50 623.60 L 109.80 622.50 L 106.10 620.90 L 102.20 618.60 L 98.20 615.60 L 94.00 611.90 L 89.60 607.30 Z"
						fill="url(#linearGradient-8)"
						fill-rule="nonzero"
						group-id="2,10"
						node-id="119"
						stroke="none"
						target-height="216.70001"
						target-width="203.5"
						target-x="44.6"
						target-y="594.2" />
					<g node-id="399">
						<path
							id="形状结合"
							d="M 74.90 624.70 L 110.40 669.80 L 112.10 664.90 L 113.30 660.20 L 113.90 655.50 L 114.10 650.80 L 113.70 646.10 L 112.70 641.00 L 115.50 650.00 L 116.10 653.60 L 116.20 657.40 L 115.70 661.90 L 115.00 664.80 L 112.10 672.00 L 142.10 710.20 L 144.90 705.70 L 147.10 701.00 L 148.90 695.80 L 150.20 690.00 L 151.00 683.60 L 151.30 676.50 L 152.00 682.20 L 151.90 686.40 L 151.50 691.60 L 150.50 696.90 L 149.10 702.50 L 147.70 706.10 L 144.10 712.70 L 170.80 746.60 L 173.00 742.50 L 175.50 736.20 L 176.30 732.50 L 176.60 728.40 L 177.10 734.60 L 176.80 738.00 L 175.30 744.10 L 172.70 749.10 L 212.00 799.00 L 205.80 799.00 L 167.80 748.40 L 159.10 751.60 L 150.20 753.20 L 145.90 753.40 L 142.00 753.10 L 138.90 752.40 L 134.00 750.70 L 138.20 751.50 L 142.40 751.80 L 146.80 751.60 L 151.20 750.90 L 155.90 749.80 L 160.70 748.00 L 165.70 745.70 L 136.90 707.20 L 137.40 708.10 L 130.10 710.40 L 123.00 712.10 L 115.90 713.20 L 109.40 713.80 L 103.10 713.90 L 97.70 713.40 L 94.30 712.80 L 89.00 710.90 L 92.30 711.90 L 96.10 712.50 L 100.60 712.70 L 105.80 712.50 L 111.80 711.80 L 118.70 710.40 L 126.80 708.30 L 136.00 705.30 L 135.50 705.50 L 103.40 662.60 L 103.60 663.10 L 98.20 663.20 L 93.20 662.70 L 88.60 661.80 L 84.30 660.30 L 80.30 658.40 L 76.60 656.00 L 73.00 653.10 L 69.70 649.70 L 70.20 649.60 L 71.50 650.40 L 78.00 654.90 L 81.50 656.70 L 85.40 658.30 L 93.70 660.30 L 101.90 660.60 L 74.90 624.70 Z"
							fill="url(#linearGradient-9)"
							fill-rule="nonzero"
							group-id="2,10,26"
							node-id="120"
							stroke="none"
							target-height="174.29999"
							target-width="142.3"
							target-x="69.7"
							target-y="624.7" />
					</g>
					<path
						id="路径-96"
						d="M 199.20 608.80 L 202.80 604.30 L 206.00 601.10 L 208.90 599.00 L 211.60 597.70 L 214.20 597.10 L 216.60 597.10 L 219.00 597.70 L 221.50 599.00 L 224.00 601.10 L 226.70 604.10 L 229.60 608.30 L 232.60 614.00 L 233.70 619.30 L 235.70 635.20 L 237.40 640.00 L 238.80 642.10 L 240.60 644.10 L 243.10 646.20 L 245.90 647.90 L 249.60 649.70 L 258.50 653.10 L 261.70 654.90 L 264.20 656.80 L 266.10 658.90 L 267.50 661.10 L 268.40 663.60 L 268.80 666.20 L 268.80 669.20 L 268.10 672.50 L 266.80 676.30 L 264.80 680.70 L 261.80 685.70 L 260.40 689.50 L 259.80 692.70 L 259.80 695.50 L 260.40 697.90 L 261.50 700.10 L 263.10 702.00 L 265.30 703.70 L 268.40 705.30 L 275.10 707.50 L 277.10 708.80 L 278.60 710.30 L 279.60 712.10 L 280.20 714.30 L 280.30 716.90 L 279.80 720.20 L 278.50 724.30 L 276.30 729.30 L 272.90 735.40 L 268.10 742.80 L 265.90 748.50 L 264.70 753.10 L 264.30 756.80 L 264.50 759.90 L 265.30 762.30 L 266.40 764.30 L 270.50 768.00 L 274.90 773.10 L 278.10 778.90 L 279.30 782.20 L 280.30 785.90 L 280.90 790.20 L 281.00 794.50 L 280.60 799.30 L 279.60 804.90 L 278.10 810.30 L 275.70 816.40 L 272.40 823.40 L 270.30 826.90 L 265.70 832.40 L 263.30 834.50 L 259.80 836.80 L 256.10 838.40 L 252.40 839.40 L 248.50 839.90 L 244.50 839.90 L 240.50 839.40 L 236.60 838.50 L 228.90 835.70 L 223.40 832.90 L 218.40 829.60 L 213.90 825.90 L 210.30 822.30 L 208.20 819.60 L 205.60 815.00 L 204.60 811.70 L 203.90 808.30 L 203.70 804.80 L 204.00 799.40 L 207.20 778.30 L 207.40 773.70 L 207.20 770.80 L 206.60 768.30 L 205.60 766.00 L 202.50 762.60 L 200.20 760.90 L 187.20 753.40 L 179.80 748.20 L 174.90 742.90 L 173.00 739.90 L 171.60 736.50 L 170.60 732.60 L 170.30 729.70 L 171.00 722.70 L 172.00 718.50 L 179.60 708.10 L 183.00 703.00 L 184.70 698.50 L 185.00 693.20 L 183.80 686.80 L 182.30 682.90 L 177.40 673.00 L 170.90 661.70 L 170.50 660.10 L 170.50 658.40 L 171.20 656.40 L 174.40 651.00 L 180.20 642.10 L 183.50 638.30 L 187.00 633.30 L 190.80 626.90 L 194.90 618.80 L 199.20 608.80 Z"
						fill="url(#linearGradient-10)"
						fill-rule="nonzero"
						group-id="2,10"
						node-id="121"
						stroke="none"
						target-height="242.80005"
						target-width="110.7"
						target-x="170.3"
						target-y="597.1" />
					<path
						id="形状结合"
						d="M 216.10 638.50 L 227.50 695.40 L 233.00 686.90 L 237.40 679.40 L 240.80 672.80 L 244.60 664.50 L 240.80 674.40 L 237.00 683.00 L 232.50 691.40 L 230.10 695.10 L 227.90 697.80 L 237.40 745.20 L 252.20 731.00 L 256.80 725.90 L 260.00 721.80 L 262.10 718.50 L 260.00 722.80 L 258.00 725.80 L 249.40 736.80 L 243.20 743.60 L 238.00 748.20 L 246.70 791.80 L 246.70 791.30 L 252.90 786.10 L 258.00 781.30 L 262.10 776.30 L 260.30 779.60 L 256.40 784.70 L 251.50 790.20 L 247.20 794.40 L 254.40 830.40 L 248.90 830.40 L 242.40 792.30 L 236.20 790.00 L 229.10 785.70 L 225.60 782.90 L 220.40 777.80 L 225.70 781.80 L 230.30 784.80 L 234.50 786.90 L 238.30 788.20 L 241.70 788.90 L 242.30 791.80 L 224.00 684.50 L 223.90 685.40 L 218.60 681.10 L 213.90 676.80 L 209.80 672.40 L 206.20 667.90 L 203.10 663.30 L 200.50 658.60 L 201.50 659.20 L 206.70 666.60 L 209.60 670.20 L 213.50 674.40 L 219.70 679.70 L 223.60 682.30 L 216.10 638.50 Z M 191.00 722.10 L 193.90 724.80 L 197.70 727.40 L 202.30 729.90 L 208.00 732.30 L 214.90 734.50 L 223.20 736.50 L 233.00 738.30 L 233.00 741.40 L 226.30 740.40 L 220.10 738.90 L 214.50 737.20 L 209.00 735.00 L 204.20 732.70 L 200.10 730.30 L 196.30 727.50 L 193.30 724.70 L 191.00 722.10 Z"
						fill="url(#linearGradient-7)"
						fill-rule="nonzero"
						group-id="2,10"
						node-id="122"
						stroke="none"
						target-height="191.90002"
						target-width="71.100006"
						target-x="191"
						target-y="638.5" />
				</g>
				<g node-id="384">
					<path
						id="路径-38"
						d="M 938.40 787.50 L 938.90 781.40 L 938.90 776.10 L 938.40 771.50 L 937.50 767.50 L 936.20 764.20 L 934.50 761.20 L 932.50 758.70 L 930.20 756.60 L 927.40 754.80 L 924.10 753.40 L 920.40 752.30 L 916.00 751.60 L 921.00 751.40 L 925.50 751.60 L 929.70 752.30 L 933.60 753.30 L 937.10 754.70 L 940.60 756.50 L 943.70 758.70 L 946.50 761.20 L 949.00 764.00 L 951.20 767.30 L 952.90 770.60 L 954.30 774.30 L 955.40 778.30 L 956.10 782.70 L 956.40 787.50 L 938.40 787.50 Z"
						fill="url(#linearGradient-11)"
						fill-rule="nonzero"
						group-id="2,11"
						node-id="124"
						stroke="none"
						target-height="36.099976"
						target-width="40.400024"
						target-x="916"
						target-y="751.4" />
					<path
						id="路径-39"
						d="M 950.10 787.60 L 951.20 781.20 L 951.70 775.20 L 951.60 769.80 L 951.00 764.70 L 949.80 760.10 L 948.20 755.70 L 946.20 751.70 L 943.60 747.90 L 940.60 744.40 L 936.90 741.10 L 932.70 738.00 L 937.90 739.70 L 947.20 743.90 L 951.40 746.40 L 955.40 749.40 L 959.00 752.80 L 963.80 758.90 L 965.90 762.60 L 969.50 771.00 L 972.30 781.40 L 973.40 787.60 L 959.30 788.00 L 950.10 787.60 Z"
						fill="url(#linearGradient-12)"
						fill-rule="nonzero"
						group-id="2,11"
						node-id="125"
						stroke="none"
						target-height="50"
						target-width="40.700012"
						target-x="932.7"
						target-y="738" />
					<path
						id="路径-40"
						d="M 977.10 788.00 L 976.70 781.70 L 977.00 776.30 L 977.80 771.60 L 979.00 767.50 L 980.60 763.90 L 982.70 760.80 L 985.10 758.20 L 988.00 755.90 L 991.40 754.00 L 995.40 752.50 L 1000.00 751.40 L 990.20 751.40 L 986.90 751.70 L 980.20 753.10 L 977.00 754.40 L 973.80 756.20 L 970.50 758.50 L 967.50 761.30 L 964.50 764.90 L 961.30 769.50 L 958.60 774.40 L 955.90 780.50 L 953.10 788.00 L 968.30 787.70 L 977.10 788.00 Z"
						fill="url(#linearGradient-13)"
						fill-rule="nonzero"
						group-id="2,11"
						node-id="126"
						stroke="none"
						target-height="36.599976"
						target-width="46.900024"
						target-x="953.1"
						target-y="751.4" />
					<path
						id="椭圆形"
						d="M 927.40 802.00 L 942.70 801.50 L 948.50 800.20 L 951.00 799.10 L 953.10 797.60 L 954.70 795.70 L 955.70 794.10 L 956.80 789.60 L 957.00 786.60 L 956.70 782.70 L 955.90 779.00 L 954.60 775.50 L 952.80 772.20 L 950.70 769.10 L 948.10 766.40 L 945.10 764.00 L 941.90 761.90 L 938.40 760.20 L 934.60 759.00 L 930.70 758.30 L 926.50 758.00 L 922.30 758.30 L 918.40 759.00 L 914.60 760.20 L 911.10 761.90 L 907.90 764.00 L 904.90 766.40 L 902.30 769.10 L 900.20 772.20 L 898.40 775.50 L 897.10 779.00 L 896.30 782.70 L 896.00 786.60 L 896.20 789.60 L 897.50 794.00 L 898.50 795.70 L 900.40 797.60 L 902.60 799.10 L 905.40 800.20 L 911.60 801.50 L 927.40 802.00 Z"
						fill="url(#linearGradient-14)"
						fill-rule="nonzero"
						group-id="2,11"
						node-id="127"
						stroke="none"
						target-height="44"
						target-width="61"
						target-x="896"
						target-y="758" />
					<path
						id="椭圆形备份-6"
						d="M 960.60 802.00 L 971.10 801.60 L 975.30 800.20 L 977.60 798.10 L 978.30 796.70 L 979.00 792.60 L 978.70 789.40 L 977.80 786.40 L 976.40 783.70 L 974.50 781.20 L 972.30 779.20 L 969.60 777.40 L 966.70 776.10 L 963.50 775.30 L 960.00 775.00 L 956.50 775.30 L 953.30 776.10 L 950.40 777.40 L 947.70 779.20 L 945.50 781.20 L 943.60 783.70 L 942.20 786.40 L 941.30 789.40 L 941.00 792.60 L 941.20 794.90 L 941.80 796.70 L 942.60 798.10 L 945.10 800.20 L 949.70 801.60 L 960.60 802.00 Z"
						fill="url(#linearGradient-15)"
						fill-rule="nonzero"
						group-id="2,11"
						node-id="128"
						stroke="none"
						target-height="27"
						target-width="38"
						target-x="941"
						target-y="775" />
				</g>
			</g>
			<g node-id="376">
				<g node-id="385">
					<path
						id="路径"
						d="M 285.20 63.20 L 296.10 59.20 L 326.80 126.90 L 305.10 134.80 Z"
						fill="url(#linearGradient-16)"
						fill-rule="nonzero"
						group-id="3,12"
						node-id="130"
						stroke="none"
						target-height="75.600006"
						target-width="41.599976"
						target-x="285.2"
						target-y="59.2" />
				</g>
				<g node-id="386">
					<path
						id="矩形"
						d="M 307.50 107.60 L 313.90 105.60 L 320.30 104.10 L 326.60 103.20 L 332.90 102.70 L 339.30 102.80 L 345.50 103.40 L 351.70 104.40 L 357.70 105.90 L 363.60 107.90 L 369.30 110.30 L 374.80 113.10 L 380.10 116.40 L 385.20 120.00 L 389.90 124.10 L 394.30 128.50 L 398.50 133.30 L 402.20 138.40 L 405.60 143.90 L 408.50 149.70 L 411.10 155.90 L 417.00 172.90 L 418.40 179.20 L 419.40 185.60 L 419.80 191.90 L 419.70 198.20 L 419.20 204.50 L 418.10 210.60 L 416.60 216.60 L 414.60 222.60 L 412.20 228.30 L 409.40 233.70 L 406.20 239.10 L 402.50 244.10 L 398.50 248.80 L 394.10 253.30 L 389.20 257.40 L 384.10 261.20 L 378.70 264.50 L 372.90 267.50 L 366.60 270.00 L 360.20 272.10 L 353.90 273.50 L 347.60 274.50 L 341.20 274.90 L 334.90 274.80 L 328.60 274.30 L 322.50 273.20 L 316.50 271.70 L 310.60 269.70 L 304.90 267.30 L 299.40 264.50 L 294.10 261.20 L 289.00 257.60 L 284.30 253.60 L 279.80 249.20 L 275.70 244.30 L 271.90 239.20 L 268.60 233.80 L 265.60 227.90 L 263.10 221.70 L 257.20 204.80 L 255.70 198.40 L 254.80 192.10 L 254.40 185.80 L 254.50 179.40 L 255.00 173.20 L 256.10 167.00 L 257.60 161.00 L 259.50 155.10 L 261.90 149.40 L 264.80 143.90 L 268.00 138.60 L 271.70 133.50 L 275.70 128.80 L 280.10 124.40 L 284.90 120.20 L 290.00 116.50 L 295.50 113.10 L 301.30 110.20 L 307.50 107.60 Z"
						fill="url(#linearGradient-17)"
						fill-rule="nonzero"
						group-id="3,13"
						node-id="131"
						stroke="none"
						target-height="172.2"
						target-width="165.4"
						target-x="254.4"
						target-y="102.7" />
				</g>
				<g node-id="387">
					<path
						id="椭圆形"
						d="M 512.40 155.50 L 513.60 159.40 L 514.20 163.40 L 514.40 167.50 L 514.10 171.70 L 513.40 176.10 L 511.90 181.40 L 509.70 186.90 L 506.70 192.70 L 503.00 198.70 L 499.00 204.30 L 494.30 210.10 L 488.90 216.00 L 482.70 222.10 L 469.50 233.40 L 462.00 239.20 L 453.70 245.00 L 436.70 255.70 L 417.40 266.10 L 404.10 272.50 L 390.00 278.60 L 375.10 284.30 L 360.00 289.50 L 345.30 293.90 L 330.90 297.60 L 309.50 302.00 L 289.50 304.70 L 279.50 305.60 L 270.00 306.00 L 252.60 305.80 L 244.00 305.10 L 236.00 304.10 L 228.80 302.70 L 222.10 301.00 L 215.30 298.80 L 209.40 296.20 L 204.20 293.40 L 199.60 290.30 L 196.20 287.40 L 193.20 284.40 L 190.70 281.10 L 188.70 277.60 L 187.10 273.90 L 185.90 270.10 L 185.30 266.10 L 185.10 262.00 L 185.40 257.80 L 186.10 253.30 L 187.70 248.00 L 189.80 242.50 L 192.80 236.80 L 196.50 230.70 L 200.50 225.10 L 205.20 219.40 L 210.60 213.50 L 216.80 207.40 L 230.00 196.00 L 237.50 190.30 L 245.80 184.50 L 262.80 173.80 L 282.10 163.40 L 295.40 157.00 L 309.50 150.90 L 324.40 145.10 L 339.50 140.00 L 354.20 135.60 L 368.60 131.90 L 390.00 127.50 L 410.00 124.70 L 420.00 123.90 L 429.50 123.40 L 446.90 123.60 L 455.50 124.30 L 463.50 125.40 L 470.80 126.80 L 477.40 128.50 L 484.20 130.70 L 490.10 133.20 L 495.30 136.00 L 499.90 139.10 L 503.30 142.00 L 506.30 145.10 L 508.80 148.40 L 510.80 151.80 L 512.40 155.50 Z"
						fill="url(#linearGradient-18)"
						fill-rule="nonzero"
						group-id="3,14"
						node-id="132"
						stroke="none"
						target-height="182.6"
						target-width="329.30002"
						target-x="185.1"
						target-y="123.4" />
				</g>
				<g node-id="388">
					<path
						id="椭圆形备份"
						d="M 512.40 164.40 L 513.60 168.30 L 514.20 172.20 L 514.40 176.30 L 514.10 180.60 L 513.40 185.00 L 511.90 190.30 L 509.70 195.80 L 506.70 201.60 L 503.00 207.60 L 499.00 213.20 L 494.30 219.00 L 488.90 224.90 L 482.70 231.00 L 469.50 242.30 L 462.00 248.10 L 453.70 253.80 L 436.70 264.60 L 417.40 275.00 L 404.10 281.40 L 390.00 287.50 L 375.10 293.20 L 360.00 298.40 L 345.30 302.80 L 330.90 306.50 L 309.50 310.90 L 289.50 313.60 L 279.50 314.50 L 270.00 314.90 L 252.60 314.70 L 244.00 314.00 L 236.00 313.00 L 228.80 311.60 L 222.10 309.90 L 215.30 307.70 L 209.40 305.10 L 204.20 302.30 L 199.60 299.20 L 196.20 296.30 L 193.20 293.30 L 190.70 290.00 L 188.70 286.50 L 187.10 282.80 L 185.90 279.00 L 185.30 275.00 L 185.10 270.90 L 185.40 266.70 L 186.10 262.20 L 187.70 256.90 L 189.80 251.40 L 192.80 245.70 L 196.50 239.60 L 200.50 234.00 L 205.20 228.30 L 210.60 222.40 L 216.80 216.30 L 230.00 204.90 L 237.50 199.20 L 245.80 193.40 L 262.80 182.70 L 282.10 172.20 L 295.40 165.90 L 309.50 159.80 L 324.40 154.00 L 339.50 148.80 L 354.20 144.40 L 368.60 140.80 L 390.00 136.40 L 410.00 133.60 L 420.00 132.80 L 429.50 132.30 L 446.90 132.50 L 455.50 133.20 L 463.50 134.30 L 470.80 135.70 L 477.40 137.40 L 484.20 139.60 L 490.10 142.10 L 495.30 144.90 L 499.90 148.00 L 503.30 150.90 L 506.30 154.00 L 508.80 157.30 L 510.80 160.70 L 512.40 164.40 Z"
						fill="url(#linearGradient-19)"
						fill-rule="nonzero"
						group-id="3,15"
						node-id="133"
						stroke="none"
						target-height="182.59999"
						target-width="329.30002"
						target-x="185.1"
						target-y="132.3" />
				</g>
				<g node-id="389">
					<path
						id="椭圆形"
						d="M 449.50 193.90 L 450.20 196.80 L 450.30 199.80 L 449.70 203.10 L 448.50 206.70 L 446.90 210.00 L 444.60 213.50 L 441.70 217.30 L 438.10 221.30 L 433.00 226.20 L 427.00 231.20 L 419.70 236.50 L 412.30 241.40 L 404.00 246.30 L 394.70 251.20 L 385.30 255.70 L 375.30 260.10 L 364.50 264.20 L 353.60 268.00 L 343.10 271.10 L 333.00 273.70 L 322.80 275.90 L 313.30 277.40 L 304.40 278.50 L 295.50 279.10 L 287.60 279.10 L 280.60 278.70 L 275.20 277.90 L 270.60 276.90 L 263.20 274.10 L 260.00 272.20 L 257.50 270.00 L 255.60 267.60 L 254.20 265.00 L 253.60 262.10 L 253.50 259.00 L 254.00 255.70 L 255.20 252.10 L 259.10 245.30 L 262.00 241.60 L 265.60 237.50 L 270.70 232.70 L 276.80 227.60 L 284.00 222.30 L 291.40 217.40 L 299.80 212.50 L 309.00 207.60 L 318.40 203.10 L 328.40 198.80 L 339.20 194.60 L 350.10 190.90 L 360.60 187.80 L 370.70 185.20 L 380.90 183.00 L 390.40 181.40 L 399.30 180.40 L 408.20 179.80 L 416.10 179.70 L 423.20 180.20 L 428.50 180.90 L 433.10 182.00 L 437.10 183.20 L 440.50 184.70 L 443.80 186.70 L 446.30 188.80 L 448.20 191.20 L 449.50 193.90 Z"
						fill="url(#linearGradient-20)"
						fill-rule="nonzero"
						group-id="3,16"
						node-id="134"
						stroke="none"
						target-height="99.40001"
						target-width="196.79999"
						target-x="253.5"
						target-y="179.7" />
				</g>
				<g node-id="390">
					<path
						id="路径"
						d="M 252.10 259.20 L 447.40 188.10 L 895.00 744.60 L 314.30 913.00 Z"
						fill="url(#linearGradient-21)"
						fill-opacity="0.3"
						fill-rule="nonzero"
						group-id="3,17"
						node-id="135"
						stroke="none"
						target-height="724.9"
						target-width="642.9"
						target-x="252.1"
						target-y="188.1" />
				</g>
				<g node-id="391">
					<path
						id="椭圆形"
						d="M 298.40 58.40 L 299.00 60.70 L 298.90 63.00 L 298.30 65.10 L 297.20 67.00 L 295.70 68.50 L 293.70 69.60 L 291.50 70.00 L 289.30 69.90 L 287.30 69.10 L 285.40 67.90 L 283.90 66.20 L 282.80 64.00 L 282.30 61.70 L 282.40 59.40 L 283.00 57.30 L 284.10 55.40 L 285.60 53.90 L 287.60 52.90 L 289.80 52.40 L 292.00 52.60 L 294.00 53.30 L 295.80 54.50 L 297.30 56.20 L 298.40 58.40 Z"
						fill="url(#linearGradient-22)"
						fill-rule="nonzero"
						group-id="3,18"
						node-id="136"
						stroke="none"
						target-height="17.599998"
						target-width="16.700012"
						target-x="282.3"
						target-y="52.4" />
				</g>
				<g node-id="392">
					<path
						id="4"
						d="M 381.10 406.50 L 389.50 374.90 L 400.10 377.70 L 404.40 361.40 L 393.90 358.60 L 414.90 280.10 L 397.60 275.50 L 376.60 353.90 L 352.40 347.50 L 350.60 346.80 L 348.10 344.80 L 347.10 343.00 L 346.70 341.20 L 346.90 339.50 L 377.20 270.00 L 360.00 265.40 L 328.50 336.70 L 327.30 340.00 L 326.60 343.60 L 326.60 346.70 L 327.10 349.40 L 328.40 352.50 L 329.90 355.10 L 331.70 357.30 L 333.70 359.00 L 336.20 360.40 L 338.90 361.30 L 372.20 370.30 L 363.70 401.90 L 381.10 406.50 Z"
						fill="url(#linearGradient-23)"
						fill-rule="nonzero"
						group-id="3,19"
						node-id="137"
						stroke="none"
						target-height="141.1"
						target-width="88.29999"
						target-x="326.6"
						target-y="265.4" />
				</g>
				<g node-id="393">
					<path
						id="4"
						d="M 457.70 621.60 L 450.20 593.60 L 459.50 591.10 L 455.60 576.70 L 446.30 579.20 L 427.70 509.70 L 412.40 513.80 L 431.00 583.30 L 407.90 589.30 L 405.10 588.90 L 403.50 587.90 L 402.40 586.80 L 401.80 585.30 L 401.30 581.80 L 394.30 518.60 L 379.10 522.70 L 386.40 591.40 L 387.00 594.30 L 388.10 597.50 L 389.50 599.90 L 391.00 601.70 L 393.80 603.80 L 396.60 605.30 L 399.40 606.00 L 402.30 606.10 L 405.40 605.60 L 434.90 597.70 L 442.40 625.80 L 457.70 621.60 Z"
						fill="url(#linearGradient-24)"
						fill-rule="nonzero"
						group-id="3,20"
						node-id="138"
						stroke="none"
						target-height="116.099976"
						target-width="80.399994"
						target-x="379.1"
						target-y="509.7" />
				</g>
				<path
					id="0"
					d="M 472.40 478.60 L 476.10 478.90 L 478.60 478.70 L 481.60 477.90 L 484.00 476.80 L 486.00 475.40 L 487.70 473.60 L 489.30 471.40 L 490.70 468.60 L 508.30 403.60 L 508.90 400.10 L 509.00 396.80 L 508.40 393.50 L 507.30 390.20 L 506.00 388.00 L 504.30 386.00 L 502.00 384.30 L 499.20 382.90 L 495.70 381.70 L 468.20 374.50 L 465.80 374.50 L 463.30 374.80 L 460.90 375.60 L 458.40 376.90 L 456.20 378.50 L 454.30 380.40 L 452.70 382.70 L 451.30 385.40 L 450.20 388.60 L 433.80 449.90 L 433.20 453.10 L 433.00 456.00 L 433.30 458.70 L 434.00 461.10 L 435.10 463.40 L 436.70 465.70 L 438.70 467.70 L 440.90 469.30 L 443.50 470.60 L 446.40 471.70 L 472.40 478.60 Z M 470.60 464.90 L 450.00 459.10 L 448.70 458.20 L 447.70 457.00 L 447.20 455.50 L 447.10 453.80 L 447.50 451.50 L 463.50 391.60 L 464.90 389.30 L 466.10 388.40 L 468.70 387.90 L 470.50 388.20 L 491.00 393.70 L 493.00 394.50 L 494.20 395.60 L 495.00 397.00 L 495.20 398.80 L 494.90 401.20 L 478.30 462.40 L 477.40 463.90 L 476.50 464.70 L 475.20 465.30 L 473.30 465.30 L 470.60 464.90 Z"
					fill="url(#linearGradient-25)"
					fill-rule="nonzero"
					group-id="3,21"
					node-id="139"
					stroke="none"
					target-height="104.399994"
					target-width="76"
					target-x="433"
					target-y="374.5" />
			</g>
			<g node-id="377">
				<path
					id="路径"
					d="M 593.10 838.50 L 599.30 840.70 L 603.00 842.40 L 606.40 844.80 L 607.30 846.70 L 606.60 848.60 L 605.40 849.90 L 595.80 855.90 L 593.60 857.70 L 592.30 859.30 L 591.30 861.10 L 591.00 862.80 L 591.10 864.40 L 591.60 866.10 L 593.80 869.30 L 596.00 871.70 L 600.40 875.40 L 608.90 879.30 L 614.20 881.20 L 628.70 885.20 L 645.90 888.80 L 666.60 891.60 L 677.70 892.60 L 689.80 893.20 L 701.90 893.40 L 714.50 893.10 L 727.80 892.30 L 747.80 890.00 L 768.60 886.20 L 778.40 883.80 L 786.90 881.40 L 800.30 876.60 L 806.60 873.70 L 811.80 870.90 L 816.00 868.20 L 819.30 865.60 L 822.60 862.50 L 825.10 859.60 L 826.90 856.80 L 828.10 854.00 L 828.90 851.10 L 829.20 848.20 L 829.20 845.40 L 828.70 842.70 L 827.40 839.20 L 825.70 835.80 L 823.40 832.50 L 820.70 829.50 L 814.50 824.20 L 809.80 821.40 L 802.20 817.60 L 793.40 814.00 L 782.10 809.90 L 769.90 806.10 L 755.50 802.30 L 745.60 800.10 L 723.50 796.20 L 700.10 793.40 L 687.50 792.60 L 674.90 792.20 L 661.90 792.40 L 648.50 793.00 L 636.50 794.00 L 617.40 796.30 L 601.50 799.30 L 595.60 800.80 L 585.40 804.30 L 582.00 805.90 L 578.90 807.80 L 576.90 809.50 L 574.20 813.60 L 572.20 818.60 L 571.80 821.00 L 571.90 823.40 L 572.60 825.70 L 573.80 827.80 L 575.90 830.10 L 578.90 832.40 L 582.30 834.30 L 586.90 836.30 L 593.10 838.50 Z"
					fill="url(#linearGradient-26)"
					fill-opacity="0.4"
					fill-rule="nonzero"
					group-id="4"
					node-id="140"
					stroke="none"
					target-height="101.20001"
					target-width="257.40002"
					target-x="571.8"
					target-y="792.2" />
			</g>
			<g node-id="378">
				<g node-id="395">
					<path
						id="路径"
						d="M 678.10 842.90 L 680.10 850.70 L 679.90 853.60 L 678.90 855.00 L 677.20 856.60 L 672.70 859.10 L 671.10 859.60 L 668.30 859.60 L 652.60 855.20 L 645.00 852.50 L 637.10 848.70 L 635.00 847.30 L 633.40 845.70 L 632.60 844.30 L 632.40 842.60 L 632.80 841.20 L 633.90 839.80 L 635.40 838.70 L 637.40 837.90 L 642.70 836.80 L 649.40 837.10 L 672.50 841.20 L 675.00 841.70 L 678.10 842.90 Z"
						fill="#333333"
						fill-rule="nonzero"
						group-id="5,22"
						node-id="142"
						stroke="none"
						target-height="22.799988"
						target-width="47.69995"
						target-x="632.4"
						target-y="836.8" />
				</g>
				<g node-id="396">
					<path
						id="路径"
						d="M 765.80 819.10 L 768.60 830.60 L 768.50 832.30 L 767.70 834.00 L 767.10 834.60 L 764.90 835.40 L 759.90 835.40 L 754.20 834.70 L 746.60 833.00 L 733.30 828.10 L 728.40 825.50 L 726.60 824.10 L 725.70 823.00 L 725.30 821.70 L 725.50 820.50 L 727.20 818.30 L 730.50 816.60 L 734.60 815.90 L 742.40 816.10 L 753.30 815.80 L 765.80 819.10 Z"
						fill="#333333"
						fill-rule="nonzero"
						group-id="5,23"
						node-id="143"
						stroke="none"
						target-height="19.600037"
						target-width="43.299988"
						target-x="725.3"
						target-y="815.8" />
				</g>
				<path
					id="路径"
					d="M 736.60 580.00 L 738.30 584.30 L 739.50 588.50 L 742.00 600.60 L 744.00 619.30 L 744.20 626.00 L 743.70 643.00 L 739.40 702.60 L 739.20 720.00 L 739.70 727.00 L 741.20 735.00 L 746.20 747.50 L 750.70 760.30 L 759.40 788.30 L 766.00 811.70 L 766.20 816.00 L 765.70 821.70 L 764.10 826.20 L 761.70 828.60 L 760.10 829.30 L 758.10 829.50 L 755.50 829.10 L 752.90 828.30 L 749.70 826.60 L 745.40 823.80 L 737.50 805.70 L 716.70 761.80 L 710.70 747.70 L 708.90 742.20 L 706.70 731.80 L 701.20 694.50 L 691.40 615.50 L 736.60 580.00 Z"
					fill="url(#linearGradient-27)"
					fill-rule="nonzero"
					group-id="5"
					node-id="144"
					stroke="none"
					target-height="249.5"
					target-width="74.79999"
					target-x="691.4"
					target-y="580" />
				<path
					id="路径"
					d="M 718.60 607.90 L 710.60 648.90 L 709.00 655.40 L 703.70 671.60 L 681.90 727.80 L 676.60 744.50 L 675.00 751.40 L 674.40 755.90 L 674.20 759.50 L 675.80 773.10 L 676.70 786.60 L 677.50 815.90 L 677.70 840.20 L 676.20 846.90 L 673.70 851.80 L 671.30 854.10 L 669.80 854.70 L 668.20 854.80 L 666.30 854.40 L 663.90 853.20 L 661.80 851.60 L 659.10 849.00 L 655.80 845.10 L 652.80 825.60 L 643.60 778.20 L 641.30 763.10 L 641.00 757.40 L 641.60 747.40 L 646.10 710.20 L 652.70 663.40 L 661.20 606.40 L 718.60 607.90 Z"
					fill="url(#linearGradient-28)"
					fill-rule="nonzero"
					group-id="5"
					node-id="145"
					stroke="none"
					target-height="248.39996"
					target-width="77.599976"
					target-x="641"
					target-y="606.4" />
				<path
					id="路径"
					d="M 610.00 426.00 L 606.80 422.90 L 603.60 417.90 L 601.80 415.90 L 599.60 414.00 L 596.00 411.60 L 593.70 410.50 L 591.90 410.10 L 590.20 410.20 L 585.70 411.60 L 584.20 411.80 L 582.50 411.60 L 580.80 410.90 L 573.10 406.60 L 571.40 406.00 L 569.40 406.10 L 568.20 407.10 L 568.40 408.40 L 569.40 409.60 L 579.70 418.00 L 589.40 424.40 L 598.40 429.40 L 605.40 436.00 L 610.00 426.00 Z"
					fill="#efba9e"
					fill-rule="nonzero"
					group-id="5"
					node-id="146"
					stroke="none"
					target-height="30"
					target-width="41.799988"
					target-x="568.2"
					target-y="406" />
				<path
					id="路径"
					d="M 719.00 417.80 L 717.30 414.60 L 716.00 411.00 L 715.20 407.30 L 714.80 403.80 L 715.10 399.60 L 717.00 393.10 L 717.60 389.50 L 717.90 385.20 L 717.80 380.70 L 717.00 376.10 L 716.10 373.10 L 714.70 370.30 L 712.90 367.70 L 709.30 364.30 L 704.20 361.70 L 700.50 360.60 L 697.10 360.10 L 693.90 360.00 L 690.90 360.40 L 687.90 361.30 L 685.20 362.50 L 682.70 364.10 L 680.50 366.00 L 676.70 370.70 L 675.30 373.40 L 673.40 379.50 L 673.10 386.10 L 673.40 389.70 L 676.40 405.70 L 678.00 411.90 L 679.50 415.80 L 681.50 418.60 L 682.50 419.30 L 685.20 420.10 L 687.70 422.00 L 689.10 424.00 L 690.20 426.30 L 692.10 431.40 L 692.90 431.60 L 694.40 431.60 L 700.00 429.90 L 706.50 427.10 L 714.00 423.20 L 719.00 421.60 L 719.00 417.80 Z"
					fill="#ebb0b0"
					fill-rule="nonzero"
					group-id="5"
					node-id="147"
					stroke="none"
					target-height="71.600006"
					target-width="45.900024"
					target-x="673.1"
					target-y="360" />
				<path
					id="路径"
					d="M 607.60 418.40 L 658.90 452.20 L 668.10 457.20 L 674.10 459.10 L 676.90 459.40 L 679.80 459.30 L 682.70 458.70 L 688.90 456.40 L 692.60 454.40 L 700.50 449.90 L 705.90 446.20 L 710.50 442.70 L 715.30 437.70 L 716.80 435.00 L 735.90 476.50 L 735.10 478.10 L 731.80 482.10 L 729.10 484.70 L 725.00 487.80 L 718.10 491.80 L 708.60 496.10 L 696.00 500.20 L 692.30 500.90 L 688.50 501.30 L 684.60 501.20 L 680.60 500.60 L 675.40 499.30 L 670.10 497.50 L 664.60 495.00 L 659.40 492.10 L 648.80 485.20 L 641.20 479.30 L 626.80 466.80 L 599.20 440.00 L 597.80 437.90 L 596.90 435.60 L 596.50 433.30 L 596.60 430.90 L 597.00 428.70 L 598.20 425.40 L 599.90 422.60 L 601.90 420.30 L 604.00 418.80 L 605.40 418.20 L 606.60 418.10 L 607.60 418.40 Z"
					fill="url(#linearGradient-29)"
					fill-rule="nonzero"
					group-id="5"
					node-id="148"
					stroke="none"
					target-height="83.19998"
					target-width="139.40002"
					target-x="596.5"
					target-y="418.1" />
				<path
					id="路径"
					d="M 718.40 417.00 L 708.70 418.30 L 701.10 420.70 L 694.20 424.40 L 690.90 426.90 L 687.30 430.00 L 683.50 434.00 L 680.00 438.20 L 676.30 443.50 L 672.50 449.90 L 669.10 456.50 L 665.60 464.30 L 662.10 473.70 L 660.80 478.20 L 660.00 483.40 L 659.50 489.50 L 659.40 498.90 L 661.90 543.90 L 661.90 563.40 L 661.40 570.90 L 659.50 583.60 L 656.70 593.50 L 653.60 601.20 L 653.20 604.00 L 653.30 606.50 L 654.00 608.90 L 655.10 611.00 L 656.70 612.90 L 658.60 614.50 L 663.40 616.90 L 669.00 618.10 L 672.00 618.30 L 692.90 618.30 L 707.20 617.60 L 722.00 615.70 L 729.10 614.10 L 735.40 612.10 L 739.50 610.40 L 743.00 608.50 L 748.00 604.50 L 749.70 602.50 L 752.00 598.00 L 752.60 594.90 L 753.20 589.30 L 753.70 574.90 L 753.40 538.60 L 752.00 501.30 L 751.30 492.90 L 748.90 476.40 L 747.20 468.20 L 743.10 453.20 L 740.70 446.00 L 735.60 434.00 L 732.60 428.60 L 729.80 424.30 L 727.10 421.10 L 724.70 419.00 L 722.50 417.70 L 720.40 417.10 L 718.40 417.00 Z"
					fill="url(#linearGradient-30)"
					fill-rule="nonzero"
					group-id="5"
					node-id="149"
					stroke="none"
					target-height="201.29999"
					target-width="100.5"
					target-x="653.2"
					target-y="417" />
				<path
					id="路径"
					d="M 661.80 542.00 L 662.70 552.60 L 663.30 556.20 L 667.80 561.50 L 670.40 563.80 L 672.30 565.20 L 674.30 566.10 L 679.90 568.00 L 681.10 568.70 L 681.90 570.20 L 682.00 571.30 L 681.70 572.30 L 680.70 573.30 L 679.50 573.50 L 669.30 572.90 L 661.20 573.90 L 658.50 574.00 L 656.30 573.60 L 654.40 572.60 L 654.00 557.90 L 654.50 552.10 L 656.40 547.10 L 657.80 545.10 L 659.40 543.60 L 661.80 542.00 Z"
					fill="#efba9e"
					fill-rule="nonzero"
					group-id="5"
					node-id="150"
					stroke="none"
					target-height="32"
					target-width="28"
					target-x="654"
					target-y="542" />
				<path
					id="路径"
					d="M 700.00 478.90 L 697.70 484.30 L 694.30 490.70 L 690.30 497.20 L 680.60 511.20 L 664.90 531.40 L 646.60 552.80 L 651.70 552.60 L 656.20 553.40 L 658.50 554.30 L 661.60 556.80 L 663.30 560.00 L 664.20 564.70 L 663.70 568.40 L 662.80 570.00 L 661.40 571.50 L 659.70 572.50 L 657.30 573.50 L 653.80 574.30 L 643.70 575.20 L 638.50 575.10 L 633.50 574.60 L 628.70 573.60 L 624.60 572.30 L 620.00 569.80 L 618.30 568.30 L 617.00 566.60 L 616.20 564.70 L 615.90 562.50 L 616.20 557.10 L 617.10 551.20 L 618.60 544.80 L 620.50 538.50 L 625.50 525.10 L 630.10 515.00 L 635.30 505.00 L 640.80 495.20 L 646.30 486.10 L 657.10 469.90 L 666.10 458.00 L 669.80 453.90 L 671.90 452.00 L 677.70 448.30 L 682.40 445.80 L 686.30 444.30 L 689.40 443.40 L 694.20 443.10 L 696.00 443.50 L 699.30 445.20 L 701.70 448.00 L 702.80 450.40 L 703.50 453.20 L 703.90 456.50 L 703.70 463.40 L 703.20 467.30 L 701.90 473.10 L 700.00 478.90 Z"
					fill="url(#linearGradient-31)"
					fill-rule="nonzero"
					group-id="5"
					node-id="151"
					stroke="none"
					target-height="132.1"
					target-width="88"
					target-x="615.9"
					target-y="443.1" />
				<path
					id="路径"
					d="M 680.20 354.50 L 676.50 355.30 L 673.70 356.30 L 671.40 357.50 L 669.50 359.10 L 668.00 360.80 L 666.90 362.70 L 665.80 366.90 L 666.10 372.60 L 667.00 375.90 L 669.60 381.70 L 672.60 386.30 L 675.00 388.30 L 682.20 391.80 L 683.50 395.30 L 684.80 402.00 L 688.50 403.00 L 688.80 399.90 L 689.40 399.00 L 690.20 398.70 L 692.50 399.30 L 693.60 400.20 L 694.60 401.50 L 695.20 403.00 L 695.30 404.60 L 694.80 406.60 L 693.20 410.00 L 692.70 410.60 L 692.50 410.40 L 696.50 413.90 L 699.00 415.00 L 712.80 412.20 L 717.00 410.50 L 718.70 408.90 L 722.00 399.40 L 723.50 393.10 L 723.80 389.40 L 723.70 384.70 L 723.20 381.60 L 722.20 378.40 L 720.70 375.30 L 716.80 369.60 L 710.70 363.40 L 706.80 360.60 L 702.90 358.30 L 699.60 357.00 L 693.50 355.50 L 688.50 354.60 L 683.90 354.30 L 680.20 354.50 Z"
					fill="#131322"
					fill-rule="nonzero"
					group-id="5"
					node-id="152"
					stroke="none"
					target-height="60.700012"
					target-width="58"
					target-x="665.8"
					target-y="354.3" />
			</g>
		</svg>
