		<?xml version="1.0" standalone="no"?>
		<!DOCTYPE svg PUBLIC "-//W3C//DTD SVG 1.1//EN" "http://www.w3.org/Graphics/SVG/1.1/DTD/svg11.dtd">
		<svg
			height="262"
			node-id="1"
			sillyvg="true"
			template-height="262"
			template-width="456"
			version="1.1"
			viewBox="0 0 456 262"
			width="456"
			xmlns="http://www.w3.org/2000/svg"
			xmlns:xlink="http://www.w3.org/1999/xlink">
			<defs node-id="73">
				<linearGradient
					id="未命名的渐变_26"
					gradientUnits="objectBoundingBox"
					node-id="5"
					spreadMethod="pad"
					x1="1"
					x2="1"
					y1="91.35"
					y2="181.12">
					<stop offset="0" stop-color="#81cfff" />
					<stop offset="1" stop-color="#5ecfff" stop-opacity="0" />
				</linearGradient>
				<linearGradient
					id="未命名的渐变_26-2"
					gradientUnits="objectBoundingBox"
					node-id="8"
					spreadMethod="pad"
					x1="455.01"
					x2="455.01"
					y1="72.11"
					y2="161.88">
					<stop offset="0" stop-color="#81cfff" />
					<stop offset="1" stop-color="#5ecfff" stop-opacity="0" />
				</linearGradient>
				<linearGradient
					id="未命名的渐变_26-3"
					gradientUnits="objectBoundingBox"
					node-id="9"
					spreadMethod="pad"
					x1="40.9"
					x2="40.9"
					y1="143.88"
					y2="199.51">
					<stop offset="0" stop-color="#81cfff" />
					<stop offset="1" stop-color="#5ecfff" stop-opacity="0" />
				</linearGradient>
				<linearGradient
					id="未命名的渐变_26-4"
					gradientUnits="objectBoundingBox"
					node-id="10"
					spreadMethod="pad"
					x1="64.97"
					x2="64.97"
					y1="95.36"
					y2="123.17">
					<stop offset="0" stop-color="#81cfff" />
					<stop offset="1" stop-color="#5ecfff" stop-opacity="0" />
				</linearGradient>
				<linearGradient
					id="未命名的渐变_26-5"
					gradientUnits="objectBoundingBox"
					node-id="11"
					spreadMethod="pad"
					x1="397.23"
					x2="397.23"
					y1="104.2"
					y2="132.02">
					<stop offset="0" stop-color="#81cfff" />
					<stop offset="1" stop-color="#5ecfff" stop-opacity="0" />
				</linearGradient>
				<linearGradient
					id="未命名的渐变_26-6"
					gradientUnits="objectBoundingBox"
					node-id="12"
					spreadMethod="pad"
					x1="424.75"
					x2="424.75"
					y1="133.49"
					y2="189.13">
					<stop offset="0" stop-color="#81cfff" />
					<stop offset="1" stop-color="#5ecfff" stop-opacity="0" />
				</linearGradient>
				<linearGradient
					id="未命名的渐变_26-7"
					gradientUnits="objectBoundingBox"
					node-id="13"
					spreadMethod="pad"
					x1="232.75"
					x2="232.75"
					y1="224.43"
					y2="262.12">
					<stop offset="0" stop-color="#81cfff" />
					<stop offset="1" stop-color="#5ecfff" stop-opacity="0" />
				</linearGradient>
				<linearGradient
					id="未命名的渐变_26-8"
					gradientUnits="objectBoundingBox"
					node-id="14"
					spreadMethod="pad"
					x1="349.36"
					x2="349.36"
					y1="26.68"
					y2="204.03">
					<stop offset="0" stop-color="#81cfff" />
					<stop offset="1" stop-color="#5ecfff" stop-opacity="0" />
				</linearGradient>
				<linearGradient
					id="未命名的渐变_26-9"
					gradientUnits="objectBoundingBox"
					node-id="15"
					spreadMethod="pad"
					x1="201.45"
					x2="201.45"
					y1="55.61"
					y2="204.03">
					<stop offset="0" stop-color="#81cfff" />
					<stop offset="1" stop-color="#5ecfff" stop-opacity="0" />
				</linearGradient>
				<linearGradient
					id="未命名的渐变_26-10"
					gradientUnits="objectBoundingBox"
					node-id="16"
					spreadMethod="pad"
					x1="122.98"
					x2="122.98"
					y1="26.68"
					y2="204.03">
					<stop offset="0" stop-color="#81cfff" />
					<stop offset="1" stop-color="#5ecfff" stop-opacity="0" />
				</linearGradient>
				<linearGradient
					id="未命名的渐变_26-11"
					gradientUnits="objectBoundingBox"
					node-id="17"
					spreadMethod="pad"
					x1="273.51"
					x2="273.51"
					y1="0"
					y2="209.54">
					<stop offset="0" stop-color="#81cfff" />
					<stop offset="1" stop-color="#5ecfff" stop-opacity="0" />
				</linearGradient>
				<clipPath id="clip-path" node-id="18">
					<path
						d="M 132.70 143.20 L 132.70 134.50 L 142.70 134.40 L 146.50 134.80 L 150.60 135.70 L 154.50 136.90 L 158.40 138.60 L 161.90 140.60 L 165.00 143.10 L 167.60 145.80 L 169.60 148.80 L 171.00 152.00 L 172.00 155.30 L 172.60 159.20 L 172.80 172.30 L 172.60 167.80 L 172.00 164.00 L 171.00 160.60 L 169.60 157.40 L 167.60 154.50 L 165.00 151.70 L 161.90 149.30 L 158.40 147.20 L 154.50 145.60 L 150.60 144.30 L 146.50 143.50 L 142.70 143.10 L 132.70 143.20 Z"
						fill="#000000"
						fill-rule="nonzero"
						node-id="142"
						stroke="none"
						target-height="37.90001"
						target-width="40.100006"
						target-x="132.7"
						target-y="134.4" />
				</clipPath>
			</defs>
			<g node-id="266">
				<path
					d="M 1.00 91.40 L 1.00 181.10"
					fill="none"
					group-id="1"
					node-id="148"
					stroke="url(#未命名的渐变_26)"
					stroke-linecap="butt"
					stroke-width="2"
					target-height="89.700005"
					target-width="0"
					target-x="1"
					target-y="91.4" />
				<path
					d="M 455.00 72.10 L 455.00 161.90"
					fill="none"
					group-id="1"
					node-id="150"
					stroke="url(#未命名的渐变_26-2)"
					stroke-linecap="butt"
					stroke-width="2"
					target-height="89.799995"
					target-width="0"
					target-x="455"
					target-y="72.1" />
				<path
					d="M 40.90 143.90 L 40.90 199.50"
					fill="none"
					group-id="1"
					node-id="152"
					stroke="url(#未命名的渐变_26-3)"
					stroke-linecap="butt"
					stroke-width="2"
					target-height="55.600006"
					target-width="0"
					target-x="40.9"
					target-y="143.9" />
				<path
					d="M 65.00 95.40 L 65.00 123.20"
					fill="none"
					group-id="1"
					node-id="154"
					stroke="url(#未命名的渐变_26-4)"
					stroke-linecap="butt"
					stroke-width="2"
					target-height="27.799995"
					target-width="0"
					target-x="65"
					target-y="95.4" />
				<path
					d="M 397.20 104.20 L 397.20 132.00"
					fill="none"
					group-id="1"
					node-id="156"
					stroke="url(#未命名的渐变_26-5)"
					stroke-linecap="butt"
					stroke-width="2"
					target-height="27.800003"
					target-width="0"
					target-x="397.2"
					target-y="104.2" />
				<path
					d="M 424.80 133.50 L 424.80 189.10"
					fill="none"
					group-id="1"
					node-id="158"
					stroke="url(#未命名的渐变_26-6)"
					stroke-linecap="butt"
					stroke-width="2"
					target-height="55.600006"
					target-width="0"
					target-x="424.8"
					target-y="133.5" />
				<g node-id="267">
					<path
						d="M 412.30 262.10 L 404.00 254.80 L 399.20 251.30 L 394.20 248.20 L 388.40 245.10 L 381.90 242.10 L 375.10 239.50 L 367.30 237.00 L 358.30 234.70 L 349.30 232.70 L 326.90 229.10 L 301.20 226.60 L 270.00 225.00 L 232.80 224.40 L 195.50 225.00 L 164.30 226.60 L 138.60 229.10 L 116.20 232.70 L 107.20 234.60 L 98.20 237.00 L 90.40 239.50 L 83.70 242.10 L 77.10 245.10 L 71.30 248.20 L 66.30 251.30 L 61.50 254.80 L 53.20 262.10 Z"
						fill="url(#未命名的渐变_26-7)"
						fill-opacity="0.4"
						fill-rule="nonzero"
						group-id="1,2"
						node-id="162"
						stroke="none"
						target-height="37.700012"
						target-width="359.09998"
						target-x="53.2"
						target-y="224.4" />
				</g>
				<g node-id="268">
					<g node-id="271">
						<path
							d="M 380.70 26.70 L 318.10 26.70 L 317.00 26.90 L 315.50 28.20 L 315.30 29.30 L 315.30 201.40 L 315.50 202.50 L 317.00 203.90 L 380.70 204.00 L 381.70 203.90 L 383.20 202.50 L 383.50 201.40 L 383.50 29.30 L 383.20 28.20 L 382.60 27.40 L 381.70 26.90 L 380.70 26.70 Z M 328.30 147.00 L 328.00 147.60 L 327.40 147.90 L 323.80 147.90 L 323.10 147.60 L 322.80 147.00 L 322.80 127.30 L 323.10 126.60 L 323.80 126.40 L 327.40 126.40 L 328.00 126.60 L 328.30 127.30 Z M 328.30 116.80 L 328.00 117.40 L 327.40 117.60 L 323.80 117.60 L 323.10 117.40 L 322.80 116.80 L 322.80 97.00 L 323.10 96.40 L 323.80 96.10 L 327.40 96.10 L 328.00 96.40 L 328.30 97.00 Z M 328.30 86.50 L 328.00 87.20 L 327.40 87.40 L 323.80 87.40 L 323.10 87.20 L 322.80 86.50 L 322.80 66.80 L 323.10 66.20 L 323.80 65.90 L 327.40 65.90 L 328.00 66.20 L 328.30 66.80 Z M 328.30 56.30 L 328.00 56.90 L 327.40 57.20 L 323.80 57.20 L 323.10 56.90 L 322.80 56.30 L 322.80 36.60 L 323.10 35.90 L 323.80 35.70 L 327.40 35.70 L 328.00 35.90 L 328.30 36.60 Z M 340.00 147.00 L 339.70 147.60 L 339.10 147.90 L 335.50 147.90 L 334.80 147.60 L 334.50 147.00 L 334.50 127.30 L 334.80 126.60 L 335.50 126.40 L 339.10 126.40 L 339.70 126.60 L 340.00 127.30 Z M 340.00 116.80 L 339.70 117.40 L 339.10 117.60 L 335.50 117.60 L 334.80 117.40 L 334.50 116.80 L 334.50 97.00 L 334.80 96.40 L 335.50 96.10 L 339.10 96.10 L 339.70 96.40 L 340.00 97.00 Z M 340.00 86.50 L 339.70 87.20 L 339.10 87.40 L 335.50 87.40 L 334.80 87.20 L 334.50 86.50 L 334.50 66.80 L 334.80 66.20 L 335.50 65.90 L 339.10 65.90 L 339.70 66.20 L 340.00 66.80 Z M 340.00 56.30 L 339.70 56.90 L 339.10 57.20 L 335.50 57.20 L 334.80 56.90 L 334.50 56.30 L 334.50 36.60 L 334.80 35.90 L 335.50 35.70 L 339.10 35.70 L 339.70 35.90 L 340.00 36.60 Z M 351.70 147.00 L 351.40 147.60 L 350.80 147.90 L 347.20 147.90 L 346.50 147.60 L 346.20 147.00 L 346.20 127.30 L 346.50 126.60 L 347.20 126.40 L 350.80 126.40 L 351.40 126.60 L 351.70 127.30 Z M 351.70 116.80 L 351.40 117.40 L 350.80 117.60 L 347.20 117.60 L 346.50 117.40 L 346.20 116.80 L 346.20 97.00 L 346.50 96.40 L 347.20 96.10 L 350.80 96.10 L 351.40 96.40 L 351.70 97.00 Z M 351.70 86.50 L 351.40 87.20 L 350.80 87.40 L 347.20 87.40 L 346.50 87.20 L 346.20 86.50 L 346.20 66.80 L 346.50 66.20 L 347.20 65.90 L 350.80 65.90 L 351.40 66.20 L 351.70 66.80 Z M 351.70 56.30 L 351.40 56.90 L 350.80 57.20 L 347.20 57.20 L 346.50 56.90 L 346.20 56.30 L 346.20 36.60 L 346.50 35.90 L 347.20 35.70 L 350.80 35.70 L 351.40 35.90 L 351.70 36.60 Z M 363.40 147.00 L 363.10 147.60 L 362.50 147.90 L 358.80 147.90 L 358.20 147.60 L 357.90 147.00 L 357.90 127.30 L 358.20 126.60 L 358.80 126.40 L 362.50 126.40 L 363.10 126.60 L 363.40 127.30 Z M 363.40 116.80 L 363.10 117.40 L 362.50 117.60 L 358.80 117.60 L 358.20 117.40 L 357.90 116.80 L 357.90 97.00 L 358.20 96.40 L 358.80 96.10 L 362.50 96.10 L 363.10 96.40 L 363.40 97.00 Z M 363.40 86.50 L 363.10 87.20 L 362.50 87.40 L 358.80 87.40 L 358.20 87.20 L 357.90 86.50 L 357.90 66.80 L 358.20 66.20 L 358.80 65.90 L 362.50 65.90 L 363.10 66.20 L 363.40 66.80 Z M 363.40 56.30 L 363.10 56.90 L 362.50 57.20 L 358.80 57.20 L 358.20 56.90 L 357.90 56.30 L 357.90 36.60 L 358.20 35.90 L 358.80 35.70 L 362.50 35.70 L 363.10 35.90 L 363.40 36.60 Z M 375.10 147.00 L 374.80 147.60 L 374.20 147.90 L 370.60 147.90 L 369.90 147.60 L 369.60 147.00 L 369.60 127.30 L 369.90 126.60 L 370.60 126.40 L 374.20 126.40 L 374.80 126.60 L 375.10 127.30 Z M 375.10 116.80 L 374.80 117.40 L 374.20 117.60 L 370.60 117.60 L 369.90 117.40 L 369.60 116.80 L 369.60 97.00 L 369.90 96.40 L 370.60 96.10 L 374.20 96.10 L 374.80 96.40 L 375.10 97.00 Z M 375.10 86.50 L 374.80 87.20 L 374.20 87.40 L 370.60 87.40 L 369.90 87.20 L 369.60 86.50 L 369.60 66.80 L 369.90 66.20 L 370.60 65.90 L 374.20 65.90 L 374.80 66.20 L 375.10 66.80 Z M 375.10 56.30 L 374.80 56.90 L 374.20 57.20 L 370.60 57.20 L 369.90 56.90 L 369.60 56.30 L 369.60 36.60 L 369.90 35.90 L 370.60 35.70 L 374.20 35.70 L 374.80 35.90 L 375.10 36.60 Z"
							fill="url(#未命名的渐变_26-8)"
							fill-opacity="0.28"
							fill-rule="nonzero"
							group-id="1,3,6"
							node-id="169"
							stroke="none"
							target-height="177.3"
							target-width="68.20001"
							target-x="315.3"
							target-y="26.7" />
					</g>
					<g node-id="272">
						<path
							d="M 231.10 55.60 L 171.80 55.60 L 170.70 55.80 L 169.30 57.20 L 169.00 58.20 L 169.00 201.40 L 169.30 202.50 L 169.90 203.30 L 170.70 203.80 L 171.80 204.00 L 231.10 204.00 L 232.20 203.80 L 233.70 202.50 L 233.90 201.40 L 233.90 58.20 L 233.70 57.10 L 233.00 56.30 L 232.20 55.80 L 231.10 55.60 Z M 182.50 159.40 L 182.10 160.20 L 181.30 160.50 L 175.40 160.40 L 174.70 159.40 L 174.70 154.20 L 175.00 153.40 L 175.90 153.10 L 181.30 153.10 L 182.10 153.40 L 182.50 154.20 Z M 182.50 146.50 L 182.10 147.30 L 181.30 147.60 L 175.40 147.50 L 174.70 146.50 L 174.70 141.30 L 175.00 140.50 L 175.90 140.20 L 181.30 140.20 L 182.10 140.50 L 182.50 141.30 Z M 182.50 133.60 L 182.10 134.40 L 181.30 134.70 L 175.40 134.60 L 174.70 133.60 L 174.70 128.40 L 175.00 127.60 L 175.90 127.30 L 181.30 127.30 L 182.10 127.60 L 182.50 128.40 Z M 182.50 120.70 L 182.10 121.50 L 181.30 121.80 L 175.40 121.80 L 174.70 120.70 L 174.70 115.50 L 175.00 114.70 L 175.90 114.40 L 181.30 114.40 L 182.10 114.70 L 182.50 115.50 Z M 182.50 107.80 L 182.10 108.60 L 181.30 108.90 L 175.40 108.90 L 174.70 107.80 L 174.70 102.60 L 175.00 101.80 L 175.90 101.50 L 181.30 101.50 L 182.10 101.80 L 182.50 102.60 Z M 182.50 95.00 L 182.10 95.70 L 181.30 96.10 L 175.40 96.00 L 174.70 95.00 L 174.70 89.70 L 175.00 88.90 L 175.90 88.60 L 181.30 88.60 L 182.10 88.90 L 182.50 89.70 Z M 182.50 82.10 L 182.10 82.90 L 181.30 83.20 L 175.40 83.10 L 174.70 82.10 L 174.70 76.90 L 175.00 76.00 L 175.90 75.70 L 181.30 75.70 L 182.10 76.00 L 182.50 76.90 Z M 182.50 69.20 L 182.10 70.00 L 181.30 70.30 L 175.40 70.20 L 174.70 69.20 L 174.70 64.00 L 175.00 63.20 L 175.90 62.90 L 181.30 62.90 L 182.10 63.20 L 182.50 64.00 Z M 192.60 159.40 L 192.20 160.20 L 191.40 160.50 L 186.00 160.50 L 185.20 160.20 L 184.80 159.40 L 184.80 154.20 L 185.20 153.40 L 186.00 153.10 L 191.80 153.10 L 192.60 154.20 Z M 192.60 146.50 L 192.20 147.30 L 191.40 147.60 L 186.00 147.60 L 185.20 147.30 L 184.80 146.50 L 184.80 141.30 L 185.20 140.50 L 186.00 140.20 L 191.90 140.20 L 192.60 141.30 Z M 192.60 133.60 L 192.20 134.40 L 191.40 134.70 L 186.00 134.70 L 185.20 134.40 L 184.80 133.60 L 184.80 128.40 L 185.20 127.60 L 186.00 127.30 L 191.80 127.30 L 192.60 128.40 Z M 192.60 120.70 L 192.20 121.50 L 191.40 121.80 L 186.00 121.80 L 185.20 121.50 L 184.80 120.70 L 184.80 115.50 L 185.20 114.70 L 186.00 114.40 L 191.90 114.50 L 192.60 115.50 Z M 192.60 107.80 L 192.20 108.60 L 191.40 108.90 L 186.00 108.90 L 185.20 108.60 L 184.80 107.80 L 184.80 102.60 L 185.20 101.80 L 186.00 101.50 L 191.80 101.60 L 192.60 102.60 Z M 192.60 95.00 L 192.20 95.70 L 191.40 96.10 L 186.00 96.10 L 185.20 95.70 L 184.80 95.00 L 184.80 89.70 L 185.20 88.90 L 186.00 88.60 L 191.90 88.70 L 192.60 89.70 Z M 192.60 82.10 L 192.20 82.90 L 191.40 83.20 L 186.00 83.20 L 185.20 82.90 L 184.80 82.10 L 184.80 76.90 L 185.20 76.00 L 186.00 75.70 L 191.80 75.80 L 192.60 76.90 Z M 192.60 69.20 L 192.20 70.00 L 191.40 70.30 L 186.00 70.30 L 185.20 70.00 L 184.80 69.20 L 184.80 64.00 L 185.20 63.20 L 186.00 62.90 L 191.90 62.90 L 192.60 64.00 Z M 202.60 159.40 L 202.30 160.20 L 201.40 160.50 L 195.50 160.40 L 194.80 159.40 L 194.80 154.20 L 195.20 153.40 L 196.00 153.10 L 201.40 153.10 L 202.20 153.40 L 202.60 154.20 Z M 202.60 146.50 L 202.30 147.30 L 201.40 147.60 L 195.60 147.50 L 194.80 146.50 L 194.80 141.30 L 195.20 140.50 L 196.00 140.20 L 201.40 140.20 L 202.20 140.50 L 202.60 141.30 Z M 202.60 133.60 L 202.30 134.40 L 201.40 134.70 L 195.50 134.60 L 194.80 133.60 L 194.80 128.40 L 195.20 127.60 L 196.00 127.30 L 201.40 127.30 L 202.20 127.60 L 202.60 128.40 Z M 202.60 120.70 L 202.30 121.50 L 201.40 121.80 L 195.60 121.80 L 194.80 120.70 L 194.80 115.50 L 195.20 114.70 L 196.00 114.40 L 201.40 114.40 L 202.20 114.70 L 202.60 115.50 Z M 202.60 107.80 L 202.30 108.60 L 201.40 108.90 L 195.50 108.90 L 194.80 107.80 L 194.80 102.60 L 195.20 101.80 L 196.00 101.50 L 201.40 101.50 L 202.20 101.80 L 202.60 102.60 Z M 202.60 95.00 L 202.30 95.70 L 201.40 96.10 L 195.60 96.00 L 194.80 95.00 L 194.80 89.70 L 195.20 88.90 L 196.00 88.60 L 201.40 88.60 L 202.20 88.90 L 202.60 89.70 Z M 202.60 82.10 L 202.30 82.90 L 201.40 83.20 L 195.50 83.10 L 194.80 82.10 L 194.80 76.90 L 195.20 76.00 L 196.00 75.70 L 201.40 75.70 L 202.20 76.00 L 202.60 76.90 Z M 202.60 69.20 L 202.30 70.00 L 201.40 70.30 L 195.60 70.20 L 194.80 69.20 L 194.80 64.00 L 195.20 63.20 L 196.00 62.90 L 201.40 62.90 L 202.20 63.20 L 202.60 64.00 Z M 227.80 159.40 L 227.50 160.20 L 226.60 160.50 L 206.10 160.50 L 205.30 160.20 L 204.90 159.40 L 204.90 154.20 L 205.70 153.10 L 226.60 153.10 L 227.50 153.40 L 227.80 154.20 Z M 227.80 146.50 L 227.50 147.30 L 226.60 147.60 L 206.10 147.60 L 205.30 147.30 L 204.90 146.50 L 204.90 141.30 L 205.60 140.20 L 226.60 140.20 L 227.50 140.50 L 227.80 141.30 Z M 227.80 133.60 L 227.50 134.40 L 226.60 134.70 L 206.10 134.70 L 205.30 134.40 L 204.90 133.60 L 204.90 128.40 L 205.70 127.30 L 226.60 127.30 L 227.50 127.60 L 227.80 128.40 Z M 227.80 120.70 L 227.50 121.50 L 226.60 121.80 L 206.10 121.80 L 205.30 121.50 L 204.90 120.70 L 204.90 115.50 L 205.60 114.50 L 226.60 114.40 L 227.50 114.70 L 227.80 115.50 Z M 227.80 107.80 L 227.50 108.60 L 226.60 108.90 L 206.10 108.90 L 205.30 108.60 L 204.90 107.80 L 204.90 102.60 L 205.70 101.60 L 226.60 101.50 L 227.50 101.80 L 227.80 102.60 Z M 227.80 95.00 L 227.50 95.70 L 226.60 96.10 L 206.10 96.10 L 205.30 95.70 L 204.90 95.00 L 204.90 89.70 L 205.60 88.70 L 226.60 88.60 L 227.50 88.90 L 227.80 89.70 Z M 227.80 82.10 L 227.50 82.90 L 226.60 83.20 L 206.10 83.20 L 205.30 82.90 L 204.90 82.10 L 204.90 76.90 L 205.70 75.80 L 226.60 75.70 L 227.50 76.00 L 227.80 76.90 Z M 227.80 69.20 L 227.50 70.00 L 226.60 70.30 L 206.10 70.30 L 205.30 70.00 L 204.90 69.20 L 204.90 64.00 L 205.60 63.00 L 226.60 62.90 L 227.50 63.20 L 227.80 64.00 Z"
							fill="url(#未命名的渐变_26-9)"
							fill-opacity="0.28"
							fill-rule="nonzero"
							group-id="1,3,7"
							node-id="174"
							stroke="none"
							target-height="148.4"
							target-width="64.899994"
							target-x="169"
							target-y="55.6" />
					</g>
					<g node-id="273">
						<path
							d="M 161.10 26.70 L 84.80 26.70 L 83.80 26.80 L 82.90 27.40 L 82.30 28.20 L 82.00 29.30 L 82.00 201.40 L 82.30 202.50 L 83.80 203.80 L 161.10 204.00 L 162.20 203.80 L 163.70 202.50 L 164.00 201.40 L 164.00 29.30 L 163.70 28.20 L 163.10 27.40 L 162.20 26.90 L 161.10 26.70 Z M 154.30 161.00 L 154.00 161.80 L 153.10 162.10 L 92.80 162.10 L 92.00 161.80 L 91.60 161.00 L 91.60 155.80 L 92.00 155.00 L 92.80 154.70 L 153.10 154.70 L 154.00 155.00 L 154.30 155.80 Z M 154.30 146.30 L 154.00 147.10 L 153.10 147.40 L 92.80 147.40 L 92.00 147.10 L 91.60 146.30 L 91.60 141.10 L 92.00 140.30 L 92.80 140.00 L 153.10 140.00 L 154.00 140.30 L 154.30 141.10 Z M 154.30 131.70 L 154.00 132.50 L 153.10 132.80 L 92.80 132.80 L 92.00 132.50 L 91.60 131.70 L 91.60 126.40 L 92.00 125.60 L 92.80 125.30 L 153.10 125.30 L 154.00 125.60 L 154.30 126.40 Z M 154.30 117.00 L 154.00 117.80 L 153.10 118.10 L 92.80 118.10 L 92.00 117.80 L 91.60 117.00 L 91.60 111.80 L 92.00 111.00 L 92.80 110.70 L 153.10 110.70 L 154.00 111.00 L 154.30 111.80 Z M 154.30 102.30 L 154.00 103.10 L 153.10 103.40 L 92.80 103.40 L 92.00 103.10 L 91.60 102.30 L 91.60 97.00 L 92.00 96.20 L 92.80 95.90 L 153.10 95.90 L 154.00 96.20 L 154.30 97.00 Z M 154.30 87.60 L 154.00 88.40 L 153.10 88.70 L 92.80 88.70 L 92.00 88.40 L 91.60 87.60 L 91.60 82.40 L 92.00 81.60 L 92.80 81.30 L 153.10 81.30 L 154.00 81.60 L 154.30 82.40 Z M 154.30 72.90 L 154.00 73.70 L 153.10 74.10 L 92.80 74.10 L 92.00 73.70 L 91.60 72.90 L 91.60 67.70 L 92.00 66.90 L 92.80 66.60 L 153.10 66.60 L 154.00 66.90 L 154.30 67.70 Z M 154.30 58.30 L 154.00 59.10 L 153.10 59.40 L 92.80 59.40 L 92.00 59.10 L 91.60 58.30 L 91.60 53.00 L 92.00 52.20 L 92.80 51.90 L 153.10 51.90 L 154.00 52.20 L 154.30 53.00 Z M 154.30 43.60 L 154.00 44.40 L 153.10 44.70 L 92.80 44.70 L 92.00 44.40 L 91.60 43.60 L 91.60 38.30 L 92.00 37.50 L 92.80 37.20 L 153.10 37.20 L 154.00 37.50 L 154.30 38.30 Z"
							fill="url(#未命名的渐变_26-10)"
							fill-opacity="0.28"
							fill-rule="nonzero"
							group-id="1,3,8"
							node-id="179"
							stroke="none"
							target-height="177.3"
							target-width="82"
							target-x="82"
							target-y="26.7" />
					</g>
					<path
						d="M 306.20 0.00 L 240.80 0.00 L 239.80 0.20 L 238.60 1.60 L 238.40 206.90 L 239.10 208.70 L 239.90 209.30 L 240.80 209.50 L 306.20 209.50 L 307.20 209.30 L 308.50 207.90 L 308.60 2.60 L 307.90 0.80 L 306.20 0.00 Z M 300.40 134.30 L 300.10 135.00 L 299.40 135.40 L 247.70 135.40 L 246.90 135.00 L 246.70 134.30 L 246.70 129.10 L 246.90 128.30 L 247.70 128.00 L 299.40 128.00 L 300.10 128.30 L 300.40 129.10 Z M 300.40 119.60 L 300.10 120.40 L 299.40 120.70 L 247.70 120.70 L 246.90 120.40 L 246.70 119.60 L 246.70 114.40 L 246.90 113.60 L 247.70 113.30 L 299.40 113.30 L 300.10 113.60 L 300.40 114.40 Z M 300.40 104.90 L 300.10 105.70 L 299.40 106.00 L 247.70 106.00 L 246.90 105.70 L 246.70 104.90 L 246.70 99.70 L 246.90 99.00 L 247.70 98.60 L 299.40 98.60 L 300.10 99.00 L 300.40 99.70 Z M 300.40 90.30 L 300.10 91.00 L 299.40 91.40 L 247.70 91.40 L 246.90 91.00 L 246.70 90.30 L 246.70 85.00 L 246.90 84.20 L 247.70 83.90 L 299.40 83.90 L 300.10 84.20 L 300.40 85.00 Z M 300.40 75.60 L 300.10 76.30 L 299.40 76.70 L 247.70 76.70 L 246.90 76.30 L 246.70 75.60 L 246.70 70.40 L 246.90 69.60 L 247.70 69.30 L 299.40 69.30 L 300.10 69.60 L 300.40 70.40 Z M 300.40 60.90 L 300.10 61.60 L 299.40 62.00 L 247.70 62.00 L 246.90 61.60 L 246.70 60.90 L 246.70 55.70 L 246.90 54.90 L 247.70 54.60 L 299.40 54.60 L 300.10 54.90 L 300.40 55.70 Z M 300.40 46.20 L 300.10 47.00 L 299.40 47.30 L 247.70 47.30 L 246.90 47.00 L 246.70 46.20 L 246.70 41.00 L 246.90 40.20 L 247.70 39.90 L 299.40 39.90 L 300.10 40.20 L 300.40 41.00 Z M 300.40 31.50 L 300.10 32.30 L 299.40 32.70 L 247.70 32.70 L 246.90 32.30 L 246.70 31.50 L 246.70 26.30 L 246.90 25.60 L 247.70 25.20 L 299.40 25.20 L 300.10 25.60 L 300.40 26.30 Z M 300.40 16.90 L 300.10 17.60 L 299.40 18.00 L 247.70 18.00 L 246.90 17.60 L 246.70 16.90 L 246.70 11.70 L 246.90 10.90 L 247.70 10.50 L 299.40 10.50 L 300.10 10.90 L 300.40 11.70 Z"
						fill="url(#未命名的渐变_26-11)"
						fill-opacity="0.28"
						fill-rule="nonzero"
						group-id="1,3,9"
						node-id="184"
						stroke="none"
						target-height="209.5"
						target-width="70.20001"
						target-x="238.4"
						target-y="0" />
				</g>
				<path
					d="M 240.50 164.60 L 239.60 168.50 L 238.40 171.70 L 237.10 174.30 L 234.70 177.30 L 232.70 178.80 L 229.80 180.10 L 225.70 180.60 L 221.50 180.10 L 218.00 178.40 L 216.00 176.70 L 214.30 174.30 L 212.40 170.30 L 211.40 167.10 L 210.00 158.80 L 209.50 145.10 L 209.60 163.60 L 210.00 170.30 L 210.90 176.50 L 212.30 181.90 L 213.60 184.80 L 216.00 188.30 L 218.00 190.10 L 220.20 191.20 L 222.60 191.90 L 227.20 192.00 L 230.20 191.50 L 232.00 190.80 L 234.00 189.50 L 235.50 188.10 L 237.50 185.10 L 239.20 181.30 L 240.50 176.30 L 241.40 169.50 L 241.90 162.80 L 242.00 144.50 L 241.90 151.20 L 241.40 157.90 L 240.50 164.60 Z"
					fill="#67c8ff"
					fill-rule="nonzero"
					group-id="1"
					node-id="188"
					stroke="none"
					target-height="47.5"
					target-width="32.5"
					target-x="209.5"
					target-y="144.5" />
				<path
					d="M 260.80 144.10 L 260.40 134.40 L 259.00 125.20 L 257.80 120.80 L 256.10 116.50 L 252.50 110.10 L 250.00 106.90 L 247.40 104.40 L 242.10 100.70 L 235.70 98.20 L 228.60 97.00 L 220.10 97.30 L 213.50 98.70 L 210.20 100.00 L 206.90 101.80 L 204.10 103.80 L 201.60 106.10 L 197.30 111.90 L 195.20 115.90 L 193.60 120.30 L 191.70 129.30 L 190.90 138.10 L 190.60 158.40 L 190.90 149.60 L 192.40 136.20 L 195.00 127.40 L 198.70 120.80 L 201.40 117.60 L 204.60 114.70 L 207.90 112.50 L 211.70 110.70 L 215.70 109.40 L 220.00 108.60 L 228.40 108.40 L 235.40 109.60 L 240.30 111.40 L 245.80 114.70 L 250.00 118.60 L 252.30 121.60 L 254.60 125.10 L 256.70 129.70 L 258.30 134.70 L 259.60 140.40 L 260.30 145.90 L 260.70 157.30 L 260.80 144.10 Z"
					fill="#67c8ff"
					fill-rule="nonzero"
					group-id="1"
					node-id="190"
					stroke="none"
					target-height="61.399994"
					target-width="70.19998"
					target-x="190.6"
					target-y="97" />
				<path
					d="M 255.60 127.10 L 257.30 131.20 L 258.70 136.20 L 259.90 142.00 L 260.60 149.00 L 260.80 157.30 L 260.30 169.40 L 259.50 175.50 L 258.30 180.30 L 256.60 184.90 L 254.40 189.30 L 251.90 192.80 L 249.10 196.00 L 245.90 198.70 L 242.30 201.10 L 238.40 202.90 L 234.30 204.20 L 230.10 205.00 L 225.80 205.20 L 219.20 204.60 L 212.80 202.70 L 207.00 199.60 L 201.90 195.40 L 197.60 190.20 L 195.90 187.30 L 193.20 180.40 L 191.40 172.40 L 190.60 165.40 L 190.40 158.40 L 190.60 149.50 L 191.50 140.80 L 193.50 131.70 L 196.30 124.50 L 197.90 121.80 L 201.90 117.10 L 206.80 113.20 L 210.70 111.10 L 215.10 109.60 L 219.90 108.60 L 225.30 108.30 L 229.60 108.50 L 233.90 109.20 L 238.10 110.50 L 241.80 112.10 L 245.10 114.20 L 248.20 116.80 L 251.10 119.90 L 253.50 123.40 L 255.60 127.10 Z M 240.50 176.10 L 241.40 169.40 L 241.90 162.70 L 241.90 149.50 L 241.40 143.10 L 240.50 136.70 L 239.20 131.80 L 237.40 128.00 L 235.40 125.30 L 233.50 123.60 L 231.30 122.40 L 228.60 121.70 L 225.50 121.40 L 222.00 121.80 L 219.10 122.80 L 216.70 124.50 L 214.60 126.80 L 212.90 130.00 L 211.50 134.20 L 210.40 139.80 L 209.60 147.10 L 209.40 156.50 L 209.40 163.20 L 209.90 169.80 L 210.90 176.40 L 212.20 181.50 L 213.90 185.30 L 215.90 188.10 L 218.00 189.90 L 220.40 191.20 L 222.90 192.00 L 225.60 192.10 L 228.70 191.90 L 231.40 191.10 L 233.60 189.80 L 235.50 188.00 L 237.60 185.10 L 239.30 181.20 L 240.50 176.20"
					fill="#8cd7ff"
					fill-rule="nonzero"
					group-id="1"
					node-id="192"
					stroke="none"
					target-height="96.899994"
					target-width="70.399994"
					target-x="190.4"
					target-y="108.3" />
				<path
					d="M 323.80 164.60 L 322.80 168.50 L 321.70 171.70 L 320.30 174.30 L 317.90 177.30 L 315.90 178.80 L 313.10 180.10 L 308.90 180.60 L 304.70 180.10 L 301.20 178.40 L 299.20 176.70 L 297.40 174.30 L 296.00 171.60 L 294.60 167.10 L 293.20 158.80 L 292.70 145.10 L 292.80 163.60 L 293.20 170.30 L 294.10 176.50 L 295.40 181.70 L 296.80 184.80 L 299.10 188.20 L 301.20 190.10 L 303.30 191.20 L 305.70 191.90 L 310.30 192.00 L 313.40 191.50 L 315.20 190.80 L 317.20 189.50 L 318.70 188.10 L 320.70 185.10 L 322.40 181.30 L 323.70 176.30 L 324.60 169.50 L 325.10 162.80 L 325.20 144.50 L 325.20 151.20 L 324.70 157.90 L 323.80 164.60 Z"
					fill="#67c8ff"
					fill-rule="nonzero"
					group-id="1"
					node-id="194"
					stroke="none"
					target-height="47.5"
					target-width="32.5"
					target-x="292.7"
					target-y="144.5" />
				<path
					d="M 344.10 144.10 L 344.00 139.00 L 343.50 132.60 L 341.60 123.10 L 339.20 116.40 L 335.60 110.10 L 333.00 106.90 L 330.40 104.40 L 325.10 100.70 L 318.70 98.10 L 311.60 97.00 L 303.20 97.20 L 296.60 98.60 L 293.20 99.90 L 290.00 101.70 L 287.20 103.70 L 284.60 106.10 L 280.30 111.80 L 278.20 115.90 L 276.70 120.20 L 274.80 129.30 L 273.90 138.10 L 273.70 158.40 L 273.90 149.50 L 274.80 140.80 L 275.50 136.20 L 278.20 127.40 L 281.90 120.80 L 284.60 117.60 L 287.80 114.70 L 291.10 112.50 L 294.90 110.70 L 298.90 109.40 L 303.20 108.60 L 311.60 108.40 L 318.60 109.60 L 323.50 111.40 L 329.00 114.70 L 333.20 118.60 L 336.50 123.00 L 338.80 127.10 L 341.60 134.70 L 342.80 140.40 L 343.50 145.90 L 343.90 157.30 L 344.10 144.10 Z"
					fill="#67c8ff"
					fill-rule="nonzero"
					group-id="1"
					node-id="196"
					stroke="none"
					target-height="61.399994"
					target-width="70.399994"
					target-x="273.7"
					target-y="97" />
				<path
					d="M 338.90 127.10 L 340.60 131.20 L 342.00 136.20 L 343.10 142.00 L 343.80 149.00 L 344.10 157.30 L 343.50 169.40 L 342.70 175.50 L 341.60 180.30 L 339.90 184.90 L 337.60 189.30 L 335.20 192.80 L 332.30 196.00 L 329.10 198.70 L 325.50 201.10 L 321.60 202.90 L 317.50 204.20 L 313.30 205.00 L 309.00 205.20 L 302.40 204.60 L 296.10 202.70 L 290.30 199.60 L 285.10 195.40 L 280.90 190.20 L 279.20 187.30 L 276.50 180.40 L 274.70 172.40 L 273.90 165.40 L 273.70 158.40 L 273.90 149.50 L 274.80 140.80 L 276.70 131.70 L 279.60 124.50 L 281.20 121.80 L 285.10 117.10 L 290.00 113.20 L 293.90 111.10 L 298.30 109.60 L 303.10 108.60 L 308.50 108.30 L 312.80 108.50 L 317.10 109.20 L 321.30 110.50 L 325.00 112.10 L 328.40 114.20 L 331.50 116.80 L 334.30 119.90 L 336.80 123.40 L 338.90 127.10 Z M 323.80 176.10 L 324.70 169.40 L 325.20 162.70 L 325.20 149.50 L 324.60 143.10 L 323.70 136.70 L 322.40 131.80 L 320.70 128.00 L 318.60 125.30 L 316.70 123.60 L 314.50 122.40 L 311.90 121.70 L 308.70 121.40 L 305.20 121.80 L 302.30 122.80 L 299.90 124.50 L 297.80 126.80 L 296.10 130.00 L 294.80 134.20 L 293.60 139.80 L 292.90 147.10 L 292.70 163.20 L 293.20 169.80 L 294.10 176.40 L 295.10 180.30 L 296.30 183.50 L 297.60 186.10 L 299.20 188.10 L 301.20 189.90 L 303.60 191.20 L 306.20 192.00 L 308.90 192.10 L 312.00 191.90 L 314.60 191.10 L 316.80 189.80 L 318.80 188.00 L 320.80 185.10 L 322.50 181.20 L 323.80 176.20"
					fill="#8cd7ff"
					fill-rule="nonzero"
					group-id="1"
					node-id="198"
					stroke="none"
					target-height="96.899994"
					target-width="70.399994"
					target-x="273.7"
					target-y="108.3" />
				<path
					d="M 148.00 177.20 L 143.60 179.80 L 138.10 181.20 L 130.00 181.30 L 121.20 179.70 L 119.30 179.60 L 116.80 180.10 L 114.30 181.80 L 113.00 183.50 L 112.10 186.10 L 112.00 196.00 L 112.30 193.80 L 113.50 191.30 L 115.70 189.30 L 117.70 188.40 L 121.20 188.20 L 127.80 189.60 L 132.60 189.90 L 136.40 189.90 L 141.80 188.90 L 143.70 188.20 L 146.80 186.60 L 149.90 183.60 L 151.50 181.20 L 152.50 178.60 L 153.00 174.00 L 153.00 165.40 L 153.00 167.60 L 151.90 171.80 L 149.60 175.60 L 148.00 177.20 Z"
					fill="#67c8ff"
					fill-rule="nonzero"
					group-id="1"
					node-id="200"
					stroke="none"
					target-height="30.600006"
					target-width="41"
					target-x="112"
					target-y="165.4" />
				<g node-id="269">
					<g clip-path="url(#clip-path)" group-id="1,4" node-id="206">
						<path
							d="M 172.50 158.30 L 172.00 155.00 L 171.20 152.20 L 170.00 149.50 L 168.00 146.30 L 165.00 143.00 L 162.70 141.20 L 160.30 139.60 L 154.60 136.90 L 151.40 135.80 L 146.30 134.80 L 141.20 134.40 L 132.80 134.60 L 132.80 143.20 L 142.70 143.10 L 146.20 143.50 L 151.30 144.60 L 157.60 146.90 L 162.70 149.90 L 166.50 153.30 L 168.00 155.00 L 170.00 158.20 L 171.90 163.70 L 172.50 167.00 L 172.80 171.60 L 172.50 158.30 Z"
							fill="#67c8ff"
							fill-rule="nonzero"
							group-id="1,4,10,11"
							node-id="208"
							stroke="none"
							target-height="37.200012"
							target-width="40"
							target-x="132.8"
							target-y="134.4" />
					</g>
				</g>
				<path
					d="M 113.50 159.90 L 113.50 151.30 L 117.20 96.80 L 117.20 105.40 L 113.50 159.90 Z"
					fill="#67c8ff"
					fill-rule="nonzero"
					group-id="1"
					node-id="215"
					stroke="none"
					target-height="63.09999"
					target-width="3.699997"
					target-x="113.5"
					target-y="96.8" />
				<path
					d="M 163.20 105.60 L 166.20 106.70 L 168.50 108.70 L 169.80 111.20 L 170.20 113.90 L 170.20 104.20 L 169.90 102.40 L 167.90 99.30 L 166.20 98.10 L 164.20 97.20 L 117.20 97.00 L 117.20 105.70 L 162.80 105.70 Z"
					fill="#67c8ff"
					fill-rule="nonzero"
					group-id="1"
					node-id="217"
					stroke="none"
					target-height="16.900002"
					target-width="53"
					target-x="117.2"
					target-y="97" />
				<path
					d="M 161.70 105.40 L 164.00 105.70 L 166.00 106.60 L 167.70 107.90 L 169.00 109.60 L 169.90 111.70 L 170.20 113.90 L 169.90 116.20 L 169.00 118.20 L 167.70 119.90 L 166.00 121.30 L 164.00 122.10 L 161.70 122.40 L 134.10 122.40 L 132.70 143.20 L 142.70 143.10 L 146.50 143.50 L 150.60 144.30 L 154.50 145.60 L 158.40 147.30 L 161.90 149.30 L 165.00 151.80 L 167.60 154.50 L 169.60 157.50 L 171.00 160.60 L 172.00 164.00 L 172.60 167.90 L 172.80 172.30 L 172.60 177.20 L 171.90 181.50 L 170.80 185.30 L 168.00 190.60 L 163.60 195.50 L 160.00 198.40 L 156.00 200.80 L 151.60 202.80 L 147.00 204.10 L 141.80 204.90 L 135.90 205.20 L 126.20 205.00 L 121.80 204.60 L 117.70 203.70 L 115.80 202.90 L 114.30 201.90 L 113.10 200.40 L 112.20 198.70 L 111.80 196.90 L 111.80 194.90 L 112.40 192.90 L 113.30 191.30 L 114.60 189.90 L 116.20 188.90 L 118.00 188.30 L 121.20 188.20 L 126.20 189.40 L 134.10 190.10 L 138.60 189.80 L 142.30 188.90 L 145.40 187.60 L 148.00 185.80 L 150.20 183.50 L 151.70 180.80 L 152.60 177.70 L 153.00 174.20 L 152.70 170.60 L 151.70 167.60 L 150.30 165.10 L 148.20 163.10 L 145.50 161.30 L 141.90 160.00 L 137.40 159.10 L 131.60 158.80 L 122.50 159.10 L 113.40 159.90 L 117.20 105.40 Z"
					fill="#8cd7ff"
					fill-rule="nonzero"
					group-id="1"
					node-id="219"
					stroke="none"
					target-height="99.799995"
					target-width="61"
					target-x="111.8"
					target-y="105.4" />
				<path
					d="M 309.60 253.50 L 308.20 253.90 L 306.20 253.70 L 300.60 249.90 L 297.80 247.10 L 297.00 245.40 L 297.30 244.70 L 297.90 246.50 L 299.80 248.70 L 306.00 252.80 L 307.30 253.40 L 308.30 253.40 L 310.00 252.60 L 311.30 251.30 L 311.30 252.20 L 310.90 252.70 L 309.60 253.50 Z"
					fill="#ebfcff"
					fill-rule="nonzero"
					group-id="1"
					node-id="221"
					stroke="none"
					target-height="9.199997"
					target-width="14.299988"
					target-x="297"
					target-y="244.7" />
				<path
					d="M 311.10 247.70 L 311.40 250.30 L 311.20 251.50 L 309.40 252.90 L 307.30 253.40 L 300.90 249.60 L 298.40 247.30 L 297.30 245.10 L 297.50 244.40 L 298.30 244.10 L 301.10 244.40 L 305.70 247.20 L 305.70 246.30 L 307.40 246.60 L 311.20 245.60 L 311.10 247.70 Z"
					fill="#ffb056"
					fill-rule="nonzero"
					group-id="1"
					node-id="223"
					stroke="none"
					target-height="9.299988"
					target-width="14.100006"
					target-x="297.3"
					target-y="244.1" />
				<path
					d="M 310.50 245.80 L 311.20 245.60 L 311.40 245.80 L 311.10 247.60"
					fill="none"
					group-id="1"
					node-id="225"
					stroke="#e49056"
					stroke-linecap="butt"
					stroke-width="0.25"
					target-height="2"
					target-width="0.8999939"
					target-x="310.5"
					target-y="245.6" />
				<path
					d="M 305.30 248.30 L 305.80 248.00 L 305.70 247.20"
					fill="none"
					group-id="1"
					node-id="227"
					stroke="#e49056"
					stroke-linecap="butt"
					stroke-width="0.25"
					target-height="1.1000061"
					target-width="0.5"
					target-x="305.3"
					target-y="247.2" />
				<path
					d="M 297.30 244.70 L 297.00 245.40 L 297.10 245.90 L 299.10 248.60 L 306.20 253.70 L 308.20 253.90 L 309.60 253.50 L 310.90 252.70 L 311.30 252.20 L 311.30 251.30"
					fill="none"
					group-id="1"
					node-id="229"
					stroke="#4986d9"
					stroke-linecap="butt"
					stroke-width="0.13"
					target-height="9.199997"
					target-width="14.299988"
					target-x="297"
					target-y="244.7" />
				<path
					d="M 305.80 168.80 L 305.20 169.70 L 304.70 169.50 L 304.20 169.80 L 303.80 169.40 L 303.50 169.70 L 301.70 168.90 L 301.10 168.10 L 300.70 166.20 L 301.00 164.90 L 298.70 164.10 L 297.90 161.80 L 297.90 160.40 L 299.00 158.10 L 300.00 157.40 L 301.70 156.70 L 303.40 156.50 L 305.20 156.70 L 306.80 157.30 L 308.30 158.60 L 309.20 161.40 L 309.40 163.00 L 309.20 164.60 L 308.60 166.00 L 307.60 167.40 L 305.80 168.80 Z"
					fill="#000000"
					fill-rule="nonzero"
					group-id="1"
					node-id="231"
					stroke="none"
					target-height="13.300003"
					target-width="11.5"
					target-x="297.9"
					target-y="156.5" />
				<path
					d="M 316.50 186.50 L 315.20 187.50 L 313.60 187.90 L 311.90 187.70 L 312.20 181.50 L 313.20 173.80 L 316.50 186.50 Z"
					fill="#e49056"
					fill-rule="nonzero"
					group-id="1"
					node-id="233"
					stroke="none"
					target-height="14.099991"
					target-width="4.600006"
					target-x="311.9"
					target-y="173.8" />
				<path
					d="M 315.30 191.30 L 315.20 192.00 L 314.20 192.90 L 313.50 192.90 L 310.80 191.60 L 311.90 187.60 L 313.60 187.80 L 315.20 187.40 Z"
					fill="#fae6d2"
					fill-rule="nonzero"
					group-id="1"
					node-id="235"
					stroke="none"
					target-height="5.5"
					target-width="4.5"
					target-x="310.8"
					target-y="187.4" />
				<path
					d="M 300.80 166.30 L 301.00 167.60 L 301.70 168.70 L 303.30 169.40 L 303.60 168.70 L 303.90 169.50 L 304.20 168.80 L 304.80 169.40 L 304.80 168.60 L 305.30 169.40 L 305.80 168.80 L 305.70 171.70 L 305.90 172.20 L 306.80 172.50 L 306.00 173.20 L 303.30 173.70 L 301.90 173.50 L 300.00 172.70 L 301.20 172.10 L 301.70 170.20 L 301.60 169.20 L 299.90 168.00 L 299.50 167.40 L 298.90 164.20 L 301.20 164.80 L 300.80 166.30 Z"
					fill="#ffeed2"
					fill-rule="nonzero"
					group-id="1"
					node-id="237"
					stroke="none"
					target-height="9.5"
					target-width="7.899994"
					target-x="298.9"
					target-y="164.2" />
				<path
					d="M 294.80 182.80 L 294.80 183.50 L 294.40 183.90 L 285.00 188.20 L 284.40 188.20 L 283.90 187.80 L 277.90 174.50 L 277.80 173.90 L 278.30 173.40 L 287.70 169.10 L 288.30 169.10 L 288.80 169.50 Z"
					fill="#d3d3d3"
					fill-rule="nonzero"
					group-id="1"
					node-id="239"
					stroke="none"
					target-height="19.09999"
					target-width="17"
					target-x="277.8"
					target-y="169.1" />
				<path
					d="M 288.30 170.30 L 293.50 182.20 L 293.10 182.70 L 284.30 186.40 L 283.80 186.00 L 278.60 174.20 L 279.10 173.70 L 287.30 170.00 L 287.90 169.90 L 288.30 170.30 Z"
					fill="#ffffff"
					fill-rule="nonzero"
					group-id="1"
					node-id="241"
					stroke="none"
					target-height="16.5"
					target-width="14.899994"
					target-x="278.6"
					target-y="169.9" />
				<g node-id="270">
					<path
						d="M 289.40 184.70 L 289.70 184.90 L 289.60 185.60 L 289.20 185.70 L 288.80 185.10 L 289.40 184.70 Z"
						fill="#ffffff"
						fill-rule="nonzero"
						group-id="1,5"
						node-id="245"
						stroke="none"
						target-height="1"
						target-width="0.9000244"
						target-x="288.8"
						target-y="184.7" />
				</g>
				<path
					d="M 285.90 190.30 L 281.90 185.70 L 279.70 179.90 L 280.30 179.90 L 282.10 182.60 L 283.30 183.60 L 284.00 181.80 L 284.40 181.70 L 284.50 183.90 L 285.30 186.90 L 287.10 189.70 Z"
					fill="#ffeed2"
					fill-rule="nonzero"
					group-id="1"
					node-id="248"
					stroke="none"
					target-height="10.400009"
					target-width="7.399994"
					target-x="279.7"
					target-y="179.9" />
				<path
					d="M 284.60 188.90 L 290.00 193.90 L 291.60 194.90 L 292.80 195.10 L 293.10 194.80 L 294.10 190.10 L 294.40 186.10 L 290.90 185.00 L 290.60 190.60 L 285.80 187.70 Z"
					fill="#ffeed2"
					fill-rule="nonzero"
					group-id="1"
					node-id="250"
					stroke="none"
					target-height="10.100006"
					target-width="9.799988"
					target-x="284.6"
					target-y="185" />
				<path
					d="M 313.20 173.70 L 312.20 181.50 L 311.50 204.70 L 299.50 205.20 L 294.90 204.70 L 295.30 184.00 L 294.80 187.70 L 292.70 187.90 L 290.20 187.00 L 291.40 181.40 L 293.40 174.90 L 294.30 174.00 L 300.00 172.70 L 301.90 173.50 L 303.30 173.60 L 306.00 173.20 L 306.80 172.50 L 312.30 173.20 L 313.20 173.70 Z"
					fill="#ffb056"
					fill-rule="nonzero"
					group-id="1"
					node-id="252"
					stroke="none"
					target-height="32.699997"
					target-width="23"
					target-x="290.2"
					target-y="172.5" />
				<path
					d="M 311.30 204.80 L 310.10 225.00 L 310.10 246.00 L 307.50 246.60 L 306.20 246.40 L 304.20 210.00 L 304.00 209.60 L 303.50 209.40 L 302.90 210.00 L 300.10 226.60 L 299.30 247.40 L 297.80 247.70 L 295.10 247.50 L 294.40 225.30 L 295.90 205.00 L 304.20 205.20 L 311.30 204.80 Z"
					fill="#398eed"
					fill-rule="nonzero"
					group-id="1"
					node-id="254"
					stroke="none"
					target-height="42.899994"
					target-width="16.899994"
					target-x="294.4"
					target-y="204.8" />
				<path
					d="M 300.10 252.30 L 298.80 253.00 L 296.90 253.40 L 290.50 251.20 L 286.90 249.20 L 285.70 247.80 L 285.90 247.10 L 286.90 248.60 L 289.30 250.30 L 296.40 252.60 L 297.80 252.80 L 298.80 252.50 L 300.30 251.30 L 301.10 249.70 L 301.40 250.60 L 301.20 251.20 L 300.10 252.30 Z"
					fill="#ebfcff"
					fill-rule="nonzero"
					group-id="1"
					node-id="256"
					stroke="none"
					target-height="6.299988"
					target-width="15.699982"
					target-x="285.7"
					target-y="247.1" />
				<path
					d="M 300.00 246.30 L 301.00 248.70 L 301.10 249.90 L 300.60 250.90 L 299.80 251.80 L 297.80 252.80 L 290.70 250.90 L 287.70 249.20 L 286.00 247.40 L 286.00 246.80 L 286.70 246.20 L 289.50 245.70 L 294.60 247.20 L 294.40 246.40 L 296.10 246.20 L 299.50 244.30 L 300.00 246.30 Z"
					fill="#ffb056"
					fill-rule="nonzero"
					group-id="1"
					node-id="258"
					stroke="none"
					target-height="8.5"
					target-width="15.100006"
					target-x="286"
					target-y="244.3" />
				<path
					d="M 298.90 244.70 L 299.50 244.30 L 299.70 244.40 L 301.10 249.70"
					fill="none"
					group-id="1"
					node-id="260"
					stroke="#e49056"
					stroke-linecap="butt"
					stroke-width="0.25"
					target-height="5.399994"
					target-width="2.2000122"
					target-x="298.9"
					target-y="244.3" />
				<path
					d="M 294.60 248.40 L 295.00 248.00 L 294.60 247.20"
					fill="none"
					group-id="1"
					node-id="262"
					stroke="#e49056"
					stroke-linecap="butt"
					stroke-width="0.25"
					target-height="1.199997"
					target-width="0.3999939"
					target-x="294.6"
					target-y="247.2" />
				<path
					d="M 285.90 247.10 L 285.80 247.80 L 286.00 248.30 L 288.70 250.30 L 296.90 253.30 L 298.90 253.00 L 300.10 252.30 L 301.20 251.20 L 301.40 250.60 L 301.10 249.70"
					fill="none"
					group-id="1"
					node-id="264"
					stroke="#4986d9"
					stroke-linecap="butt"
					stroke-width="0.13"
					target-height="6.199997"
					target-width="15.600006"
					target-x="285.8"
					target-y="247.1" />
			</g>
		</svg>
