		<svg
			height="1024"
			node-id="1"
			sillyvg="true"
			template-height="1024"
			template-width="1024"
			version="1.1"
			viewBox="0 0 1024 1024"
			width="1024"
			xmlns="http://www.w3.org/2000/svg"
			xmlns:xlink="http://www.w3.org/1999/xlink">
			<defs node-id="82">
				<linearGradient
					id="paint0_linear_1515_110953"
					gradientUnits="objectBoundingBox"
					node-id="34"
					spreadMethod="pad"
					x1="506"
					x2="506"
					y1="635"
					y2="890">
					<stop offset="0" stop-color="#bddfff" />
					<stop offset="0.95892" stop-color="#ffffff" stop-opacity="0" />
				</linearGradient>
				<linearGradient
					id="paint1_linear_1515_110953"
					gradientUnits="objectBoundingBox"
					node-id="37"
					spreadMethod="pad"
					x1="229.66"
					x2="229.66"
					y1="754.678"
					y2="615.257">
					<stop offset="0" stop-color="#5fb2ff" />
					<stop offset="0.7893" stop-color="#dff0ff" />
				</linearGradient>
				<linearGradient
					id="paint2_linear_1515_110953"
					gradientUnits="objectBoundingBox"
					node-id="40"
					spreadMethod="pad"
					x1="229.661"
					x2="229.661"
					y1="630.738"
					y2="784.347">
					<stop offset="0" stop-color="#dff0ff" />
					<stop offset="0.818" stop-color="#a2d2ff" />
				</linearGradient>
				<linearGradient
					id="paint3_linear_1515_110953"
					gradientUnits="objectBoundingBox"
					node-id="43"
					spreadMethod="pad"
					x1="883.842"
					x2="847.534"
					y1="720.042"
					y2="802.968">
					<stop offset="0.365159" stop-color="#c4e3ff" />
					<stop offset="1" stop-color="#5fb2ff" />
				</linearGradient>
				<linearGradient
					id="paint4_linear_1515_110953"
					gradientUnits="objectBoundingBox"
					node-id="46"
					spreadMethod="pad"
					x1="758.107"
					x2="794.054"
					y1="210.192"
					y2="308.86">
					<stop offset="0" stop-color="#6cb8ff" />
					<stop offset="1" stop-color="#a2d2ff" />
				</linearGradient>
				<linearGradient
					id="paint5_linear_1515_110953"
					gradientUnits="objectBoundingBox"
					node-id="49"
					spreadMethod="pad"
					x1="797.343"
					x2="805.688"
					y1="278.438"
					y2="383.119">
					<stop offset="0" stop-color="#6cb8ff" />
					<stop offset="1" stop-color="#a2d2ff" />
				</linearGradient>
				<linearGradient
					id="paint6_linear_1515_110953"
					gradientUnits="objectBoundingBox"
					node-id="52"
					spreadMethod="pad"
					x1="721.648"
					x2="770.137"
					y1="90.6377"
					y2="183.786">
					<stop offset="0" stop-color="#6cb8ff" />
					<stop offset="1" stop-color="#a2d2ff" />
				</linearGradient>
				<linearGradient
					id="paint7_linear_1515_110953"
					gradientUnits="objectBoundingBox"
					node-id="55"
					spreadMethod="pad"
					x1="495.23"
					x2="492.295"
					y1="562.935"
					y2="581.546">
					<stop offset="0" stop-color="#ffcda5" />
					<stop offset="1" stop-color="#ffe8d1" />
				</linearGradient>
				<linearGradient
					id="paint8_linear_1515_110953"
					gradientUnits="objectBoundingBox"
					node-id="58"
					spreadMethod="pad"
					x1="504.489"
					x2="468.075"
					y1="519.391"
					y2="557.468">
					<stop offset="0" stop-color="#fff2df" />
					<stop offset="1" stop-color="#fee0bc" />
				</linearGradient>
				<linearGradient
					id="paint9_linear_1515_110953"
					gradientUnits="objectBoundingBox"
					node-id="61"
					spreadMethod="pad"
					x1="489.297"
					x2="518.385"
					y1="520.113"
					y2="560.959">
					<stop offset="0" stop-color="#777ca7" />
					<stop offset="1" stop-color="#636681" />
				</linearGradient>
				<linearGradient
					id="paint10_linear_1515_110953"
					gradientUnits="objectBoundingBox"
					node-id="64"
					spreadMethod="pad"
					x1="414.226"
					x2="417.067"
					y1="636.88"
					y2="650.745">
					<stop offset="0" stop-color="#fee4c3" />
					<stop offset="1" stop-color="#ffd1ac" />
				</linearGradient>
				<linearGradient
					id="paint11_linear_1515_110953"
					gradientUnits="objectBoundingBox"
					node-id="67"
					spreadMethod="pad"
					x1="545.057"
					x2="532.123"
					y1="673.948"
					y2="679.693">
					<stop offset="0" stop-color="#fee4c3" />
					<stop offset="1" stop-color="#ffd1ac" />
				</linearGradient>
				<linearGradient
					id="paint12_linear_1515_110953"
					gradientUnits="objectBoundingBox"
					node-id="70"
					spreadMethod="pad"
					x1="436.566"
					x2="470.138"
					y1="560.413"
					y2="690.698">
					<stop offset="0" stop-color="#ffe194" />
					<stop offset="1" stop-color="#ffbf84" />
				</linearGradient>
				<linearGradient
					id="paint13_linear_1515_110953"
					gradientUnits="objectBoundingBox"
					node-id="73"
					spreadMethod="pad"
					x1="436.566"
					x2="470.138"
					y1="560.413"
					y2="690.698">
					<stop offset="0" stop-color="#ffe194" />
					<stop offset="1" stop-color="#ffbf84" />
				</linearGradient>
				<linearGradient
					id="paint14_linear_1515_110953"
					gradientUnits="objectBoundingBox"
					node-id="76"
					spreadMethod="pad"
					x1="436.566"
					x2="470.138"
					y1="560.413"
					y2="690.698">
					<stop offset="0" stop-color="#ffe194" />
					<stop offset="1" stop-color="#ffbf84" />
				</linearGradient>
				<clipPath id="clip0_1515_110953" node-id="79">
					<path
						d="M 0.00 0.00 L 1024.00 0.00 L 1024.00 1024.00 L 0.00 1024.00 Z"
						fill="#000000"
						fill-rule="nonzero"
						node-id="175"
						stroke="none"
						target-height="1024"
						target-width="1024"
						target-x="0"
						target-y="0" />
				</clipPath>
			</defs>
			<g id="sillyvg_g_0" clip-path="url(#clip0_1515_110953)" node-id="179">
				<path
					d="M 973.00 762.50 L 972.80 766.60 L 972.00 770.70 L 970.80 774.80 L 969.10 779.00 L 966.80 783.20 L 963.90 787.50 L 960.30 792.10 L 955.90 796.70 L 950.60 801.50 L 944.50 806.30 L 937.50 811.30 L 928.70 816.70 L 918.80 822.10 L 907.40 827.70 L 894.50 833.20 L 881.90 838.10 L 868.10 843.00 L 852.90 847.90 L 836.20 852.70 L 802.60 861.00 L 765.10 868.60 L 726.40 874.90 L 684.70 880.30 L 656.60 883.20 L 627.50 885.60 L 597.50 887.50 L 567.50 888.90 L 537.00 889.70 L 506.00 890.00 L 475.00 889.70 L 444.50 888.90 L 414.50 887.50 L 384.50 885.60 L 355.40 883.20 L 327.30 880.30 L 285.60 874.90 L 246.90 868.60 L 209.40 861.00 L 175.80 852.70 L 159.10 847.90 L 143.90 843.00 L 130.10 838.10 L 117.50 833.20 L 104.60 827.70 L 93.20 822.10 L 83.30 816.70 L 74.50 811.30 L 67.50 806.30 L 61.40 801.50 L 56.10 796.70 L 51.70 792.10 L 48.10 787.50 L 45.20 783.20 L 42.90 779.00 L 41.20 774.80 L 40.00 770.70 L 39.20 766.60 L 39.00 762.50 L 39.20 758.40 L 40.00 754.30 L 41.20 750.20 L 42.90 746.00 L 45.20 741.80 L 48.10 737.50 L 51.70 732.90 L 56.10 728.30 L 61.40 723.50 L 67.50 718.70 L 74.50 713.70 L 83.30 708.30 L 93.20 702.90 L 104.60 697.30 L 117.50 691.80 L 130.10 686.90 L 143.90 682.00 L 159.10 677.10 L 175.80 672.30 L 209.40 664.00 L 246.90 656.40 L 285.60 650.10 L 327.30 644.70 L 355.40 641.80 L 384.50 639.40 L 414.50 637.50 L 444.50 636.10 L 475.00 635.30 L 506.00 635.00 L 537.00 635.30 L 567.50 636.10 L 597.50 637.50 L 627.50 639.40 L 656.60 641.80 L 684.70 644.70 L 726.40 650.10 L 765.10 656.40 L 802.60 664.00 L 836.20 672.30 L 852.90 677.10 L 868.10 682.00 L 881.90 686.90 L 894.50 691.80 L 907.40 697.30 L 918.80 702.90 L 928.70 708.30 L 937.50 713.70 L 944.50 718.70 L 950.60 723.50 L 955.90 728.30 L 960.30 732.90 L 963.90 737.50 L 966.80 741.80 L 969.10 746.00 L 970.80 750.20 L 972.00 754.30 L 972.80 758.40 L 973.00 762.50 Z"
					fill="url(#paint0_linear_1515_110953)"
					fill-rule="nonzero"
					node-id="181"
					stroke="none"
					target-height="255"
					target-width="934"
					target-x="39"
					target-y="635" />
				<path
					d="M 230.50 615.50 L 230.20 615.30 L 229.90 615.50 L 226.90 622.60 L 218.30 645.90 L 211.50 667.50 L 208.30 679.50 L 205.40 691.70 L 203.00 704.10 L 201.80 712.40 L 200.20 730.20 L 200.60 735.20 L 201.30 738.20 L 202.60 741.60 L 203.90 743.70 L 207.60 748.00 L 209.90 749.80 L 212.90 751.40 L 216.60 752.80 L 220.50 753.80 L 225.20 754.40 L 231.00 754.70 L 235.40 754.40 L 242.30 753.00 L 245.00 751.90 L 248.50 749.90 L 251.30 747.70 L 253.40 745.20 L 255.20 742.40 L 257.60 736.60 L 258.60 732.10 L 259.00 728.00 L 258.90 716.50 L 257.40 704.80 L 255.60 695.60 L 253.20 685.60 L 247.70 665.50 L 241.60 646.50 L 230.50 615.50 Z"
					fill="url(#paint1_linear_1515_110953)"
					fill-rule="nonzero"
					node-id="183"
					stroke="none"
					target-height="139.40002"
					target-width="58.800003"
					target-x="200.2"
					target-y="615.3" />
				<path
					d="M 229.70 784.30 L 228.90 784.00 L 228.60 783.30 L 228.60 631.80 L 228.90 631.00 L 229.70 630.70 L 230.40 631.00 L 230.70 631.80 L 230.70 783.30 L 230.40 784.00 L 229.70 784.30 Z"
					fill="url(#paint2_linear_1515_110953)"
					fill-rule="nonzero"
					node-id="185"
					stroke="none"
					target-height="153.59998"
					target-width="2.0999908"
					target-x="228.6"
					target-y="630.7" />
				<path
					d="M 869.40 810.70 L 876.50 808.00 L 879.90 806.20 L 883.30 803.80 L 886.60 801.00 L 890.80 795.80 L 891.90 792.80 L 891.70 791.30 L 890.20 789.40 L 888.00 788.50 L 886.20 788.50 L 883.50 789.00 L 879.20 790.50 L 870.90 794.80 L 870.30 794.80 L 869.30 794.30 L 868.80 793.30 L 868.80 792.70 L 870.30 790.40 L 872.70 788.30 L 882.60 781.40 L 890.70 774.50 L 894.20 770.10 L 895.40 767.60 L 896.00 765.10 L 895.60 762.50 L 893.80 760.60 L 892.50 760.00 L 890.40 759.60 L 888.20 759.80 L 883.70 761.50 L 881.60 762.90 L 878.80 765.30 L 873.10 770.90 L 869.80 773.30 L 868.00 774.00 L 866.00 774.40 L 864.00 774.00 L 863.30 773.30 L 862.80 771.30 L 863.30 769.30 L 873.00 757.80 L 876.50 752.90 L 879.40 747.70 L 881.00 744.00 L 882.20 740.20 L 883.00 736.20 L 883.20 732.20 L 882.90 728.30 L 882.00 724.40 L 880.70 721.20 L 878.60 718.40 L 877.20 717.30 L 874.00 716.10 L 872.30 716.10 L 869.40 717.10 L 866.50 719.90 L 863.60 725.20 L 862.30 728.50 L 860.40 737.40 L 858.20 756.20 L 856.90 760.60 L 855.10 763.20 L 853.70 763.30 L 852.30 761.90 L 848.10 748.80 L 846.80 746.00 L 843.90 742.10 L 840.90 740.30 L 839.20 740.10 L 837.80 740.30 L 835.40 741.60 L 834.00 743.30 L 833.00 745.30 L 832.60 747.40 L 832.70 749.60 L 833.60 753.90 L 835.10 757.60 L 837.00 761.10 L 839.20 764.50 L 844.50 770.90 L 845.60 772.70 L 846.30 774.70 L 846.30 776.10 L 845.40 778.80 L 844.50 779.90 L 843.40 780.60 L 842.10 780.70 L 840.70 780.30 L 830.70 774.80 L 826.80 773.70 L 824.90 773.80 L 823.00 774.40 L 820.70 776.20 L 819.40 779.00 L 819.00 780.80 L 819.00 782.70 L 820.00 786.10 L 824.10 793.50 L 827.40 798.30 L 830.10 801.60 L 833.10 804.50 L 838.20 808.40 L 841.60 810.20 L 845.80 811.70 L 852.20 812.90 L 860.00 812.70 L 864.40 812.00 L 869.40 810.70 Z"
					fill="url(#paint3_linear_1515_110953)"
					fill-rule="nonzero"
					node-id="187"
					stroke="none"
					target-height="96.80005"
					target-width="77"
					target-x="819"
					target-y="716.1" />
				<path
					d="M 692.90 251.10 L 700.30 250.50 L 707.30 250.30 L 713.90 250.70 L 720.20 251.70 L 726.10 253.10 L 731.80 255.00 L 737.20 257.40 L 742.40 260.30 L 747.30 263.70 L 752.10 267.70 L 756.70 272.20 L 761.00 277.20 L 765.20 282.80 L 769.00 288.90 L 772.70 295.70 L 776.10 303.20 L 779.20 311.40 L 782.00 320.30 L 784.50 330.20 L 786.60 340.90 L 788.40 352.60 L 789.70 364.30 L 790.40 375.20 L 790.50 385.30 L 790.00 394.70 L 789.10 403.40 L 787.80 411.50 L 786.00 419.00 L 783.80 426.00 L 781.30 432.50 L 778.30 438.50 L 775.10 444.10 L 771.50 449.20 L 767.50 453.80 L 763.30 458.00 L 758.70 461.70 L 753.70 465.10 L 748.30 468.00 L 742.50 470.50 L 736.20 472.60 L 729.50 474.30 L 722.10 475.50 L 714.80 476.20 L 707.80 476.30 L 701.20 475.90 L 694.90 474.90 L 688.90 473.50 L 683.20 471.60 L 677.80 469.10 L 672.60 466.20 L 667.50 462.70 L 662.70 458.70 L 658.10 454.10 L 653.70 449.10 L 649.60 443.40 L 645.80 437.30 L 642.20 430.40 L 638.80 423.00 L 635.80 414.80 L 633.00 405.80 L 630.50 396.00 L 628.40 385.30 L 626.60 373.70 L 625.30 361.90 L 624.70 351.00 L 624.50 340.80 L 624.90 331.40 L 625.80 322.70 L 627.10 314.60 L 628.90 307.20 L 631.00 300.20 L 633.50 293.80 L 636.40 287.90 L 639.70 282.30 L 643.40 277.30 L 647.30 272.70 L 651.60 268.60 L 656.30 264.80 L 661.30 261.50 L 666.70 258.60 L 672.50 256.10 L 678.80 254.00 L 685.60 252.40 L 692.90 251.10 Z M 697.80 288.30 L 694.20 289.00 L 691.00 290.00 L 688.20 291.40 L 685.70 293.10 L 683.50 295.10 L 681.50 297.50 L 679.80 300.50 L 678.20 304.40 L 676.80 309.10 L 675.70 314.90 L 675.00 321.90 L 674.90 329.90 L 675.30 339.90 L 676.30 352.10 L 678.00 367.00 L 680.20 381.80 L 682.30 393.90 L 684.50 403.80 L 686.70 411.70 L 689.20 418.30 L 691.70 423.60 L 694.20 427.80 L 696.80 431.10 L 699.30 433.60 L 701.80 435.40 L 704.40 436.80 L 707.20 437.80 L 710.30 438.40 L 713.70 438.60 L 717.30 438.40 L 721.60 437.50 L 725.30 436.20 L 728.50 434.40 L 731.20 432.20 L 733.60 429.50 L 735.40 426.40 L 736.90 422.60 L 738.20 417.90 L 739.20 412.10 L 739.80 405.10 L 740.00 396.90 L 739.70 386.80 L 738.70 374.30 L 737.00 359.30 L 734.80 344.30 L 732.60 332.20 L 730.30 322.40 L 728.00 314.70 L 725.60 307.90 L 723.20 302.50 L 720.70 298.30 L 718.20 295.10 L 715.80 292.70 L 712.80 290.70 L 709.60 289.20 L 706.00 288.30 L 702.10 288.00 L 697.80 288.30 Z"
					fill="url(#paint4_linear_1515_110953)"
					fill-rule="nonzero"
					node-id="189"
					stroke="none"
					target-height="225.99998"
					target-width="166"
					target-x="624.5"
					target-y="250.3" />
				<path
					d="M 522.40 272.10 L 529.70 273.40 L 536.50 275.20 L 542.80 277.30 L 548.50 279.90 L 553.90 282.80 L 558.80 286.20 L 563.40 290.00 L 567.60 294.10 L 571.50 298.80 L 575.00 303.80 L 578.20 309.40 L 581.10 315.40 L 583.60 321.90 L 585.70 328.80 L 587.40 336.30 L 588.70 344.40 L 589.50 353.10 L 589.80 362.50 L 589.60 372.70 L 588.80 383.60 L 587.40 395.40 L 585.50 407.00 L 583.30 417.60 L 580.70 427.40 L 577.80 436.30 L 574.60 444.50 L 571.10 451.90 L 567.40 458.70 L 563.40 464.80 L 559.20 470.40 L 554.80 475.40 L 550.10 480.00 L 545.30 483.90 L 540.30 487.30 L 535.10 490.20 L 529.60 492.60 L 524.00 494.50 L 518.00 495.90 L 511.70 496.70 L 505.10 497.10 L 498.20 496.90 L 490.80 496.10 L 483.50 494.80 L 476.70 493.10 L 470.50 490.90 L 464.70 488.30 L 459.30 485.30 L 454.30 482.00 L 449.70 478.20 L 445.50 473.90 L 441.50 469.30 L 438.00 464.10 L 434.70 458.50 L 431.90 452.40 L 429.40 445.90 L 427.40 438.90 L 425.70 431.40 L 424.50 423.30 L 423.70 414.60 L 423.40 405.20 L 423.60 395.10 L 424.40 384.20 L 425.80 372.50 L 427.70 360.80 L 430.00 350.10 L 432.60 340.30 L 435.50 331.40 L 438.70 323.20 L 442.10 315.80 L 445.80 309.00 L 449.70 302.90 L 453.80 297.40 L 458.20 292.40 L 462.80 288.00 L 467.70 284.10 L 472.70 280.70 L 478.00 277.90 L 483.50 275.50 L 489.20 273.70 L 495.20 272.30 L 501.40 271.50 L 508.10 271.10 L 515.00 271.30 L 522.40 272.10 Z M 517.20 309.20 L 513.50 308.90 L 510.20 309.00 L 507.10 309.60 L 504.30 310.60 L 501.60 311.90 L 499.10 313.70 L 496.60 316.20 L 494.00 319.50 L 491.40 323.60 L 488.90 328.90 L 486.30 335.50 L 484.10 343.20 L 481.80 352.90 L 479.50 365.00 L 477.20 379.80 L 475.30 394.60 L 474.20 406.90 L 473.60 417.00 L 473.60 425.20 L 474.30 432.20 L 475.30 438.00 L 476.60 442.80 L 478.10 446.60 L 479.90 449.70 L 481.80 452.10 L 484.00 454.10 L 486.50 455.90 L 489.30 457.30 L 492.40 458.30 L 496.00 459.10 L 500.40 459.40 L 504.30 459.10 L 507.80 458.20 L 511.10 456.80 L 514.10 454.80 L 516.60 452.40 L 519.10 449.10 L 521.60 444.90 L 524.10 439.60 L 526.50 433.00 L 528.90 425.20 L 531.30 415.30 L 533.70 403.10 L 536.10 388.10 L 538.00 373.10 L 539.00 360.70 L 539.40 350.70 L 539.30 342.70 L 538.80 335.50 L 537.90 329.70 L 536.60 324.90 L 535.10 321.20 L 533.40 318.30 L 531.00 315.50 L 528.30 313.30 L 525.10 311.50 L 521.50 310.10 L 517.20 309.20 Z"
					fill="url(#paint5_linear_1515_110953)"
					fill-rule="nonzero"
					node-id="191"
					stroke="none"
					target-height="226"
					target-width="166.4"
					target-x="423.4"
					target-y="271.1" />
				<path
					d="M 345.00 266.20 L 269.20 286.40 L 280.90 330.30 L 286.10 326.30 L 291.70 322.80 L 297.50 319.80 L 303.60 317.30 L 310.00 315.30 L 315.90 314.00 L 321.60 313.20 L 327.10 312.90 L 332.60 313.10 L 337.90 313.90 L 343.10 315.10 L 348.20 316.80 L 353.00 319.00 L 357.70 321.60 L 362.20 324.80 L 366.50 328.60 L 370.70 332.90 L 374.30 337.40 L 377.70 342.40 L 380.70 347.80 L 383.50 353.70 L 386.00 360.20 L 388.10 367.30 L 389.80 374.80 L 390.80 382.00 L 391.10 389.00 L 390.80 395.80 L 389.80 402.50 L 388.30 409.00 L 386.50 414.40 L 384.30 419.50 L 381.70 424.50 L 378.60 429.30 L 375.00 433.90 L 371.00 438.30 L 366.40 442.60 L 361.00 447.00 L 355.10 451.10 L 348.70 454.70 L 341.70 458.00 L 334.10 460.90 L 325.90 463.40 L 318.10 465.20 L 310.40 466.30 L 303.00 466.90 L 295.80 466.80 L 288.70 466.20 L 281.70 465.10 L 274.80 463.30 L 268.00 461.00 L 261.30 458.10 L 254.60 454.50 L 247.90 450.30 L 268.40 417.70 L 273.60 421.10 L 278.80 423.80 L 283.90 425.80 L 288.90 427.40 L 293.90 428.30 L 298.90 428.80 L 304.00 428.70 L 309.10 428.20 L 314.30 427.10 L 318.90 425.60 L 323.00 423.80 L 326.60 421.80 L 329.70 419.40 L 332.30 416.90 L 334.60 414.00 L 336.50 410.90 L 338.00 407.50 L 339.10 404.00 L 339.80 400.10 L 340.10 395.90 L 340.00 391.40 L 339.30 386.40 L 338.10 381.00 L 336.20 374.70 L 334.00 369.50 L 331.60 365.10 L 329.00 361.50 L 326.20 358.60 L 323.20 356.30 L 320.10 354.60 L 316.60 353.30 L 312.90 352.60 L 308.90 352.40 L 304.40 352.80 L 299.40 353.80 L 295.40 355.10 L 291.50 356.80 L 284.30 361.20 L 280.50 364.10 L 276.40 367.90 L 243.30 376.70 L 213.20 263.90 L 341.30 229.80 L 345.00 266.20 Z"
					fill="url(#paint6_linear_1515_110953)"
					fill-rule="nonzero"
					node-id="193"
					stroke="none"
					target-height="237.09999"
					target-width="177.90001"
					target-x="213.2"
					target-y="229.8" />
				<path
					d="M 314.00 617.20 L 525.80 740.70 L 525.80 803.00 L 314.00 679.50 L 314.00 617.20 Z"
					fill="#b8d9f6"
					fill-rule="nonzero"
					node-id="195"
					stroke="none"
					target-height="185.79999"
					target-width="211.79999"
					target-x="314"
					target-y="617.2" />
				<path
					d="M 332.20 645.70 L 468.00 725.30 L 468.00 735.40 L 332.20 655.80 L 332.20 645.70 Z M 332.20 666.50 L 468.00 746.10 L 468.00 756.20 L 332.20 676.60 L 332.20 666.50 Z M 480.50 731.90 L 505.50 746.90 L 505.50 775.00 L 480.50 760.10 L 480.50 731.90 Z"
					fill="#5ca8ea"
					fill-rule="nonzero"
					node-id="197"
					stroke="none"
					target-height="129.29999"
					target-width="173.29999"
					target-x="332.2"
					target-y="645.7" />
				<path
					d="M 710.30 633.70 L 525.80 740.70 L 525.80 803.00 L 710.30 695.20 L 710.30 633.70 Z"
					fill="#99c9f2"
					fill-rule="nonzero"
					node-id="199"
					stroke="none"
					target-height="169.29999"
					target-width="184.5"
					target-x="525.8"
					target-y="633.7" />
				<path
					d="M 710.30 633.70 L 497.40 512.00 L 314.00 617.20 L 525.80 740.40 L 710.30 633.70 Z"
					fill="#e0effb"
					fill-rule="nonzero"
					node-id="201"
					stroke="none"
					target-height="228.40002"
					target-width="396.3"
					target-x="314"
					target-y="512" />
				<path
					d="M 459.00 787.50 L 458.70 789.00 L 458.00 790.40 L 456.70 791.90 L 454.60 793.50 L 451.60 795.20 L 447.60 796.80 L 442.50 798.50 L 431.30 800.80 L 424.50 801.80 L 410.40 802.80 L 402.50 803.00 L 394.60 802.80 L 380.50 801.80 L 373.70 800.80 L 362.50 798.50 L 357.40 796.80 L 353.40 795.20 L 350.40 793.50 L 348.30 791.90 L 347.00 790.40 L 346.30 789.00 L 346.00 787.50 L 346.30 786.00 L 347.00 784.60 L 348.30 783.10 L 350.40 781.50 L 353.40 779.80 L 357.40 778.20 L 362.50 776.50 L 373.70 774.20 L 380.50 773.20 L 394.60 772.20 L 402.50 772.00 L 410.40 772.20 L 424.50 773.20 L 431.30 774.20 L 442.50 776.50 L 447.60 778.20 L 451.60 779.80 L 454.60 781.50 L 456.70 783.10 L 458.00 784.60 L 458.70 786.00 L 459.00 787.50 Z"
					fill="#7d7d7d"
					fill-opacity="0.1"
					fill-rule="nonzero"
					node-id="203"
					stroke="none"
					target-height="31"
					target-width="113"
					target-x="346"
					target-y="772" />
				<path
					d="M 485.10 558.50 L 506.20 561.80 L 502.80 583.20 L 481.80 579.90 L 485.10 558.50 Z"
					fill="url(#paint7_linear_1515_110953)"
					fill-rule="nonzero"
					node-id="205"
					stroke="none"
					target-height="24.700012"
					target-width="24.400024"
					target-x="481.8"
					target-y="558.5" />
				<path
					d="M 488.10 565.90 L 485.40 564.90 L 482.90 563.50 L 480.70 561.80 L 478.70 559.80 L 475.60 555.00 L 473.70 549.20 L 473.30 546.20 L 473.50 539.80 L 474.20 536.50 L 475.30 533.30 L 478.40 527.70 L 480.30 525.30 L 484.90 521.40 L 490.10 518.90 L 492.80 518.10 L 495.60 517.80 L 498.40 518.00 L 501.30 518.50 L 504.10 519.50 L 506.60 520.90 L 508.80 522.60 L 510.80 524.60 L 513.90 529.40 L 515.80 535.20 L 516.20 538.20 L 516.00 544.60 L 515.30 547.90 L 514.10 551.20 L 511.10 556.70 L 509.10 559.10 L 504.60 563.00 L 499.40 565.50 L 496.60 566.30 L 493.90 566.60 L 491.00 566.40 L 488.10 565.90 Z"
					fill="url(#paint8_linear_1515_110953)"
					fill-rule="nonzero"
					node-id="207"
					stroke="none"
					target-height="48.799988"
					target-width="42.900024"
					target-x="473.3"
					target-y="517.8" />
				<path
					d="M 501.00 546.50 L 491.20 539.60 L 478.30 531.80 L 476.20 530.10 L 476.40 527.60 L 477.90 522.90 L 481.10 517.70 L 483.30 515.30 L 486.10 513.20 L 491.30 510.30 L 496.00 509.10 L 500.20 508.50 L 504.00 508.50 L 507.70 508.90 L 511.00 509.70 L 514.00 510.90 L 518.10 513.10 L 521.50 515.50 L 524.30 518.10 L 528.80 523.60 L 528.80 524.40 L 531.30 528.40 L 531.40 533.70 L 531.20 538.20 L 529.90 545.50 L 527.70 551.00 L 524.60 555.30 L 520.00 559.30 L 517.00 561.20 L 514.00 562.40 L 509.50 563.10 L 506.10 562.50 L 503.70 560.00 L 502.80 557.10 L 503.90 557.50 L 505.40 557.50 L 506.90 557.10 L 508.60 556.30 L 510.00 555.00 L 511.60 551.80 L 511.80 548.10 L 510.30 545.50 L 508.20 544.30 L 505.40 544.50 L 501.30 546.70 L 501.00 546.50 Z"
					fill="url(#paint9_linear_1515_110953)"
					fill-rule="evenodd"
					node-id="209"
					stroke="none"
					target-height="54.599976"
					target-width="55.200012"
					target-x="476.2"
					target-y="508.5" />
				<path
					d="M 476.40 524.60 L 489.20 532.80 L 511.00 547.70 L 519.00 552.40 L 523.00 553.90 L 524.70 554.00 L 526.10 553.70 L 527.30 553.00 L 528.90 551.40 L 530.80 548.70 L 532.60 544.70 L 534.00 540.80 L 534.80 537.10 L 535.20 533.40 L 535.00 529.60 L 534.50 526.10 L 533.40 522.80 L 531.90 519.60 L 530.00 516.70 L 527.70 514.00 L 524.80 511.70 L 521.50 509.50 L 517.90 507.80 L 514.00 506.50 L 509.80 505.60 L 505.60 505.20 L 501.40 505.30 L 497.10 506.00 L 494.00 506.90 L 488.20 509.90 L 485.30 512.00 L 482.90 514.30 L 480.50 517.20 L 478.40 520.60 L 476.40 524.60 Z"
					fill="#585449"
					fill-rule="nonzero"
					node-id="211"
					stroke="none"
					target-height="48.799988"
					target-width="58.80002"
					target-x="476.4"
					target-y="505.2" />
				<path
					d="M 464.50 511.90 L 464.30 512.80 L 464.70 514.10 L 465.80 515.90 L 468.20 518.50 L 472.10 521.70 L 476.50 524.70 L 481.90 527.80 L 487.50 530.50 L 492.40 532.50 L 497.20 533.90 L 500.60 534.50 L 502.80 534.40 L 504.10 534.00 L 504.80 533.30 L 505.00 532.30 L 504.60 531.00 L 503.40 529.20 L 501.00 526.60 L 497.20 523.50 L 492.80 520.50 L 487.40 517.40 L 481.80 514.60 L 476.90 512.70 L 472.10 511.20 L 468.60 510.70 L 466.50 510.70 L 465.20 511.20 L 464.50 511.90 Z"
					fill="#585449"
					fill-rule="nonzero"
					group-id="1"
					node-id="215"
					stroke="none"
					target-height="23.799988"
					target-width="40.700012"
					target-x="464.3"
					target-y="510.7" />
				<path
					d="M 510.90 553.40 L 511.80 551.80 L 512.10 548.60 L 511.70 547.10 L 511.00 545.80 L 509.80 544.70 L 508.40 544.10 L 506.90 543.80 L 505.30 544.00 L 503.90 544.50 L 502.50 545.40 L 501.30 546.80 L 500.50 548.40 L 500.20 549.90 L 500.60 553.00 L 501.30 554.30 L 502.50 555.40 L 503.90 556.10 L 505.40 556.30 L 507.00 556.20 L 509.80 554.70 L 510.90 553.40 Z"
					fill="#ffe9cd"
					fill-rule="nonzero"
					group-id="2"
					node-id="220"
					stroke="none"
					target-height="12.5"
					target-width="11.899963"
					target-x="500.2"
					target-y="543.8" />
				<path
					d="M 418.10 777.60 L 409.10 777.00 L 408.40 789.10 L 417.40 789.60 Z"
					fill="#fee4c3"
					fill-rule="nonzero"
					group-id="3"
					node-id="225"
					stroke="none"
					target-height="12.599976"
					target-width="9.700012"
					target-x="408.4"
					target-y="777" />
				<path
					d="M 396.50 794.20 L 396.80 795.50 L 397.50 796.40 L 398.40 797.00 L 400.20 797.60 L 402.60 797.80 L 408.60 797.30 L 415.10 796.30 L 418.10 795.50 L 420.50 794.50 L 421.80 793.50 L 422.70 792.30 L 423.20 790.90 L 423.20 789.10 L 422.50 787.50 L 421.50 785.90 L 419.30 783.80 L 416.60 785.30 L 414.40 785.80 L 411.00 785.70 L 408.80 785.10 L 403.00 787.60 L 400.30 789.30 L 397.10 792.20 L 396.50 794.20 Z"
					fill="#7b7b7b"
					fill-rule="nonzero"
					node-id="228"
					stroke="none"
					target-height="14"
					target-width="26.700012"
					target-x="396.5"
					target-y="783.8" />
				<path
					d="M 389.10 761.10 L 380.10 760.60 L 379.40 772.60 L 388.40 773.10 Z"
					fill="#fee4c3"
					fill-rule="nonzero"
					group-id="4"
					node-id="232"
					stroke="none"
					target-height="12.5"
					target-width="9.700012"
					target-x="379.4"
					target-y="760.6" />
				<path
					d="M 366.00 779.30 L 367.00 781.40 L 368.00 782.00 L 369.70 782.60 L 372.20 782.70 L 378.20 782.20 L 384.70 781.10 L 387.70 780.30 L 390.00 779.20 L 391.30 778.20 L 392.20 777.00 L 392.70 775.60 L 392.60 773.70 L 392.00 772.20 L 390.90 770.60 L 388.70 768.60 L 386.00 770.10 L 383.80 770.60 L 380.40 770.50 L 378.30 770.00 L 375.40 771.10 L 369.80 774.30 L 367.70 775.90 L 366.70 777.20 L 366.00 779.30 Z"
					fill="#7b7b7b"
					fill-rule="nonzero"
					node-id="235"
					stroke="none"
					target-height="14.100037"
					target-width="26.700012"
					target-x="366"
					target-y="768.6" />
				<path
					d="M 494.60 673.80 L 492.60 677.40 L 490.20 680.00 L 485.70 683.70 L 478.50 687.60 L 468.00 691.40 L 462.10 693.00 L 454.90 694.40 L 446.10 695.60 L 437.40 696.40 L 427.00 696.80 L 414.80 696.90 L 412.70 707.20 L 407.60 724.80 L 400.40 744.40 L 392.20 762.80 L 379.00 764.50 L 390.80 690.90 L 391.60 687.70 L 392.80 684.90 L 394.60 682.20 L 396.80 679.80 L 399.30 677.90 L 402.20 676.40 L 411.40 673.30 L 423.70 670.30 L 436.90 667.50 L 461.20 662.90 L 494.60 673.80 Z"
					fill="#d5d5d5"
					fill-rule="nonzero"
					node-id="237"
					stroke="none"
					target-height="101.599976"
					target-width="115.600006"
					target-x="379"
					target-y="662.9" />
				<path
					d="M 504.90 672.00 L 504.50 676.00 L 503.50 679.00 L 502.10 682.10 L 499.70 686.00 L 495.30 691.10 L 492.00 694.00 L 488.60 696.50 L 484.30 699.10 L 479.10 701.80 L 473.80 704.00 L 467.30 706.20 L 459.60 708.30 L 451.80 710.00 L 442.70 711.40 L 432.10 712.50 L 431.50 723.40 L 429.10 741.90 L 424.80 762.40 L 419.40 781.60 L 407.20 782.20 L 406.00 707.70 L 406.20 704.40 L 406.90 701.30 L 408.20 698.40 L 409.90 695.60 L 412.00 693.30 L 414.60 691.30 L 423.10 686.60 L 434.60 681.40 L 447.10 676.20 L 470.20 667.40 L 504.90 672.00 Z"
					fill="#dcdcdc"
					fill-rule="nonzero"
					node-id="239"
					stroke="none"
					target-height="114.79999"
					target-width="98.899994"
					target-x="406"
					target-y="667.4" />
				<path
					d="M 408.30 648.90 L 409.00 650.20 L 410.10 651.00 L 411.60 651.30 L 414.20 651.20 L 420.70 649.90 L 425.40 648.10 L 427.00 646.90 L 427.70 645.90 L 428.00 643.60 L 426.90 641.30 L 425.80 640.40 L 423.80 639.30 L 421.40 638.50 L 418.80 638.30 L 416.10 638.50 L 413.20 637.80 L 410.70 637.70 L 408.60 638.00 L 406.60 638.80 L 405.20 639.80 L 404.10 641.00 L 403.40 642.50 L 403.30 643.90 L 403.60 645.40 L 404.50 646.70 L 406.00 647.90 L 408.30 648.90 Z"
					fill="url(#paint10_linear_1515_110953)"
					fill-rule="nonzero"
					node-id="241"
					stroke="none"
					target-height="13.599976"
					target-width="24.700012"
					target-x="403.3"
					target-y="637.7" />
				<path
					d="M 538.70 685.70 L 537.20 685.90 L 536.00 685.50 L 534.80 684.50 L 533.40 682.30 L 530.70 676.20 L 529.50 671.30 L 529.50 669.40 L 529.90 668.20 L 531.50 666.60 L 534.10 666.30 L 537.50 667.50 L 539.50 669.00 L 541.20 671.00 L 542.60 673.30 L 544.90 675.30 L 546.40 677.30 L 547.40 679.20 L 547.90 681.20 L 547.90 683.00 L 547.50 684.60 L 546.80 686.00 L 545.70 686.90 L 544.30 687.50 L 542.80 687.60 L 540.90 687.10 L 538.70 685.70 Z"
					fill="url(#paint11_linear_1515_110953)"
					fill-rule="nonzero"
					node-id="243"
					stroke="none"
					target-height="21.299988"
					target-width="18.400024"
					target-x="529.5"
					target-y="666.3" />
				<path
					d="M 483.80 570.90 L 477.70 572.70 L 472.30 575.30 L 469.80 577.10 L 467.50 579.30 L 464.90 582.70 L 462.30 586.40 L 457.80 594.30 L 454.30 601.60 L 448.30 615.70 L 443.70 622.80 L 438.50 629.00 L 435.00 632.10 L 430.70 634.00 L 424.90 635.90 L 416.30 637.50 L 418.20 649.80 L 432.10 649.80 L 441.60 648.80 L 446.20 647.90 L 449.40 646.70 L 452.20 645.10 L 454.60 643.10 L 458.10 639.20 L 460.00 636.30 L 483.80 570.90 Z"
					fill="url(#paint12_linear_1515_110953)"
					fill-rule="evenodd"
					node-id="245"
					stroke="none"
					target-height="78.89996"
					target-width="67.5"
					target-x="416.3"
					target-y="570.9" />
				<path
					d="M 483.70 569.50 L 485.60 572.00 L 487.50 573.80 L 489.30 574.90 L 493.30 576.00 L 495.20 575.90 L 498.10 575.30 L 500.70 574.20 L 504.80 571.30 L 505.40 571.60 L 507.40 573.30 L 509.50 575.80 L 512.50 580.10 L 513.30 582.00 L 514.00 584.80 L 514.70 595.20 L 514.50 603.40 L 513.20 621.70 L 511.00 641.70 L 506.20 678.10 L 478.30 675.60 L 456.90 672.60 L 446.20 670.20 L 443.10 669.00 L 441.40 668.00 L 440.80 667.10 L 443.50 659.70 L 446.80 648.30 L 459.70 596.20 L 461.60 591.40 L 465.20 585.00 L 467.50 581.70 L 470.20 578.30 L 473.30 575.30 L 476.50 572.70 L 478.90 571.30 L 483.70 569.50 Z"
					fill="url(#paint13_linear_1515_110953)"
					fill-rule="nonzero"
					node-id="247"
					stroke="none"
					target-height="108.599976"
					target-width="73.900024"
					target-x="440.8"
					target-y="569.5" />
				<path
					d="M 529.10 592.00 L 527.40 588.60 L 526.10 586.80 L 520.80 581.80 L 514.40 577.50 L 508.00 574.00 L 507.60 575.10 L 506.60 583.70 L 506.60 591.10 L 506.90 594.80 L 508.30 601.50 L 510.70 606.70 L 512.80 615.10 L 516.60 641.80 L 523.50 661.30 L 526.90 669.50 L 530.60 676.20 L 537.70 673.90 L 542.60 673.20 L 540.80 662.00 L 539.00 653.50 L 537.00 645.60 L 534.60 638.50 L 532.00 608.90 L 530.30 597.20 L 529.10 592.00 Z"
					fill="url(#paint14_linear_1515_110953)"
					fill-rule="nonzero"
					node-id="249"
					stroke="none"
					target-height="102.20001"
					target-width="35.99997"
					target-x="506.6"
					target-y="574" />
				<path
					d="M 480.40 570.60 L 482.10 569.80 L 483.60 569.60 L 485.50 571.70 L 487.30 573.30 L 489.10 574.30 L 493.10 575.20 L 497.90 574.70 L 500.50 573.80 L 504.70 571.40 L 505.60 571.70 L 507.40 573.40 L 503.50 575.60 L 500.20 577.00 L 497.30 577.80 L 494.20 578.10 L 491.60 578.00 L 489.30 577.50 L 485.30 575.70 L 481.70 572.50 L 480.40 570.60 Z"
					fill="#fb955b"
					fill-rule="nonzero"
					node-id="251"
					stroke="none"
					target-height="8.5"
					target-width="27"
					target-x="480.4"
					target-y="569.6" />
			</g>
		</svg>
