<!-- <?xml version="1.0" ?><svg viewBox="0 0 60 60" xmlns="http://www.w3.org/2000/svg"><rect fill="transparent" height="60" rx="10" width="60"/><path d="M16.58,45.75l-2.89,5a2.971,2.971,0,0,1-2.6,1.5,3.04,3.04,0,0,1-1.5-.4,3,3,0,0,1-1.09-4.1l1.15-2Z" fill="#f1f3f4"/><path d="M11.09,53.75A4.492,4.492,0,0,1,7.2,47L8.35,45a1.5,1.5,0,0,1,1.3-.752h6.93a1.5,1.5,0,0,1,1.3,2.25l-2.89,5A4.484,4.484,0,0,1,11.09,53.75Zm-.572-6.5L9.8,48.5a1.508,1.508,0,0,0,.543,2.055,1.537,1.537,0,0,0,2.042-.543l1.6-2.76Z"/><path d="M55.66,42.75a3,3,0,0,1-3,3H50.35l1.15,2a3,3,0,0,1-1.09,4.1,3.04,3.04,0,0,1-1.5.4,2.971,2.971,0,0,1-2.6-1.5l-2.89-5-3.46-6L30,22.5l3.46-6L46.88,39.75h5.78A3,3,0,0,1,55.66,42.75Z" fill="#f1f3f4"/><path d="M48.91,53.75a4.489,4.489,0,0,1-3.9-2.26L28.7,23.25a1.5,1.5,0,0,1,0-1.5l3.46-6a1.5,1.5,0,0,1,2.6,0l12.987,22.5H52.66a4.5,4.5,0,0,1,.269,8.992A4.492,4.492,0,0,1,48.91,53.75ZM31.732,22.5,47.609,50A1.5,1.5,0,1,0,50.2,48.5l-1.151-2a1.5,1.5,0,0,1,1.3-2.248h2.31a1.5,1.5,0,0,0,0-3H46.88a1.5,1.5,0,0,1-1.3-.75L33.46,19.5Z"/><path d="M43.42,45.75H7.34a3,3,0,0,1,0-6h5.78L26.54,16.5l-2.89-5a3,3,0,1,1,5.19-3L30,10.51,31.16,8.5a3,3,0,1,1,5.19,3l-2.89,5L30,22.5,20.04,39.75H39.96Z" fill="#f1f3f4"/><path d="M43.42,47.25H7.34a4.5,4.5,0,0,1,0-9h4.914L24.808,16.5l-2.457-4.25A4.5,4.5,0,0,1,30,7.526a4.5,4.5,0,0,1,7.649,4.723l-15.011,26H39.96a1.5,1.5,0,0,1,1.3.75l3.46,6a1.5,1.5,0,0,1-1.3,2.25Zm-36.08-6a1.5,1.5,0,0,0,0,3H40.823l-1.73-3H20.04a1.5,1.5,0,0,1-1.3-2.25l16.31-28.25a1.5,1.5,0,1,0-2.593-1.5L31.3,11.26a1.5,1.5,0,0,1-2.6,0l-1.16-2.01a1.5,1.5,0,1,0-2.592,1.5l2.89,5a1.5,1.5,0,0,1,0,1.5L14.419,40.5a1.5,1.5,0,0,1-1.3.75Z"/><path d="M39.96,41.25H20.04a1.5,1.5,0,0,1,0-3H39.96a1.5,1.5,0,1,1,0,3Z" /><path d="M39.961,41.25a1.5,1.5,0,0,1-1.3-.75L28.7,23.25a1.5,1.5,0,1,1,2.6-1.5L41.259,39a1.5,1.5,0,0,1-1.3,2.25Z" /><path d="M20.039,41.25a1.5,1.5,0,0,1-1.3-2.25l13.42-23.25a1.5,1.5,0,0,1,2.6,1.5L21.339,40.5A1.5,1.5,0,0,1,20.039,41.25Z"/></svg> -->

<svg t="1702188189440" class="icon" viewBox="0 0 1024 1024" version="1.1" xmlns="http://www.w3.org/2000/svg" p-id="13607" width="200" height="200"><path d="M313.880381 196.754286a69.973333 69.973333 0 0 1 35.230476 19.139047l155.501714 155.526096 0.902096-0.926477 44.958476 45.446096-0.658286 0.682666 122.368 122.368 86.308572 87.259429-167.740953 167.765333c-48.566857 48.542476-130.096762 45.714286-182.125714-6.339047L92.94019 472.015238c-26.014476-26.038857-27.452952-66.80381-3.169523-91.062857 9.069714-9.094095 20.943238-14.921143 33.962666-16.725333l103.277715-14.287238 14.287238-103.277715c4.827429-34.840381 37.302857-57.173333 72.557714-49.907809z m-11.385905 62.902857l-18.70019 147.065905-147.041524 18.675809 318.098286 318.122667c26.233905 26.233905 66.876952 28.111238 90.794666 4.193524l122.441143-122.441143-365.592381-365.592381z m529.359238-4.534857l101.10781 101.107809c24.966095 24.966095 24.746667 65.682286-0.487619 90.916572l-146.285715 146.212571-44.934095-45.446095 146.017524-145.968762-101.13219-101.10781c-33.28-33.28-87.527619-32.987429-121.173334 0.658286l-84.187428 84.163048-44.958477-45.470476 83.919239-83.870477c58.904381-58.904381 153.84381-59.440762 212.114285-1.194666z" p-id="13608"></path></svg>
