<svg t="1702188288797" class="icon" viewBox="0 0 1024 1024" version="1.1" xmlns="http://www.w3.org/2000/svg" p-id="14111" width="200" height="200"><path d="M313.880381 196.754286a69.973333 69.973333 0 0 1 35.230476 19.139047l155.501714 155.526096 0.902096-0.926477 44.958476 45.446096-0.658286 0.682666 122.368 122.368 86.308572 87.259429-167.740953 167.765333c-48.566857 48.542476-130.096762 45.714286-182.125714-6.339047L92.94019 472.015238c-26.014476-26.038857-27.452952-66.80381-3.169523-91.062857 9.069714-9.094095 20.943238-14.921143 33.962666-16.725333l103.277715-14.287238 14.287238-103.277715c4.827429-34.840381 37.302857-57.173333 72.557714-49.907809z m-11.385905 62.902857l-18.70019 147.065905-147.041524 18.675809 318.098286 318.122667c26.233905 26.233905 66.876952 28.111238 90.794666 4.193524l122.441143-122.441143-365.592381-365.592381z m529.359238-4.534857l101.10781 101.107809c24.966095 24.966095 24.746667 65.682286-0.487619 90.916572l-146.285715 146.212571-44.934095-45.446095 146.017524-145.968762-101.13219-101.10781c-33.28-33.28-87.527619-32.987429-121.173334 0.658286l-84.187428 84.163048-44.958477-45.470476 83.919239-83.870477c58.904381-58.904381 153.84381-59.440762 212.114285-1.194666z" p-id="14112" fill="#17abe3"></path></svg>
